<svg width="213" height="214" viewBox="0 0 213 214" fill="none" xmlns="http://www.w3.org/2000/svg">
<g id="Illustration">
<g id="Group 1164">
<path id="Path 1764" d="M187.562 181.809C183.984 185.434 180.053 188.693 175.827 191.537C137.545 218.572 92.2469 210.689 82.62 208.768C68.4041 205.926 40.9248 200.433 21.0598 177.436C-8.99745 142.646 -4.31735 87.8323 18.9972 51.6509C23.2616 45.0328 45.7888 8.2989 91.5774 2.40813C119.286 -1.15704 151.586 6.03333 174.976 25.3222C224.07 65.8067 220.575 147.6 187.562 181.809Z" fill="url(#paint0_linear_112_9386)"/>
<g id="Group 1145">
<g id="Group 1143">
<path id="Path 1850" d="M94.8865 132.103C90.293 117.681 81.4056 106.187 70.8773 99.43C61.45 93.4333 54.7387 83.9905 52.1751 73.1157C51.9112 71.9736 51.597 70.8294 51.2327 69.6828C45.7083 52.3373 30.5554 41.676 17.3884 45.8696C4.22133 50.0633 -1.97496 67.5244 3.55025 84.8699C4.63248 88.2896 6.14375 91.5582 8.04794 94.5979C13.9758 103.87 16.1217 115.063 14.0436 125.87C12.0729 136.319 12.7746 147.096 16.0834 157.2C21.2195 173.327 31.725 185.793 43.8889 192.069C48.4934 194.438 52.6236 197.632 56.0739 201.493C61.7831 207.903 69.83 210.917 77.2218 208.561C85.1965 206.021 90.179 197.945 90.537 188.523C90.7767 183.191 91.9618 177.944 94.0368 173.026C98.8613 161.363 99.5308 146.685 94.8865 132.103Z" fill="#11AB6D"/>
<path id="Path 1851" opacity="0.57" d="M27.8755 62.8535C33.2472 73.7694 38.2616 84.8495 43.1598 95.9812C44.3857 98.7636 45.566 101.566 46.7562 104.364L48.5399 108.562L50.2879 112.774C51.4431 115.586 52.6371 118.384 53.7596 121.21L57.1287 129.687C59.3023 135.368 61.5245 141.029 63.5887 146.75C64.6261 149.608 65.7167 152.45 66.6994 155.327L69.6771 163.951C73.5303 175.49 77.0947 187.131 80.0594 198.931L79.5502 199.065L76.9936 190.325L76.3597 188.138L75.6712 185.968L74.285 181.63L72.9071 177.29C72.4511 175.846 71.9403 174.412 71.4631 172.972C70.4819 170.1 69.5235 167.218 68.5241 164.352C64.4505 152.911 60.2241 141.525 55.7629 130.228C53.489 124.597 51.263 118.946 48.9496 113.33L47.2259 109.113L45.4665 104.91C44.2953 102.108 43.1241 99.3062 41.9248 96.5155C39.5739 90.9143 37.1807 85.3305 34.7451 79.7643C32.3369 74.1864 29.888 68.6262 27.3982 63.0838L27.8755 62.8535Z" fill="white"/>
</g>
<g id="Group 1144">
<path id="Path 1852" d="M133.314 103.435C131.167 87.684 124.072 74.1841 114.436 65.2829C105.793 57.3588 100.574 46.3806 99.8862 34.6747C99.8189 33.4455 99.7003 32.2041 99.5306 30.9506C96.9466 12.0076 83.2491 -1.76743 68.9314 0.184258C54.6137 2.13594 45.1001 19.0741 47.6818 38.0171C48.183 41.7509 49.1533 45.4065 50.5697 48.8973C55.0144 59.5619 55.2183 71.5214 51.1397 82.3313C47.2356 92.7886 46.0268 104.061 47.6247 115.108C50.0248 132.72 58.6136 147.519 70.0197 156.215C74.3429 159.502 78.0266 163.554 80.8878 168.17C85.6211 175.836 93.3701 180.41 101.408 179.315C110.079 178.133 116.66 170.683 118.719 160.999C119.921 155.53 122.082 150.317 125.103 145.602C132.164 134.421 135.485 119.36 133.314 103.435Z" fill="#69D55A"/>
<path id="Path 1853" opacity="0.57" d="M76.692 19.6594C80.2685 31.9243 83.4483 44.2934 86.4959 56.6966C87.2597 59.7966 87.9741 62.9096 88.6999 66.0195L89.7852 70.6844L90.8318 75.3584C91.5158 78.4744 92.2461 81.5867 92.8959 84.7133L94.8468 94.0925C96.0682 100.362 97.3419 106.621 98.4462 112.913C99.0025 116.058 99.6204 119.191 100.113 122.349L101.633 131.809C103.533 144.443 105.118 157.131 106.058 169.874L105.51 169.919L104.446 160.412L104.184 158.035L103.864 155.665L103.214 150.926L102.572 146.188C102.362 144.607 102.092 143.035 101.855 141.459C101.359 138.309 100.889 135.156 100.372 132.01C98.2266 119.437 95.9139 106.893 93.3428 94.3987C92.009 88.1614 90.7299 81.9127 89.3528 75.6845L88.3337 71.0105L87.2749 66.3448C86.5704 63.2341 85.8666 60.1227 85.1309 57.0196C83.7123 50.7997 82.2478 44.5903 80.7375 38.3912C79.257 32.185 77.7172 25.9918 76.1592 19.8061L76.692 19.6594Z" fill="white"/>
</g>
</g>
<g id="Group 1146">
<path id="Rectangle 3099" d="M183.383 39.2659H89.8761C80.2079 39.2659 72.3702 47.1035 72.3702 56.7717V194.188C72.3702 203.856 80.2079 211.693 89.8761 211.693H183.383C193.051 211.693 200.889 203.856 200.889 194.188V56.7717C200.889 47.1035 193.051 39.2659 183.383 39.2659Z" fill="url(#paint1_linear_112_9386)"/>
<path id="Rectangle 3100" d="M136.493 65.1704H136.492C109.787 65.1704 88.1388 86.819 88.1388 113.524V140.626C88.1388 167.331 109.787 188.98 136.492 188.98H136.493C163.198 188.98 184.847 167.331 184.847 140.626V113.524C184.847 86.819 163.198 65.1704 136.493 65.1704Z" fill="#7D97F4"/>
<path id="Ellipse 146" d="M139.114 55.2063C140.616 53.7048 140.616 51.2703 139.114 49.7688C137.613 48.2673 135.178 48.2673 133.677 49.7688C132.175 51.2703 132.175 53.7048 133.677 55.2063C135.178 56.7078 137.613 56.7078 139.114 55.2063Z" fill="url(#paint2_linear_112_9386)"/>
<path id="Path 1854" d="M161.235 114.554L111.771 115.376C110.006 115.361 108.304 116.036 107.029 117.257C105.754 118.477 105.005 120.148 104.943 121.912V153.062C104.943 156.611 108.006 159.364 111.771 159.213L161.235 157.227C162.929 157.175 164.539 156.475 165.733 155.272C166.928 154.07 167.617 152.455 167.658 150.76V120.654C167.647 119.829 167.47 119.014 167.139 118.258C166.809 117.502 166.33 116.82 165.731 116.251C165.133 115.683 164.427 115.24 163.654 114.948C162.882 114.657 162.059 114.523 161.235 114.554Z" fill="#FF6F35"/>
<path id="Path 1855" d="M160.374 115.972C160.025 115.984 159.677 115.927 159.351 115.803C159.024 115.679 158.726 115.491 158.473 115.25C158.221 115.01 158.018 114.721 157.878 114.401C157.739 114.082 157.664 113.737 157.659 113.388V106.57C157.659 99.7301 151.874 94.1821 144.712 94.2033L128.599 94.2497C121.253 94.271 115.233 99.9824 115.233 106.982V113.959C115.209 114.696 114.896 115.394 114.363 115.903C113.83 116.413 113.119 116.694 112.382 116.686C112.019 116.703 111.657 116.648 111.316 116.523C110.975 116.399 110.662 116.208 110.396 115.961C110.129 115.714 109.915 115.417 109.765 115.086C109.615 114.756 109.532 114.398 109.522 114.036V107.037C109.522 97.0472 118.128 88.9198 128.598 88.9198H144.71C154.884 88.9198 163.078 96.814 163.078 106.517V113.314C163.064 114.023 162.773 114.698 162.268 115.195C161.762 115.692 161.082 115.971 160.374 115.972Z" fill="#FFBB51"/>
<path id="Path 1856" d="M144.505 131.818C144.487 130.978 144.295 130.152 143.942 129.39C143.589 128.627 143.083 127.947 142.454 127.39C141.825 126.833 141.088 126.413 140.288 126.154C139.489 125.896 138.645 125.806 137.81 125.89C136.25 125.983 134.776 126.633 133.654 127.72C132.533 128.808 131.839 130.262 131.698 131.818C131.636 132.954 131.906 134.083 132.475 135.068C133.043 136.054 133.886 136.852 134.901 137.366C135.311 137.584 135.641 137.927 135.842 138.346C136.043 138.765 136.104 139.237 136.017 139.693L134.604 147.618C134.565 147.858 134.581 148.102 134.65 148.335C134.719 148.567 134.84 148.78 135.003 148.959C135.167 149.138 135.369 149.277 135.594 149.367C135.819 149.456 136.062 149.494 136.303 149.476L139.933 149.346C140.179 149.342 140.421 149.287 140.643 149.183C140.865 149.079 141.063 148.928 141.223 148.742C141.383 148.555 141.501 148.337 141.57 148.101C141.639 147.865 141.657 147.618 141.622 147.374L140.211 139.523C140.141 139.054 140.217 138.574 140.427 138.148C140.638 137.723 140.973 137.372 141.388 137.143C142.324 136.601 143.104 135.825 143.65 134.892C144.196 133.959 144.491 132.899 144.505 131.818Z" fill="url(#paint3_linear_112_9386)"/>
</g>
<g id="Group 1150">
<g id="Group 1147">
<path id="Path 1857" d="M45.1624 211.995C45.1644 211.926 45.1572 211.857 45.1411 211.789C44.1151 207.723 39.0245 205.19 39.0245 205.19L37.0068 205.348C35.847 208.932 35.9959 211.13 36.1821 212.112C36.1875 212.14 36.1959 212.166 36.2027 212.192C39.1888 212.407 42.1885 212.341 45.1624 211.995Z" fill="url(#paint4_linear_112_9386)"/>
<path id="Path 1858" d="M36.204 212.19C36.2411 212.346 36.3204 212.489 36.4333 212.603C36.5462 212.717 36.6882 212.797 36.8439 212.836C39.2113 213.335 42.9733 212.933 44.5533 212.727C44.725 212.697 44.8804 212.607 44.9918 212.473C45.1031 212.339 45.1632 212.17 45.1613 211.995C42.1882 212.34 39.1893 212.405 36.204 212.19Z" fill="#91B3FA"/>
<path id="Path 1859" d="M36.1965 202.343L37.0507 206.456C37.0748 206.598 37.1436 206.728 37.247 206.828C37.3503 206.928 37.483 206.992 37.6253 207.01C38.066 207.055 38.5103 207.048 38.9493 206.989C39.0586 206.968 39.1626 206.926 39.2555 206.864C39.3484 206.803 39.4282 206.724 39.4904 206.632C39.5526 206.539 39.596 206.436 39.618 206.327C39.6401 206.217 39.6403 206.105 39.6188 205.996L39.0252 202.343H36.1965Z" fill="url(#paint5_linear_112_9386)"/>
<path id="Path 1860" d="M53.8997 212.138C52.5518 212.173 51.2076 211.98 49.9233 211.57C49.9233 211.792 49.9234 212.017 49.9302 212.254C49.9281 212.368 49.9708 212.479 50.0491 212.562C50.1275 212.646 50.2354 212.695 50.3497 212.701L62.5857 212.625C62.6773 212.617 62.7655 212.587 62.8426 212.537C62.9197 212.487 62.9833 212.418 63.0277 212.338C63.0721 212.258 63.096 212.168 63.0973 212.076C63.0985 211.984 63.0771 211.893 63.0349 211.811C61.4291 211.938 57.344 212.234 53.8997 212.138Z" fill="#91B3FA"/>
<path id="Path 1861" d="M63.0333 211.805C63.0199 211.773 63.0036 211.742 62.9847 211.713C61.904 210.203 59.1528 207.197 53.7127 205.894L51.1044 205.812C50.2584 207.61 49.8528 209.584 49.9211 211.57C51.2054 211.98 52.5495 212.172 53.8974 212.138C57.3447 212.231 61.4297 211.938 63.0333 211.805Z" fill="url(#paint6_linear_112_9386)"/>
<path id="Path 1862" d="M50.5067 201.979C50.5478 202.172 51.0903 205.095 51.3009 206.235C51.3196 206.361 51.3801 206.477 51.4726 206.564C51.5651 206.652 51.6841 206.706 51.8108 206.717C52.4101 206.761 53.0125 206.714 53.5977 206.577C53.7655 206.523 53.9098 206.414 54.0066 206.266C54.1034 206.119 54.1468 205.943 54.1296 205.767L53.8378 201.138L50.5067 201.979Z" fill="url(#paint7_linear_112_9386)"/>
<path id="Path 1863" d="M48.5285 147.942C48.5285 147.942 52.1165 172.598 54.7058 201.937C54.7139 202.206 54.6249 202.469 54.4552 202.677C54.2855 202.885 54.0464 203.026 53.7816 203.072C52.8246 203.289 51.8469 203.403 50.8655 203.41C50.6161 203.401 50.3773 203.307 50.1895 203.142C50.0018 202.978 49.8768 202.754 49.8357 202.507C48.9533 197.334 42.6591 169.571 41.0068 163.461C41.0068 163.461 39.1068 189.416 39.7148 202.883C39.7222 203.044 39.6683 203.202 39.5638 203.326C39.4593 203.449 39.312 203.527 39.1516 203.546C38.3732 203.63 37.588 203.627 36.8101 203.539C36.6207 203.521 36.4431 203.439 36.3055 203.308C36.1678 203.176 36.0779 203.003 36.0501 202.815C35.4215 198.437 31.8055 172.376 31.959 153.604C31.9673 152.544 33.2008 143.847 33.2008 143.847L48.5285 147.942Z" fill="url(#paint8_linear_112_9386)"/>
</g>
<path id="Path 1864" d="M49.9203 106.479L50.4007 119.381C51.6786 119.824 52.9808 120.194 54.301 120.488C55.2958 117.744 56.596 115.12 58.177 112.666C54.9099 111.399 52.0537 109.259 49.9203 106.479Z" fill="url(#paint9_linear_112_9386)"/>
<path id="Path 1865" d="M32.664 149.363C32.4835 149.298 32.325 149.183 32.2071 149.032C32.0891 148.88 32.0164 148.699 31.9975 148.508C31.5202 143.879 29.2105 115.176 43.7957 103.369C43.7957 103.369 44.6317 101.18 51.5074 106.561C58.3832 111.942 54.6995 117.581 53.0556 125.356C51.0636 134.767 47.5692 142.46 49.115 148.251C49.1675 148.444 49.1462 148.649 49.0553 148.827C48.9644 149.005 48.8103 149.143 48.6232 149.213C43.4957 151.187 37.8276 151.24 32.664 149.363Z" fill="url(#paint10_linear_112_9386)"/>
<path id="Path 1866" d="M49.4847 94.7689C49.4801 95.177 43.6562 103.45 43.6562 103.45C43.6562 103.45 44.702 105.509 49.6922 107.181L53.9999 98.3234L49.4847 94.7689Z" fill="url(#paint11_linear_112_9386)"/>
<path id="Path 1867" d="M46.5995 123.076C46.5618 123.076 46.5249 123.065 46.4939 123.043C43.5361 120.92 41.173 118.073 39.6311 114.775C39.6131 114.729 39.6137 114.678 39.6328 114.633C39.6518 114.588 39.6879 114.551 39.7332 114.532C39.7785 114.513 39.8295 114.512 39.8754 114.53C39.9213 114.547 39.9586 114.582 39.9792 114.627C41.491 117.859 43.8068 120.649 46.7052 122.73C46.7386 122.753 46.764 122.786 46.7774 122.824C46.7908 122.862 46.7917 122.904 46.7797 122.942C46.7678 122.981 46.7438 123.015 46.7112 123.039C46.6787 123.063 46.6392 123.076 46.5987 123.076H46.5995Z" fill="url(#paint12_linear_112_9386)"/>
<path id="Path 1868" d="M53.5306 116.042C53.4989 116.042 53.4677 116.034 53.4398 116.019C53.4119 116.004 53.3883 115.982 53.3711 115.955C53.3574 115.934 51.9354 113.721 49.2283 108.874C48.9043 108.21 48.449 107.62 47.89 107.137C47.331 106.655 46.68 106.291 45.9763 106.068C44.5097 105.741 42.9748 105.945 41.6443 106.643C41.6226 106.657 41.5983 106.667 41.5729 106.671C41.5475 106.675 41.5215 106.675 41.4964 106.668C41.4714 106.662 41.4478 106.651 41.4272 106.636C41.4066 106.62 41.3894 106.601 41.3766 106.578C41.3638 106.556 41.3558 106.531 41.3529 106.505C41.3501 106.48 41.3526 106.454 41.3601 106.429C41.3677 106.404 41.3802 106.382 41.3969 106.362C41.4136 106.342 41.4341 106.326 41.4573 106.315C42.8711 105.558 44.512 105.342 46.0735 105.707C46.8264 105.942 47.5234 106.329 48.1224 106.842C48.7213 107.355 49.2095 107.985 49.5574 108.693C52.2577 113.528 53.6735 115.733 53.688 115.755C53.7064 115.783 53.7168 115.816 53.7181 115.85C53.7194 115.884 53.7114 115.918 53.6952 115.948C53.6789 115.978 53.655 116.003 53.6257 116.02C53.5965 116.037 53.5632 116.047 53.5292 116.047L53.5306 116.042Z" fill="url(#paint13_linear_112_9386)"/>
<g id="Group 1148">
<path id="Path 1869" d="M54.0701 90.0288C54.0701 90.0288 56.1427 94.7895 56.2817 97.2883C56.4208 99.7872 56.9589 101.408 54.0701 101.911C52.7405 102.15 51.369 101.944 50.1683 101.325C48.9676 100.706 48.0046 99.7081 47.4285 98.4861C47.4285 98.4861 45.3627 94.6511 45.8263 93.0802C46.2899 91.5093 54.0701 90.0288 54.0701 90.0288Z" fill="url(#paint14_linear_112_9386)"/>
<path id="Path 1870" d="M48.4162 96.6963L48.5803 96.6203C48.63 96.5986 48.6747 96.5669 48.7116 96.5273C48.7485 96.4876 48.7769 96.4409 48.7951 96.3898C48.8132 96.3387 48.8208 96.2845 48.8172 96.2304C48.8136 96.1763 48.7989 96.1236 48.7741 96.0754C48.3668 95.288 47.5725 93.4845 48.5985 93.0635C49.9209 92.5208 55.1581 91.4531 56.2882 89.5949C56.5168 89.1972 56.6639 88.758 56.721 88.3029C56.7782 87.8478 56.7443 87.3859 56.6212 86.944C56.4981 86.5022 56.2884 86.0893 56.0043 85.7293C55.7201 85.3693 55.367 85.0695 54.9658 84.8472C54.9198 84.8253 54.867 84.8219 54.8185 84.8377C54.77 84.8536 54.7294 84.8874 54.7051 84.9323L54.5843 85.1603C54.5662 85.1951 54.5379 85.2236 54.5034 85.2422C54.4688 85.2608 54.4295 85.2687 54.3905 85.2647C54.3514 85.2606 54.3144 85.245 54.2843 85.2198C54.2543 85.1945 54.2325 85.1608 54.2218 85.123C54.2115 85.0866 54.1909 85.054 54.1625 85.0291C54.1341 85.0042 54.0991 84.988 54.0617 84.9826C54.0243 84.9772 53.986 84.9829 53.9517 84.9988C53.9174 85.0146 53.8885 85.0401 53.8684 85.0721C53.5211 85.6284 52.5832 86.5298 50.0752 86.9927C46.5108 87.6501 44.1548 89.0925 44.0963 91.5527C44.0957 91.5878 44.0857 91.6221 44.0674 91.6521C44.0491 91.6821 44.023 91.7067 43.992 91.7232C43.9609 91.7397 43.9261 91.7476 43.8909 91.7461C43.8558 91.7446 43.8218 91.7336 43.7923 91.7145C43.5293 91.5541 43.1083 91.4789 42.5451 91.9516C41.5662 92.7747 41.9667 94.9096 44.113 96.6637C44.1371 96.6825 44.1565 96.7068 44.1696 96.7345C44.1826 96.7623 44.1889 96.7926 44.188 96.8232C44.1872 96.8539 44.1791 96.8839 44.1645 96.9108C44.1499 96.9377 44.1291 96.9608 44.1039 96.9783C43.7148 97.2313 43.1349 97.834 44.6359 98.6373C45.586 99.2065 46.6967 99.4484 47.7975 99.3259C47.8238 99.3216 47.849 99.3119 47.8714 99.2975C47.8939 99.2831 47.9132 99.2643 47.9281 99.2421C47.943 99.22 47.9531 99.195 47.958 99.1687C47.9629 99.1425 47.9623 99.1156 47.9563 99.0896L47.4791 96.9251C47.4727 96.8964 47.4728 96.8667 47.4795 96.8381C47.4861 96.8095 47.4992 96.7827 47.5176 96.7598C47.5359 96.7369 47.5592 96.7184 47.5857 96.7057C47.6122 96.693 47.6412 96.6865 47.6706 96.6865L48.4162 96.6963Z" fill="url(#paint15_linear_112_9386)"/>
<path id="Path 1871" d="M48.5059 97.1531C48.5059 97.1531 47.7154 94.1131 46.3519 94.9651C44.9885 95.817 47.0595 98.3721 48.1554 98.4861L48.5059 97.1531Z" fill="url(#paint16_linear_112_9386)"/>
</g>
<path id="Path 1872" d="M75.3394 105.509C75.3394 105.509 74.3004 103.668 74.3665 102.773C74.4327 101.879 73.8748 100.565 74.4684 100.661C75.062 100.758 75.1843 100.68 75.3454 101.753C75.5065 102.827 77.3792 107.516 75.3394 105.509Z" fill="url(#paint17_linear_112_9386)"/>
<path id="Path 1873" d="M75.5359 102.581L75.5124 106.26C68.4808 113.852 62.7899 114.299 58.1745 112.668C56.5937 115.122 55.2935 117.745 54.2985 120.49C73.0758 124.629 77.4974 107.367 77.4974 107.367C80.0404 106.314 80.5535 105.695 80.444 105.007L75.5359 102.581Z" fill="url(#paint18_linear_112_9386)"/>
<path id="Path 1874" d="M80.9422 98.9307C80.3426 98.6875 79.1676 96.4485 78.9427 97.1827C78.7177 97.9168 79.0377 98.9307 78.9427 99.2415C78.8477 99.5524 77.3839 103.159 77.6757 103.959C77.8863 104.536 79.0491 104.451 79.2269 105.396C79.2436 105.544 79.314 105.68 79.4247 105.779C79.5355 105.878 79.6788 105.933 79.8273 105.933C79.9759 105.933 80.1191 105.878 80.2299 105.779C80.3406 105.68 80.4111 105.544 80.4277 105.396C80.452 105.275 81.5426 99.1739 80.9422 98.9307Z" fill="url(#paint19_linear_112_9386)"/>
<g id="Group 1149">
<path id="Path 1875" d="M61.777 91.2684C59.7237 95.3304 59.1944 99.9938 60.285 104.413C61.3756 108.832 64.0139 112.713 67.7213 115.354C71.4288 117.994 75.9597 119.218 80.4923 118.804C85.0249 118.389 89.2589 116.364 92.4263 113.096L125.009 129.569C125.275 129.704 125.571 129.769 125.869 129.759C126.168 129.748 126.458 129.663 126.715 129.51L129.901 127.61C129.955 127.578 130.008 127.542 130.058 127.504C130.072 127.493 130.085 127.482 130.099 127.471C130.136 127.441 130.175 127.411 130.206 127.379L130.24 127.346C130.282 127.304 130.322 127.26 130.36 127.215C130.562 126.97 130.694 126.676 130.742 126.362C130.791 126.049 130.755 125.729 130.638 125.434L128.048 118.943C127.888 118.542 127.588 118.213 127.202 118.018L123.939 116.368L123.076 118.077L120.272 116.659L121.135 114.951L118.513 113.625L117.718 115.196L114.311 113.473L115.105 111.902L113.835 111.26L113.427 112.069L110.571 110.625L110.979 109.816L108.758 108.693L107.895 110.401L106.308 109.598L107.171 107.89L105.795 107.194L104.932 108.903L102.182 107.512L103.045 105.803L99.1789 103.849L97.5237 103.013C98.2781 98.5243 97.3989 93.9142 95.0455 90.0185C92.6921 86.1228 89.0204 83.1997 84.6964 81.7792C80.3724 80.3587 75.6826 80.535 71.4775 82.2761C67.2723 84.0172 63.8305 87.2078 61.7762 91.2691L61.777 91.2684ZM72.8783 92.5604C73.5581 92.9043 74.1208 93.442 74.495 94.1057C74.8693 94.7693 75.0384 95.5289 74.981 96.2886C74.9235 97.0483 74.6421 97.774 74.1723 98.3738C73.7024 98.9736 73.0653 99.4205 72.3415 99.6582C71.6176 99.896 70.8395 99.9137 70.1055 99.7092C69.3716 99.5047 68.7148 99.0873 68.2182 98.5095C67.7215 97.9318 67.4073 97.2197 67.3153 96.4634C67.2233 95.7071 67.3575 94.9405 67.7011 94.2605C68.1628 93.3493 68.9673 92.6586 69.938 92.3404C70.9086 92.0221 71.966 92.1023 72.8775 92.5634L72.8783 92.5604Z" fill="url(#paint20_linear_112_9386)"/>
<path id="Path 1876" d="M88.1867 97.0155L103.632 104.825L102.769 106.534L105.519 107.925L106.383 106.216L107.758 106.911L106.895 108.62L108.482 109.423L109.345 107.714L111.567 108.837L111.158 109.646L114.014 111.09L114.423 110.281L115.692 110.924L114.898 112.495L118.305 114.217L119.099 112.646L121.722 113.972L120.858 115.68L123.662 117.098L124.525 115.389L127.789 117.039C128.174 117.234 128.475 117.563 128.635 117.964L131.224 124.455C131.38 124.847 131.392 125.281 131.256 125.681C131.121 126.08 130.847 126.418 130.485 126.634L127.299 128.534C127.042 128.686 126.752 128.772 126.454 128.782C126.155 128.793 125.859 128.727 125.593 128.593L86.2609 108.706L88.1867 97.0155Z" fill="url(#paint21_linear_112_9386)"/>
<path id="Path 1877" d="M70.7579 115.854C74.1161 117.552 77.9025 118.216 81.6381 117.762C85.3737 117.308 88.8908 115.757 91.7446 113.304C94.5985 110.851 96.6608 107.607 97.6709 103.982C98.681 100.357 98.5936 96.5137 97.4195 92.9385C96.2455 89.3632 94.0376 86.2164 91.0751 83.8959C88.1126 81.5754 84.5286 80.1855 80.7762 79.902C77.0238 79.6185 73.2716 80.4539 69.9941 82.3029C66.7165 84.1518 64.0608 86.9312 62.3629 90.2895C60.0861 94.7929 59.6916 100.016 61.2659 104.811C62.8403 109.605 66.2546 113.577 70.7579 115.854ZM69.9872 98.461C69.3073 98.1171 68.7447 97.5794 68.3704 96.9158C67.9962 96.2521 67.8271 95.4924 67.8846 94.7327C67.942 93.973 68.2235 93.2474 68.6933 92.6476C69.1631 92.0478 69.8002 91.6009 70.5241 91.3632C71.2479 91.1255 72.026 91.1077 72.7599 91.3121C73.4939 91.5166 74.1507 91.9341 74.6474 92.5119C75.1441 93.0896 75.4582 93.8017 75.5503 94.558C75.6423 95.3143 75.508 96.0809 75.1643 96.7609C74.9361 97.2124 74.6212 97.6145 74.2375 97.9443C73.8539 98.2741 73.409 98.5252 72.9283 98.6831C72.4476 98.841 71.9405 98.9026 71.436 98.8645C70.9315 98.8264 70.4387 98.6893 69.9872 98.461Z" fill="url(#paint22_linear_112_9386)"/>
<path id="Path 1878" d="M93.0132 112.116L125.595 128.59C125.861 128.724 126.157 128.789 126.456 128.779C126.754 128.768 127.044 128.683 127.301 128.53L130.487 126.63C130.717 126.493 130.913 126.306 131.059 126.082C131.206 125.858 131.3 125.604 131.334 125.338C128.365 122.121 100.137 109.795 99.081 107.258C98.7056 106.356 98.641 104.989 99.7651 102.869L98.1098 102.033C98.8646 97.5448 97.9857 92.9349 95.6325 89.0394C93.2794 85.1439 89.6079 82.221 85.2841 80.8007C80.9603 79.3805 76.2707 79.5572 72.066 81.2987C67.8613 83.0401 64.4201 86.2311 62.3667 90.2926C60.3133 94.3541 59.7838 99.017 60.8741 103.436C61.9644 107.854 64.6024 111.735 68.3095 114.375C72.0166 117.015 76.5472 118.239 81.0793 117.825C85.6115 117.41 89.8449 115.385 93.0117 112.117L93.0132 112.116ZM73.4652 91.5844C74.1451 91.9283 74.7077 92.466 75.082 93.1296C75.4563 93.7932 75.6253 94.553 75.5678 95.3127C75.5104 96.0724 75.229 96.798 74.7591 97.3978C74.2893 97.9975 73.6522 98.4445 72.9283 98.6822C72.2045 98.9199 71.4264 98.9377 70.6925 98.7332C69.9586 98.5288 69.3017 98.1112 68.805 97.5335C68.3083 96.9557 67.9942 96.2437 67.9021 95.4874C67.8101 94.7311 67.9444 93.9644 68.2881 93.2845C68.5164 92.8325 68.8315 92.43 69.2154 92.0999C69.5994 91.7698 70.0447 91.5187 70.5258 91.3608C71.0069 91.2029 71.5144 91.1414 72.0192 91.1798C72.5241 91.2182 73.0166 91.3556 73.4683 91.5844H73.4652Z" fill="url(#paint23_linear_112_9386)"/>
<path id="Path 1879" d="M72.4425 112.521C75.1418 113.886 78.1851 114.42 81.1877 114.055C84.1902 113.69 87.0172 112.443 89.311 110.471C91.6048 108.5 93.2625 105.892 94.0744 102.979C94.8863 100.065 94.8161 96.9761 93.8724 94.1024C92.9288 91.2287 91.1542 88.6994 88.773 86.8343C86.3919 84.9692 83.5111 83.8521 80.495 83.6243C77.479 83.3964 74.4631 84.068 71.8287 85.5542C69.1944 87.0403 67.06 89.2744 65.6953 91.9736C63.8654 95.5931 63.5481 99.7914 64.8135 103.645C66.0788 107.498 68.8231 110.691 72.4425 112.521ZM69.9877 98.461C69.3079 98.1171 68.7452 97.5794 68.371 96.9158C67.9967 96.2522 67.8277 95.4924 67.8851 94.7327C67.9426 93.973 68.224 93.2474 68.6938 92.6476C69.1637 92.0479 69.8008 91.6008 70.5246 91.3631C71.2485 91.1254 72.0265 91.1077 72.7605 91.3122C73.4944 91.5166 74.1513 91.9342 74.648 92.5119C75.1446 93.0896 75.4588 93.8016 75.5508 94.5579C75.6428 95.3142 75.5085 96.0809 75.1649 96.7608C74.9367 97.2126 74.6217 97.615 74.2379 97.9449C73.8541 98.2748 73.4091 98.5259 72.9282 98.6838C72.4474 98.8416 71.9401 98.9033 71.4355 98.865C70.9308 98.8268 70.4393 98.6895 69.9877 98.461Z" fill="url(#paint24_linear_112_9386)"/>
</g>
<path id="Path 1880" d="M46.599 123.077C46.599 123.077 64.5167 129.075 74.5396 121.444C74.8458 121.209 75.1969 121.038 75.5713 120.943C75.9456 120.848 76.3356 120.83 76.7171 120.89L80.546 121.514C81.3199 121.64 82.1126 121.465 82.7609 121.024C83.4093 120.583 83.8637 119.91 84.0306 119.144C84.2589 118.243 84.29 117.304 84.1218 116.391L76.8934 115.955L77.1001 115.018C77.1001 115.018 73.9081 115.799 73.8412 118.299C73.8412 118.299 66.3476 123.207 52.679 115.588C52.679 115.585 47.359 119.751 46.599 123.077Z" fill="url(#paint25_linear_112_9386)"/>
</g>
<g id="Group 1163">
<g id="Group 1156">
<g id="Group 1151" opacity="0.3">
<path id="Path 1881" d="M184.993 33.243C184.793 33.2337 184.605 33.1459 184.469 32.9986C184.334 32.8513 184.261 32.6565 184.269 32.4564C184.302 31.6462 184.301 30.8216 184.265 30.0069C184.256 29.8091 184.325 29.6157 184.457 29.4683C184.589 29.3209 184.774 29.2313 184.972 29.2188H184.987C185.187 29.2109 185.382 29.2823 185.53 29.4175C185.678 29.5527 185.766 29.7408 185.776 29.9408C185.814 30.7981 185.815 31.666 185.78 32.5187C185.772 32.7053 185.696 32.8825 185.566 33.0162C185.435 33.1498 185.26 33.2303 185.074 33.2422C185.047 33.2439 185.02 33.2442 184.993 33.243ZM183.816 26.0541C183.67 25.2523 183.487 24.449 183.275 23.667C183.222 23.4736 183.248 23.2671 183.348 23.0931C183.447 22.9191 183.612 22.7917 183.805 22.739C183.999 22.6863 184.205 22.7126 184.379 22.812C184.553 22.9115 184.68 23.0761 184.733 23.2695C184.961 24.0926 185.15 24.9415 185.305 25.782C185.321 25.9702 185.266 26.1576 185.151 26.3076C185.037 26.4577 184.87 26.5597 184.684 26.5938C184.499 26.6278 184.307 26.5915 184.146 26.4919C183.986 26.3922 183.868 26.2365 183.816 26.0549V26.0541ZM181.964 19.9125C181.644 19.1655 181.286 18.4237 180.9 17.7085C180.849 17.6208 180.816 17.5236 180.803 17.4227C180.79 17.3219 180.798 17.2195 180.826 17.1217C180.853 17.0238 180.9 16.9326 180.964 16.8534C181.028 16.7741 181.107 16.7086 181.196 16.6606C181.286 16.6126 181.384 16.5831 181.486 16.574C181.587 16.5649 181.689 16.5763 181.785 16.6075C181.882 16.6387 181.972 16.6891 182.049 16.7556C182.125 16.8222 182.188 16.9036 182.233 16.9949C182.637 17.7496 183.013 18.5316 183.351 19.3175C183.393 19.4091 183.416 19.5083 183.419 19.6091C183.422 19.7099 183.405 19.8102 183.369 19.9043C183.332 19.9984 183.278 20.0843 183.208 20.157C183.138 20.2296 183.054 20.2875 182.962 20.3273C182.869 20.3671 182.769 20.388 182.668 20.3887C182.568 20.3894 182.468 20.3699 182.374 20.3314C182.281 20.2929 182.197 20.2361 182.126 20.1645C182.055 20.0928 181.999 20.0076 181.961 19.9141L181.964 19.9125ZM178.785 14.3395C178.304 13.6821 177.79 13.0383 177.256 12.4258C177.188 12.3513 177.136 12.2641 177.103 12.1692C177.069 12.0742 177.055 11.9736 177.061 11.8731C177.066 11.7726 177.092 11.6742 177.137 11.5838C177.181 11.4934 177.243 11.4128 177.319 11.3466C177.395 11.2805 177.483 11.2302 177.579 11.1986C177.674 11.1671 177.775 11.155 177.875 11.163C177.976 11.171 178.074 11.1989 178.163 11.2452C178.252 11.2915 178.332 11.3551 178.396 11.4324C178.959 12.0777 179.5 12.7556 180.006 13.4472C180.118 13.6093 180.163 13.8089 180.13 14.0034C180.097 14.1978 179.99 14.3718 179.831 14.4882C179.671 14.6046 179.473 14.6542 179.278 14.6264C179.082 14.5986 178.905 14.4956 178.785 14.3395ZM174.443 9.61377C173.83 9.08177 173.186 8.56648 172.528 8.08616C172.445 8.0287 172.375 7.95522 172.321 7.87002C172.266 7.78483 172.23 7.68966 172.213 7.59013C172.196 7.4906 172.2 7.38872 172.223 7.29049C172.246 7.19227 172.289 7.09968 172.348 7.0182C172.408 6.93672 172.483 6.86798 172.57 6.81605C172.656 6.76411 172.752 6.73005 172.852 6.71583C172.952 6.70161 173.054 6.70752 173.151 6.73325C173.249 6.75897 173.341 6.80398 173.42 6.86561C174.113 7.37177 174.789 7.91289 175.435 8.47301C175.514 8.53701 175.579 8.61619 175.626 8.70585C175.674 8.7955 175.703 8.89379 175.712 8.99486C175.72 9.09593 175.709 9.19773 175.677 9.29417C175.646 9.39061 175.595 9.47972 175.528 9.55623C175.462 9.63274 175.38 9.69508 175.289 9.73951C175.198 9.78393 175.099 9.80954 174.998 9.81484C174.896 9.82014 174.795 9.80501 174.7 9.77033C174.604 9.73565 174.517 9.68215 174.443 9.61301V9.61377ZM169.163 5.96575C168.447 5.58119 167.705 5.22248 166.959 4.90176C166.781 4.81852 166.642 4.66906 166.572 4.48511C166.502 4.30116 166.507 4.09723 166.585 3.91659C166.663 3.73596 166.808 3.59286 166.99 3.51769C167.172 3.44252 167.376 3.4412 167.559 3.514C168.344 3.85372 169.126 4.23143 169.879 4.63575C169.966 4.68276 170.044 4.74655 170.107 4.82345C170.169 4.90036 170.216 4.98889 170.245 5.08399C170.274 5.17908 170.283 5.27888 170.273 5.37768C170.263 5.47649 170.234 5.57238 170.187 5.65986C170.14 5.74733 170.076 5.82469 169.999 5.88752C169.922 5.95035 169.834 5.99744 169.739 6.02606C169.644 6.05467 169.544 6.06428 169.445 6.05433C169.346 6.04438 169.25 6.01506 169.163 5.96805V5.96575ZM141.091 5.61389C140.998 5.43671 140.979 5.22987 141.037 5.03832C141.095 4.84677 141.227 4.686 141.403 4.59092C142.158 4.18812 142.941 3.81343 143.73 3.47675C143.821 3.43362 143.921 3.40945 144.023 3.40567C144.124 3.40188 144.225 3.41857 144.32 3.45474C144.415 3.49092 144.502 3.54584 144.575 3.61621C144.648 3.68659 144.706 3.77097 144.746 3.86436C144.786 3.95775 144.807 4.05821 144.807 4.15975C144.807 4.2613 144.787 4.36185 144.747 4.4554C144.708 4.54895 144.65 4.63361 144.577 4.70429C144.504 4.77497 144.418 4.83024 144.323 4.8668C143.575 5.18676 142.832 5.54244 142.115 5.92472C142.027 5.97153 141.931 6.00059 141.832 6.01026C141.733 6.01993 141.633 6.01 141.538 5.98106C141.443 5.95212 141.355 5.90474 141.278 5.8416C141.202 5.77846 141.138 5.70082 141.091 5.61312V5.61389ZM163.208 3.58087C162.424 3.36503 161.621 3.18111 160.823 3.03367C160.631 2.992 160.462 2.87724 160.353 2.71369C160.245 2.55014 160.204 2.35063 160.239 2.15742C160.275 1.9642 160.384 1.79246 160.545 1.67855C160.705 1.56463 160.903 1.51748 161.097 1.54711C161.938 1.69911 162.783 1.89671 163.605 2.12395C163.703 2.14824 163.795 2.1919 163.876 2.25235C163.957 2.3128 164.025 2.38883 164.076 2.47593C164.127 2.56304 164.16 2.65947 164.173 2.75954C164.186 2.85962 164.179 2.96133 164.152 3.05865C164.125 3.15596 164.079 3.24693 164.017 3.32618C163.954 3.40544 163.877 3.47136 163.788 3.5201C163.7 3.56884 163.603 3.59941 163.502 3.60998C163.402 3.62054 163.3 3.6109 163.204 3.58163L163.208 3.58087ZM147.151 3.03139C147.1 2.83793 147.127 2.63204 147.226 2.45845C147.326 2.28485 147.49 2.15755 147.683 2.10419C148.508 1.88075 149.355 1.69075 150.198 1.53799C150.394 1.50416 150.596 1.5493 150.76 1.66361C150.923 1.77791 151.035 1.95213 151.07 2.14833C151.106 2.34453 151.062 2.54682 150.95 2.71121C150.837 2.8756 150.664 2.98877 150.468 3.02608C149.667 3.17124 148.863 3.35211 148.077 3.56415C147.884 3.61542 147.678 3.58833 147.505 3.48872C147.331 3.38912 147.204 3.22506 147.15 3.03216L147.151 3.03139ZM156.872 2.58603C156.061 2.55107 155.237 2.55031 154.424 2.58603C154.228 2.58832 154.039 2.5148 153.897 2.38091C153.754 2.24702 153.669 2.06317 153.659 1.86792C153.65 1.67267 153.716 1.48118 153.844 1.33366C153.972 1.18614 154.153 1.09404 154.347 1.07668H154.363C155.219 1.0402 156.086 1.0402 156.941 1.07668C157.134 1.08494 157.317 1.167 157.451 1.30599C157.586 1.44498 157.662 1.6303 157.665 1.82381C157.667 2.01731 157.595 2.20428 157.463 2.34621C157.331 2.48815 157.151 2.57426 156.957 2.5868C156.929 2.58528 156.901 2.58527 156.874 2.58527L156.872 2.58603Z" fill="#91B3FA"/>
<path id="Path 1882" d="M137.368 8.92456C137.522 8.91487 137.669 8.8581 137.79 8.76193C138.094 8.51949 138.411 8.27931 138.728 8.04827C138.81 7.99064 138.88 7.91715 138.934 7.83206C138.988 7.74697 139.024 7.65202 139.041 7.55276C139.057 7.4535 139.054 7.35191 139.031 7.25399C139.007 7.15606 138.965 7.06377 138.906 6.98248C138.846 6.9012 138.771 6.83255 138.685 6.78061C138.599 6.72867 138.503 6.69448 138.404 6.68C138.304 6.66551 138.203 6.67104 138.105 6.69628C138.008 6.72151 137.916 6.76594 137.836 6.82695C137.503 7.07015 137.171 7.32245 136.848 7.57781C136.722 7.67797 136.632 7.81579 136.589 7.97113C136.547 8.12646 136.555 8.29123 136.613 8.44149C136.671 8.59174 136.775 8.71962 136.911 8.80651C137.046 8.89339 137.206 8.93475 137.367 8.92456H137.368Z" fill="#91B3FA"/>
</g>
<g id="Group 1152" opacity="0.3">
<path id="Path 1883" d="M126.347 29.1671C126.527 29.1547 126.695 29.0791 126.824 28.9539C126.953 28.8287 127.033 28.662 127.051 28.4832C127.088 28.0956 127.134 27.7011 127.187 27.3127C127.203 27.2133 127.199 27.1117 127.175 27.0139C127.151 26.9162 127.108 26.8241 127.048 26.7433C126.988 26.6624 126.912 26.5943 126.826 26.543C126.739 26.4917 126.643 26.4583 126.543 26.4445C126.443 26.4308 126.342 26.4372 126.245 26.4632C126.148 26.4892 126.056 26.5344 125.977 26.596C125.897 26.6577 125.831 26.7347 125.782 26.8224C125.732 26.9101 125.701 27.0068 125.689 27.1068C125.633 27.5156 125.585 27.9306 125.545 28.3388C125.536 28.4476 125.55 28.5572 125.586 28.6602C125.623 28.7632 125.681 28.8571 125.757 28.9355C125.833 29.0139 125.925 29.075 126.027 29.1146C126.129 29.1542 126.238 29.1713 126.347 29.1649V29.1671Z" fill="#91B3FA"/>
<path id="Path 1884" d="M156.001 61.4413C155.804 61.4386 155.616 61.3593 155.477 61.2201C155.337 61.081 155.258 60.893 155.255 60.6962C155.252 60.4993 155.326 60.3091 155.461 60.166C155.596 60.0228 155.782 59.938 155.979 59.9296C156.774 59.9182 157.58 59.8726 158.386 59.7943C158.486 59.7821 158.587 59.79 158.684 59.8175C158.781 59.8451 158.872 59.8918 158.951 59.9549C159.029 60.018 159.095 60.0962 159.143 60.185C159.191 60.2737 159.221 60.3711 159.23 60.4716C159.24 60.572 159.23 60.6733 159.2 60.7697C159.17 60.866 159.121 60.9553 159.056 61.0325C158.991 61.1096 158.911 61.1729 158.821 61.2187C158.731 61.2645 158.633 61.2919 158.532 61.2991C158.184 61.3331 157.836 61.3612 157.488 61.3835C156.995 61.4147 156.494 61.4344 156.001 61.4413ZM161.686 60.0619C161.641 59.8665 161.674 59.661 161.779 59.4901C161.884 59.3192 162.053 59.1969 162.248 59.1499C163.028 58.9644 163.808 58.7448 164.567 58.4963C164.663 58.4618 164.764 58.4469 164.865 58.4522C164.966 58.4576 165.065 58.4832 165.156 58.5275C165.247 58.5719 165.328 58.6341 165.395 58.7103C165.461 58.7866 165.512 58.8755 165.543 58.9716C165.575 59.0678 165.587 59.1694 165.578 59.2703C165.57 59.3711 165.541 59.4693 165.494 59.5589C165.447 59.6485 165.383 59.7278 165.304 59.792C165.226 59.8562 165.136 59.904 165.039 59.9327C164.239 60.1949 163.418 60.4259 162.597 60.6205C162.555 60.6303 162.513 60.6367 162.47 60.6395C162.293 60.6497 162.117 60.5976 161.974 60.4921C161.832 60.3866 161.73 60.2343 161.688 60.0619H161.686ZM151.887 61.2186C151.051 61.1152 150.21 60.9754 149.385 60.8021C149.192 60.7571 149.025 60.6386 148.919 60.472C148.813 60.3053 148.776 60.1037 148.817 59.9103C148.858 59.7169 148.972 59.5471 149.136 59.4372C149.301 59.3273 149.501 59.2862 149.696 59.3224C150.48 59.4873 151.279 59.6203 152.071 59.7184C152.258 59.7418 152.429 59.8338 152.551 59.9766C152.674 60.1193 152.739 60.3025 152.733 60.4904C152.728 60.6784 152.653 60.8575 152.522 60.993C152.392 61.1285 152.216 61.2105 152.028 61.2232C151.982 61.2256 151.935 61.2239 151.888 61.2178L151.887 61.2186ZM167.847 58.0387C167.803 57.9496 167.778 57.8527 167.771 57.7536C167.765 57.6545 167.779 57.5552 167.811 57.4614C167.843 57.3675 167.894 57.2809 167.959 57.2065C168.025 57.1322 168.105 57.0715 168.194 57.0279C168.914 56.6768 169.626 56.2907 170.313 55.8803C170.398 55.8248 170.494 55.7871 170.594 55.7694C170.694 55.7517 170.797 55.7544 170.896 55.7774C170.995 55.8003 171.089 55.8431 171.171 55.903C171.253 55.9629 171.323 56.0389 171.375 56.1262C171.427 56.2136 171.461 56.3106 171.475 56.4114C171.489 56.5122 171.482 56.6147 171.455 56.7129C171.428 56.811 171.382 56.9028 171.319 56.9827C171.256 57.0626 171.178 57.1289 171.088 57.1777C170.366 57.6101 169.615 58.0136 168.858 58.386C168.769 58.4298 168.672 58.4555 168.572 58.4617C168.473 58.4679 168.374 58.4544 168.28 58.4222C168.186 58.3899 168.1 58.3394 168.025 58.2737C167.951 58.2079 167.89 58.128 167.847 58.0387ZM145.427 59.6796C144.636 59.3953 143.846 59.0716 143.078 58.7235C142.985 58.6842 142.901 58.6266 142.83 58.5541C142.759 58.4816 142.704 58.3956 142.667 58.3013C142.63 58.2069 142.613 58.1062 142.616 58.005C142.619 57.9038 142.642 57.8042 142.684 57.7121C142.726 57.62 142.786 57.5373 142.861 57.4689C142.936 57.4005 143.023 57.3478 143.119 57.3139C143.214 57.28 143.315 57.2656 143.416 57.2716C143.517 57.2776 143.616 57.3038 143.707 57.3487C144.436 57.6815 145.186 57.9878 145.938 58.2607C146.032 58.2935 146.119 58.3447 146.193 58.4113C146.268 58.478 146.328 58.5587 146.371 58.6488C146.414 58.739 146.439 58.8368 146.445 58.9366C146.45 59.0364 146.435 59.1362 146.401 59.2303C146.367 59.3244 146.315 59.4108 146.248 59.4846C146.18 59.5584 146.099 59.6182 146.008 59.6604C145.918 59.7026 145.82 59.7264 145.72 59.7305C145.62 59.7346 145.521 59.7188 145.427 59.6841V59.6796ZM139.458 56.7604C138.746 56.3097 138.046 55.8233 137.375 55.3164C137.292 55.258 137.222 55.1835 137.168 55.0973C137.115 55.0111 137.079 54.915 137.063 54.8147C137.048 54.7144 137.052 54.612 137.077 54.5136C137.102 54.4151 137.146 54.3227 137.208 54.2418C137.269 54.1608 137.346 54.093 137.434 54.0424C137.522 53.9918 137.619 53.9595 137.72 53.9473C137.82 53.9351 137.923 53.9433 138.02 53.9715C138.118 53.9996 138.209 54.047 138.287 54.111C138.925 54.5936 139.591 55.0557 140.263 55.4844C140.351 55.5355 140.428 55.6039 140.489 55.6854C140.55 55.7668 140.593 55.8597 140.618 55.9585C140.642 56.0573 140.646 56.16 140.629 56.2603C140.613 56.3607 140.576 56.4567 140.522 56.5426C140.467 56.6286 140.396 56.7026 140.313 56.7604C140.229 56.8181 140.134 56.8584 140.035 56.8788C139.935 56.8993 139.832 56.8993 139.733 56.8791C139.633 56.8589 139.539 56.8188 139.455 56.7612L139.458 56.7604ZM134.267 52.6101C133.67 52.0142 133.092 51.3865 132.548 50.745C132.423 50.5914 132.364 50.3952 132.383 50.1985C132.401 50.0017 132.496 49.82 132.647 49.6922C132.798 49.5645 132.992 49.5008 133.19 49.5149C133.387 49.529 133.57 49.6198 133.701 49.7677C134.218 50.3757 134.765 50.9738 135.335 51.54C135.47 51.683 135.544 51.8729 135.541 52.0695C135.538 52.2661 135.459 52.4539 135.32 52.593C135.181 52.7322 134.994 52.8118 134.797 52.815C134.6 52.8182 134.41 52.7447 134.267 52.6101ZM130.105 47.4261C129.649 46.7147 129.226 45.9753 128.836 45.2289C128.743 45.0513 128.725 44.8439 128.785 44.6527C128.845 44.4614 128.978 44.3018 129.156 44.209C129.334 44.1162 129.541 44.0977 129.732 44.1577C129.923 44.2177 130.083 44.3513 130.176 44.529C130.547 45.2373 130.952 45.9395 131.381 46.6152C131.438 46.6989 131.476 46.7931 131.496 46.8922C131.515 46.9912 131.514 47.0932 131.494 47.192C131.473 47.2908 131.433 47.3844 131.375 47.4674C131.318 47.5504 131.244 47.621 131.159 47.6751C131.074 47.7292 130.979 47.7658 130.879 47.7826C130.78 47.7994 130.678 47.796 130.58 47.7728C130.481 47.7496 130.389 47.707 130.307 47.6474C130.226 47.5879 130.157 47.5126 130.105 47.4261ZM127.182 41.451C126.899 40.659 126.646 39.8443 126.429 39.0296C126.402 38.933 126.394 38.832 126.406 38.7324C126.418 38.6328 126.45 38.5366 126.499 38.4494C126.549 38.3622 126.616 38.2857 126.695 38.2245C126.775 38.1632 126.865 38.1184 126.962 38.0927C127.059 38.0669 127.16 38.0607 127.26 38.0744C127.359 38.0881 127.455 38.1215 127.541 38.1725C127.628 38.2236 127.703 38.2913 127.763 38.3718C127.823 38.4522 127.866 38.5438 127.891 38.6412C128.096 39.4149 128.337 40.1886 128.606 40.941C128.642 41.0352 128.66 41.1358 128.657 41.2368C128.654 41.3378 128.631 41.4373 128.589 41.5293C128.547 41.6212 128.487 41.7038 128.413 41.7722C128.338 41.8406 128.251 41.8934 128.156 41.9275C128.06 41.9615 127.96 41.9761 127.859 41.9705C127.758 41.9648 127.659 41.9389 127.568 41.8944C127.477 41.8499 127.396 41.7877 127.33 41.7114C127.264 41.6351 127.214 41.5463 127.182 41.4502V41.451ZM125.645 34.9871C125.569 34.3723 125.509 33.7468 125.469 33.1297C125.455 32.9057 125.443 32.6826 125.434 32.4601C125.429 32.3607 125.444 32.2613 125.477 32.1676C125.511 32.074 125.563 31.988 125.631 31.9148C125.698 31.8415 125.779 31.7824 125.87 31.741C125.96 31.6996 126.058 31.6767 126.158 31.6736C126.257 31.6693 126.356 31.6846 126.449 31.7186C126.543 31.7527 126.628 31.8048 126.702 31.872C126.775 31.9392 126.834 32.0202 126.876 32.1103C126.917 32.2004 126.941 32.2978 126.945 32.397C126.954 32.6088 126.965 32.8209 126.979 33.0332C127.016 33.6207 127.071 34.2142 127.145 34.7987C127.157 34.8971 127.15 34.997 127.124 35.0927C127.098 35.1884 127.053 35.278 126.992 35.3563C126.931 35.4347 126.855 35.5003 126.769 35.5493C126.683 35.5984 126.588 35.63 126.489 35.6423L126.442 35.6468C126.25 35.659 126.061 35.5975 125.913 35.4749C125.764 35.3523 125.669 35.1779 125.645 34.9871Z" fill="#91B3FA"/>
<path id="Path 1885" d="M174.065 54.9784C174.22 54.9686 174.368 54.9109 174.489 54.8134C174.809 54.5573 175.129 54.2898 175.44 54.0177C175.515 53.9524 175.576 53.873 175.621 53.7841C175.665 53.6951 175.691 53.5984 175.698 53.4993C175.705 53.4002 175.692 53.3007 175.66 53.2066C175.628 53.1124 175.578 53.0255 175.513 52.9506C175.448 52.8758 175.368 52.8145 175.28 52.7704C175.191 52.7262 175.094 52.6999 174.995 52.6932C174.896 52.6864 174.796 52.6992 174.702 52.7308C174.608 52.7625 174.521 52.8124 174.446 52.8777C174.15 53.1361 173.846 53.39 173.543 53.6332C173.418 53.7339 173.328 53.8717 173.287 54.0269C173.245 54.182 173.255 54.3464 173.313 54.496C173.371 54.6457 173.475 54.773 173.611 54.8594C173.746 54.9459 173.905 54.987 174.065 54.9768L174.065 54.9784Z" fill="#91B3FA"/>
</g>
<g id="Group 1155">
<path id="Path 1886" d="M175.492 42.0962C175.535 42.0364 175.558 41.9646 175.558 41.891C175.558 41.8175 175.535 41.7457 175.492 41.6858L173.002 38.18C173.779 36.2975 174.244 34.3008 174.378 32.2687L178.157 30.222C178.222 30.187 178.274 30.1327 178.306 30.0666C178.339 30.0005 178.35 29.926 178.338 29.8534L177.493 24.7614C177.481 24.6888 177.447 24.6218 177.395 24.5698C177.343 24.5177 177.276 24.4832 177.204 24.471L172.967 23.7536C172.184 21.8738 171.099 20.1341 169.757 18.6031L170.982 14.4808C171.003 14.4104 171.002 14.3353 170.978 14.2658C170.954 14.1963 170.909 14.136 170.849 14.0932L166.654 11.0912C166.594 11.0485 166.523 11.0255 166.449 11.0255C166.375 11.0255 166.304 11.0485 166.244 11.0912L162.738 13.5817C160.855 12.8049 158.859 12.3403 156.827 12.2061L154.78 8.42742C154.745 8.3627 154.69 8.31053 154.624 8.27824C154.558 8.24594 154.484 8.23512 154.411 8.2473L149.319 9.09089C149.247 9.10297 149.18 9.13737 149.128 9.18927C149.076 9.24117 149.041 9.30797 149.029 9.38043L148.312 13.6182C146.432 14.4011 144.692 15.4855 143.161 16.8285L139.039 15.6026C138.968 15.5815 138.893 15.5831 138.823 15.6069C138.754 15.6308 138.693 15.6757 138.65 15.7356L135.649 19.9308C135.607 19.9907 135.584 20.0624 135.584 20.136C135.584 20.2096 135.607 20.2813 135.649 20.3412L138.14 23.8471C137.363 25.7297 136.898 27.7263 136.764 29.7584L132.985 31.8051C132.92 31.84 132.868 31.8944 132.835 31.9605C132.803 32.0266 132.792 32.1011 132.804 32.1737L133.648 37.2657C133.66 37.3382 133.695 37.4051 133.746 37.4571C133.798 37.5092 133.865 37.5437 133.938 37.556L138.175 38.2734C138.958 40.1533 140.042 41.8929 141.385 43.4239L140.159 47.5462C140.138 47.6167 140.14 47.692 140.163 47.7617C140.187 47.8313 140.232 47.8917 140.292 47.9346L144.487 50.9358C144.547 50.9785 144.619 51.0015 144.692 51.0015C144.766 51.0015 144.838 50.9785 144.898 50.9358L148.404 48.4453C150.286 49.2221 152.283 49.6868 154.315 49.8209L156.361 53.5996C156.397 53.6643 156.451 53.7163 156.517 53.7486C156.583 53.7809 156.657 53.7918 156.73 53.7798L161.822 52.9354C161.895 52.9234 161.962 52.8891 162.014 52.8372C162.066 52.7853 162.101 52.7184 162.113 52.6458L162.831 48.4081C164.711 47.6251 166.45 46.5408 167.981 45.1978L172.103 46.4237C172.174 46.4447 172.249 46.4432 172.319 46.4194C172.389 46.3955 172.449 46.3505 172.492 46.2907L175.492 42.0962Z" fill="#91B3FA"/>
<g id="Group 1153">
<path id="Path 1887" d="M155.143 36.1826C153.806 36.0708 152.565 35.445 151.68 34.4368C150.795 33.4285 150.335 32.1163 150.398 30.7762C150.461 29.4362 151.04 28.1726 152.016 27.2512C152.991 26.3299 154.285 25.8225 155.627 25.836C156.968 25.8494 158.252 26.3824 159.209 27.3231C160.165 28.2638 160.72 29.5387 160.755 30.8798C160.791 32.2208 160.306 33.5236 159.401 34.514C158.496 35.5043 157.242 36.1052 155.903 36.1902C155.65 36.2062 155.396 36.2037 155.143 36.1826ZM153.005 27.9814C152.303 28.5756 151.829 29.3948 151.663 30.2995C151.497 31.2042 151.65 32.1385 152.096 32.943C152.542 33.7475 153.253 34.3725 154.108 34.7116C154.963 35.0507 155.909 35.0829 156.785 34.8026C157.661 34.5223 158.413 33.9469 158.912 33.1745C159.412 32.4021 159.628 31.4804 159.524 30.5665C159.42 29.6526 159.002 28.8031 158.342 28.1626C157.682 27.5222 156.82 27.1305 155.903 27.0542C155.707 27.0378 155.51 27.0358 155.314 27.0481C154.464 27.102 153.654 27.4294 153.005 27.9814Z" fill="#BDD0FB"/>
</g>
<g id="Group 1154">
<path id="Path 1888" d="M156.272 43.6701C156.708 43.6413 157.143 43.5906 157.574 43.5181C157.711 43.4953 157.847 43.47 157.983 43.4421C158.652 43.309 159.308 43.123 159.948 42.8858L159.973 42.8759L160.049 42.8478L160.192 42.7923C160.252 42.7687 160.302 42.7269 160.336 42.673C160.37 42.6191 160.387 42.5558 160.383 42.4921C160.381 42.4603 160.374 42.429 160.363 42.3994C160.333 42.3252 160.275 42.2659 160.201 42.2342C160.128 42.2024 160.045 42.2009 159.97 42.2299C157.659 43.1439 155.124 43.328 152.705 42.7573C150.287 42.1866 148.101 40.8886 146.442 39.0379C144.9 37.323 143.881 35.202 143.506 32.926C143.438 32.5147 143.391 32.1002 143.364 31.6841C143.174 28.5776 144.184 25.5168 146.186 23.1332C148.187 20.7497 151.027 19.2254 154.119 18.8748C157.212 18.5243 160.321 19.3743 162.805 21.2494C165.289 23.1245 166.958 25.8817 167.469 28.9519C167.536 29.358 167.582 29.7671 167.608 30.1778C167.722 31.9526 167.443 33.7306 166.791 35.3853C166.775 35.4266 166.768 35.471 166.771 35.5153C166.776 35.5832 166.805 35.6473 166.851 35.6973C166.897 35.7472 166.959 35.7802 167.027 35.7908C167.094 35.8014 167.163 35.7891 167.222 35.7558C167.282 35.7225 167.328 35.6702 167.355 35.6072C168.039 33.8699 168.332 32.0032 168.213 30.1398C168.101 28.3601 167.617 26.6236 166.792 25.0426C165.967 23.4616 164.82 22.0712 163.424 20.9611C162.029 19.851 160.416 19.0459 158.69 18.5978C156.963 18.1498 155.162 18.0687 153.403 18.3598C150.291 18.8765 147.482 20.5281 145.516 22.9956C143.551 25.4631 142.57 28.5713 142.763 31.7198C142.792 32.1566 142.842 32.5917 142.915 33.0233C143.432 36.1354 145.084 38.9456 147.552 40.9108C150.019 42.876 153.128 43.8567 156.277 43.6633L156.272 43.6701Z" fill="#BDD0FB"/>
</g>
</g>
</g>
<g id="Group 1162">
<g id="Group 1157" opacity="0.3">
<path id="Path 1889" d="M212.081 51.4905C212.182 51.4841 212.278 51.4452 212.355 51.3797C212.431 51.3142 212.485 51.2256 212.507 51.1272C212.594 50.7403 212.671 50.3459 212.735 49.9545C212.751 49.8342 212.719 49.7123 212.647 49.6148C212.575 49.5173 212.467 49.4518 212.348 49.432C212.228 49.4123 212.105 49.4399 212.006 49.509C211.906 49.5782 211.837 49.6834 211.813 49.8025C211.752 50.1756 211.679 50.5519 211.596 50.9205C211.58 50.9912 211.581 51.0646 211.598 51.1351C211.615 51.2055 211.649 51.2709 211.696 51.3261C211.743 51.3813 211.802 51.4247 211.869 51.453C211.936 51.4813 212.008 51.4935 212.081 51.4889L212.081 51.4905Z" fill="#91B3FA"/>
<path id="Path 1890" d="M212.5 47.9299C212.377 47.9249 212.26 47.8712 212.176 47.7802C212.092 47.6893 212.047 47.5687 212.052 47.445C212.077 46.7922 212.069 46.1385 212.028 45.4865C212.018 45.3497 212.009 45.2122 211.996 45.0746C211.986 44.9512 212.025 44.8286 212.105 44.734C212.185 44.6394 212.299 44.5804 212.423 44.57C212.545 44.5635 212.666 44.604 212.76 44.6832C212.854 44.7624 212.914 44.8743 212.928 44.9963C212.94 45.1402 212.951 45.2838 212.96 45.4272C213.003 46.1104 213.011 46.7953 212.985 47.4792C212.981 47.5947 212.934 47.7044 212.853 47.7872C212.773 47.87 212.664 47.92 212.549 47.9276L212.5 47.9299ZM211.653 42.7277C211.491 41.9536 211.281 41.1901 211.026 40.4416C210.986 40.3244 210.993 40.196 211.048 40.0846C211.102 39.9732 211.199 39.888 211.316 39.8477C211.433 39.8074 211.562 39.8153 211.673 39.8696C211.784 39.924 211.87 40.0204 211.91 40.1376C212.178 40.9224 212.398 41.7229 212.567 42.5346C212.58 42.5947 212.58 42.6567 212.569 42.717C212.558 42.7774 212.534 42.8349 212.501 42.8863C212.467 42.9376 212.424 42.9819 212.373 43.0165C212.322 43.0511 212.266 43.0754 212.205 43.0879C212.183 43.0926 212.161 43.0956 212.138 43.0971C212.027 43.1041 211.916 43.0705 211.827 43.0027C211.738 42.9349 211.676 42.8373 211.653 42.7277ZM210.121 38.2498C209.774 37.5388 209.383 36.8499 208.951 36.1871C208.918 36.1358 208.895 36.0783 208.883 36.0181C208.872 35.9578 208.873 35.896 208.885 35.836C208.898 35.776 208.922 35.7191 208.957 35.6685C208.992 35.6179 209.036 35.5746 209.087 35.5411C209.139 35.5076 209.196 35.4846 209.256 35.4733C209.316 35.462 209.378 35.4627 209.438 35.4754C209.498 35.488 209.555 35.5123 209.606 35.5469C209.656 35.5816 209.7 35.6258 209.733 35.6772C210.186 36.3724 210.596 37.0947 210.96 37.8401C211.014 37.9514 211.022 38.0797 210.982 38.1968C210.942 38.314 210.857 38.4103 210.745 38.4648C210.691 38.4914 210.631 38.5072 210.571 38.5112C210.478 38.5174 210.387 38.4962 210.307 38.4502C210.226 38.4042 210.162 38.3355 210.121 38.2528V38.2498ZM207.537 34.2848C207.026 33.6806 206.479 33.1086 205.898 32.5718C205.817 32.4855 205.772 32.3717 205.772 32.2534C205.771 32.1351 205.816 32.021 205.896 31.9342C205.977 31.8474 206.087 31.7944 206.205 31.7858C206.323 31.7772 206.44 31.8136 206.532 31.8878C207.141 32.4511 207.715 33.0511 208.25 33.6845C208.29 33.7313 208.32 33.7855 208.338 33.8439C208.357 33.9024 208.364 33.9639 208.359 34.025C208.354 34.0861 208.337 34.1456 208.309 34.2001C208.28 34.2546 208.242 34.303 208.195 34.3426C208.148 34.3822 208.094 34.4121 208.035 34.4308C207.977 34.4494 207.915 34.4563 207.854 34.4512C207.793 34.446 207.734 34.4289 207.679 34.4008C207.625 34.3726 207.576 34.334 207.537 34.2871V34.2848ZM204.061 31.0716C203.419 30.6099 202.749 30.1878 202.056 29.8077C202.002 29.7782 201.954 29.7384 201.916 29.6906C201.878 29.6428 201.849 29.5878 201.832 29.529C201.797 29.4101 201.811 29.2824 201.871 29.1738C201.93 29.0653 202.031 28.9849 202.15 28.9502C202.268 28.9156 202.396 28.9296 202.505 28.9891C203.232 29.3877 203.934 29.8301 204.607 30.3139C204.657 30.3497 204.699 30.395 204.732 30.4472C204.764 30.4994 204.786 30.5574 204.796 30.6181C204.806 30.6787 204.804 30.7407 204.79 30.8005C204.775 30.8603 204.75 30.9168 204.714 30.9667C204.678 31.0166 204.633 31.0589 204.581 31.0913C204.529 31.1237 204.47 31.1455 204.41 31.1554C204.349 31.1654 204.287 31.1633 204.227 31.1493C204.168 31.1353 204.111 31.1097 204.061 31.0739V31.0716ZM199.911 28.7991C199.176 28.5077 198.425 28.2621 197.66 28.0635C197.54 28.0323 197.437 27.9549 197.375 27.8481C197.312 27.7414 197.294 27.6141 197.325 27.4942C197.356 27.3744 197.434 27.2718 197.541 27.2091C197.647 27.1464 197.775 27.1287 197.895 27.1598C198.697 27.368 199.485 27.6257 200.255 27.9312C200.312 27.9538 200.364 27.9874 200.408 28.0301C200.452 28.0728 200.487 28.1238 200.512 28.1801C200.536 28.2363 200.549 28.2969 200.55 28.3582C200.551 28.4195 200.54 28.4803 200.517 28.5373C200.494 28.5943 200.461 28.6463 200.418 28.6903C200.375 28.7343 200.324 28.7694 200.268 28.7938C200.212 28.8181 200.151 28.8311 200.09 28.832C200.029 28.8329 199.968 28.8217 199.911 28.7991ZM195.333 27.6113C194.548 27.5091 193.758 27.4556 192.968 27.4509C192.905 27.453 192.842 27.4424 192.783 27.4196C192.725 27.3969 192.671 27.3626 192.626 27.3187C192.581 27.2747 192.545 27.2222 192.521 27.1641C192.496 27.1061 192.484 27.0437 192.485 26.9807C192.485 26.9178 192.498 26.8556 192.523 26.7978C192.548 26.7401 192.585 26.688 192.63 26.6447C192.676 26.6013 192.73 26.5677 192.789 26.5457C192.848 26.5238 192.911 26.5139 192.974 26.5169C193.803 26.5223 194.631 26.5787 195.454 26.6856C195.569 26.7002 195.674 26.7573 195.75 26.8458C195.825 26.9342 195.865 27.0476 195.861 27.1638C195.857 27.28 195.81 27.3905 195.729 27.4739C195.648 27.5572 195.539 27.6073 195.423 27.6143C195.392 27.6168 195.362 27.6163 195.331 27.6128L195.333 27.6113ZM187.702 27.6591C187.672 27.5389 187.692 27.412 187.756 27.3062C187.82 27.2005 187.924 27.1245 188.044 27.0952C188.744 26.9249 189.453 26.792 190.167 26.697C190.276 26.6818 190.383 26.6689 190.492 26.656C190.613 26.6467 190.732 26.6844 190.825 26.7613C190.919 26.8382 190.979 26.9483 190.992 27.0684C191.006 27.1884 190.973 27.3092 190.9 27.4054C190.827 27.5015 190.719 27.5655 190.599 27.5839C190.498 27.5953 190.396 27.6082 190.295 27.6227C189.613 27.7132 188.937 27.84 188.268 28.0027C188.209 28.0174 188.147 28.0202 188.086 28.011C188.025 28.0017 187.967 27.9805 187.915 27.9487C187.862 27.9168 187.817 27.8749 187.78 27.8253C187.744 27.7758 187.718 27.7196 187.704 27.6599L187.702 27.6591Z" fill="#91B3FA"/>
</g>
<g id="Group 1158" opacity="0.3">
<path id="Path 1891" d="M193.829 66.8272C193.014 66.868 192.198 66.8599 191.385 66.8029C191.264 66.7897 191.154 66.7304 191.077 66.6377C190.999 66.5449 190.961 66.4257 190.969 66.3052C190.978 66.1846 191.033 66.0721 191.123 65.9912C191.212 65.9103 191.33 65.8672 191.451 65.8711C192.226 65.9258 193.005 65.9337 193.782 65.8946C193.843 65.8911 193.904 65.8997 193.962 65.92C194.02 65.9402 194.073 65.9716 194.119 66.0124C194.165 66.0533 194.202 66.1027 194.229 66.1579C194.255 66.2132 194.271 66.2731 194.274 66.3343C194.278 66.3955 194.269 66.4569 194.249 66.5148C194.229 66.5727 194.197 66.626 194.157 66.6718C194.116 66.7176 194.066 66.7549 194.011 66.7815C193.956 66.8082 193.896 66.8237 193.835 66.8272H193.829ZM195.72 66.1758C195.699 66.054 195.728 65.9289 195.799 65.8278C195.87 65.7268 195.979 65.6582 196.1 65.637C196.867 65.5051 197.626 65.3275 198.371 65.105C198.49 65.0696 198.618 65.0826 198.727 65.1414C198.836 65.2002 198.917 65.2999 198.952 65.4185C198.988 65.5371 198.975 65.665 198.916 65.7739C198.857 65.8829 198.757 65.9641 198.639 65.9996C197.857 66.2329 197.062 66.4191 196.259 66.5574C196.242 66.5604 196.225 66.5623 196.208 66.5634C196.094 66.5702 195.981 66.5345 195.891 66.4631C195.801 66.3918 195.74 66.2898 195.72 66.1767V66.1758ZM188.956 66.4798C188.156 66.3227 187.365 66.1174 186.59 65.865C186.476 65.8235 186.383 65.7394 186.33 65.6306C186.277 65.5217 186.268 65.3966 186.306 65.2815C186.343 65.1664 186.424 65.0702 186.53 65.0134C186.637 64.9565 186.762 64.9433 186.879 64.9765C187.619 65.2174 188.373 65.4134 189.136 65.5633C189.248 65.5847 189.348 65.6461 189.418 65.7361C189.488 65.8261 189.522 65.9384 189.514 66.0519C189.507 66.1654 189.459 66.2723 189.378 66.3526C189.297 66.4328 189.19 66.4807 189.076 66.4874C189.037 66.4903 188.998 66.4883 188.959 66.4814L188.956 66.4798ZM200.318 64.9143C200.269 64.8009 200.266 64.6725 200.311 64.5572C200.356 64.4419 200.445 64.3492 200.559 64.2994C201.271 63.987 201.964 63.6317 202.633 63.2355C202.74 63.1723 202.867 63.154 202.987 63.1846C203.107 63.2153 203.21 63.2923 203.273 63.3988C203.337 63.5054 203.355 63.6326 203.324 63.7526C203.294 63.8726 203.216 63.9755 203.11 64.0387C202.408 64.455 201.681 64.8282 200.933 65.156C200.82 65.2055 200.691 65.2079 200.576 65.1629C200.461 65.1179 200.368 65.029 200.318 64.9158V64.9143ZM184.317 64.9682C183.578 64.6231 182.861 64.2339 182.169 63.8024C182.114 63.7713 182.066 63.7295 182.028 63.6794C181.99 63.6293 181.962 63.572 181.947 63.5109C181.931 63.4498 181.928 63.3863 181.938 63.3241C181.947 63.2618 181.969 63.2022 182.003 63.1487C182.036 63.0952 182.08 63.049 182.132 63.0129C182.183 62.9768 182.241 62.9515 182.303 62.9385C182.365 62.9255 182.428 62.9251 182.49 62.9374C182.552 62.9496 182.611 62.9743 182.663 63.0097C183.324 63.4217 184.009 63.7929 184.715 64.1215C184.823 64.1763 184.906 64.2712 184.946 64.3859C184.985 64.5007 184.979 64.6263 184.927 64.7363C184.876 64.8464 184.784 64.9321 184.67 64.9753C184.557 65.0186 184.431 65.016 184.32 64.9682H184.317ZM180.175 62.3843C179.54 61.8722 178.937 61.3224 178.368 60.7381C178.282 60.6494 178.234 60.53 178.236 60.4062C178.237 60.2824 178.288 60.1644 178.377 60.078C178.465 59.9916 178.585 59.944 178.709 59.9456C178.832 59.9473 178.95 59.998 179.037 60.0867C179.58 60.6441 180.156 61.1685 180.762 61.6569C180.855 61.7359 180.913 61.8479 180.924 61.9692C180.936 62.0905 180.899 62.2114 180.823 62.3062C180.746 62.401 180.636 62.4623 180.515 62.4768C180.394 62.4914 180.272 62.4582 180.175 62.3843ZM176.77 58.8882C176.276 58.2386 175.822 57.5597 175.409 56.8552C175.347 56.7483 175.329 56.6209 175.361 56.5011C175.392 56.3813 175.47 56.2789 175.577 56.2164C175.684 56.1539 175.811 56.1364 175.931 56.1679C176.051 56.1993 176.153 56.2771 176.216 56.384C176.608 57.056 177.042 57.7031 177.514 58.322C177.584 58.4208 177.614 58.5433 177.596 58.6635C177.578 58.7836 177.513 58.892 177.417 58.9656C177.32 59.0393 177.199 59.0724 177.078 59.058C176.957 59.0435 176.847 58.9826 176.77 58.8882Z" fill="#91B3FA"/>
<path id="Path 1892" d="M204.899 62.7481C204.991 62.7423 205.08 62.7087 205.154 62.6516C205.471 62.4069 205.781 62.1523 206.076 61.8916C206.17 61.8102 206.227 61.695 206.235 61.5715C206.244 61.4479 206.203 61.326 206.121 61.2327C206.04 61.1393 205.925 61.0822 205.801 61.0738C205.677 61.0654 205.556 61.1064 205.462 61.1879C205.18 61.4341 204.884 61.6773 204.582 61.9107C204.503 61.9716 204.445 62.0566 204.417 62.1531C204.39 62.2495 204.394 62.3523 204.429 62.4461C204.465 62.54 204.53 62.6199 204.614 62.674C204.699 62.7281 204.798 62.7536 204.899 62.7466V62.7481Z" fill="#91B3FA"/>
</g>
<g id="Group 1161">
<path id="Path 1893" d="M206.138 53.9467C206.167 53.9067 206.182 53.8588 206.182 53.8096C206.182 53.7604 206.167 53.7124 206.138 53.6724L204.471 51.3263C204.991 50.0677 205.302 48.7328 205.392 47.3742L207.921 46.0062C207.964 45.9829 207.999 45.9465 208.021 45.9022C208.043 45.8579 208.05 45.8079 208.042 45.7592L207.477 42.3544C207.469 42.3058 207.446 42.2609 207.412 42.226C207.377 42.1911 207.332 42.168 207.283 42.1599L204.448 41.6796C203.924 40.4215 203.198 39.2574 202.3 38.233L203.12 35.4749C203.134 35.4277 203.133 35.3773 203.117 35.3307C203.101 35.2841 203.071 35.2437 203.031 35.215L200.224 33.2063C200.184 33.1777 200.136 33.1623 200.087 33.1623C200.038 33.1623 199.989 33.1777 199.949 33.2063L197.603 34.873C196.345 34.3535 195.01 34.0427 193.651 33.9526L192.283 31.4241C192.26 31.3808 192.224 31.3458 192.179 31.3242C192.135 31.3025 192.085 31.2952 192.037 31.3032L188.631 31.868C188.583 31.8761 188.538 31.8991 188.504 31.9339C188.469 31.9686 188.446 32.0133 188.438 32.0618L187.957 34.8973C186.699 35.4213 185.535 36.147 184.511 37.0458L181.753 36.2258C181.705 36.2117 181.655 36.2127 181.608 36.2286C181.562 36.2445 181.521 36.2746 181.493 36.3147L179.484 39.1222C179.455 39.1622 179.44 39.2101 179.44 39.2593C179.44 39.3085 179.455 39.3564 179.484 39.3965L181.151 41.7426C180.631 43.0012 180.32 44.336 180.229 45.6947L177.701 47.0627C177.658 47.0862 177.623 47.1227 177.601 47.1669C177.58 47.2112 177.573 47.2611 177.581 47.3097L178.146 50.7152C178.153 50.7638 178.176 50.8087 178.211 50.8436C178.246 50.8785 178.291 50.9017 178.339 50.9098L181.174 51.3901C181.698 52.6481 182.424 53.8123 183.323 54.8367L182.503 57.5947C182.489 57.6419 182.489 57.6924 182.505 57.739C182.521 57.7856 182.552 57.8261 182.592 57.8547L185.399 59.8634C185.439 59.8919 185.487 59.9073 185.536 59.9073C185.585 59.9073 185.633 59.8919 185.673 59.8634L188.019 58.1967C189.278 58.7164 190.613 59.0275 191.972 59.1178L193.339 61.6463C193.363 61.6895 193.399 61.7245 193.443 61.7461C193.488 61.7678 193.537 61.7752 193.586 61.7672L196.991 61.2025C197.04 61.1946 197.085 61.1716 197.12 61.1369C197.155 61.1021 197.178 61.0573 197.186 61.0087L197.666 58.1731C198.924 57.649 200.088 56.9233 201.113 56.0246L203.872 56.8446C203.919 56.8585 203.969 56.8575 204.015 56.8416C204.062 56.8256 204.102 56.7956 204.131 56.7557L206.138 53.9467Z" fill="#91B3FA"/>
<g id="Group 1159">
<path id="Path 1894" d="M192.517 50.0502C191.61 49.9732 190.767 49.5474 190.167 48.8623C189.567 48.1773 189.256 47.2863 189.299 46.3765C189.342 45.4668 189.736 44.6092 190.399 43.984C191.061 43.3588 191.94 43.0146 192.85 43.0239C193.761 43.0331 194.633 43.395 195.282 44.0336C195.932 44.6721 196.308 45.5375 196.333 46.448C196.358 47.3584 196.028 48.2429 195.414 48.9157C194.801 49.5884 193.95 49.997 193.041 50.0555C192.866 50.0664 192.691 50.0647 192.517 50.0502ZM190.22 46.3148C190.163 47.0015 190.382 47.6827 190.827 48.2087C191.272 48.7346 191.908 49.0621 192.595 49.1192C193.277 49.1681 193.951 48.946 194.471 48.5012C194.99 48.0563 195.313 47.4245 195.37 46.7429C195.427 46.0613 195.212 45.3847 194.774 44.8601C194.335 44.3355 193.707 44.0051 193.026 43.9406C192.899 43.9314 192.772 43.9314 192.646 43.9406C192.024 43.9805 191.437 44.242 190.992 44.6777C190.547 45.1134 190.274 45.6942 190.22 46.3148Z" fill="#BDD0FB"/>
</g>
<g id="Group 1160">
<path id="Path 1895" d="M193.303 55.2622C194.2 55.2054 195.083 55.0127 195.921 54.6907L195.998 54.661C196.113 54.6155 196.205 54.5261 196.254 54.4125C196.303 54.2989 196.305 54.1704 196.26 54.0553C196.214 53.9402 196.125 53.8479 196.011 53.7987C195.898 53.7496 195.769 53.7475 195.654 53.7931C195.134 53.9985 194.593 54.1481 194.041 54.2392L193.949 54.2536C192.661 54.4564 191.343 54.3325 190.116 53.8934C189.449 53.6541 188.817 53.3262 188.237 52.9184L188.222 52.9085L188.179 52.8773C186.982 52.0202 186.05 50.8442 185.488 49.4833C184.927 48.1224 184.759 46.6312 185.004 45.1796C185.249 43.7279 185.896 42.3742 186.872 41.2725C187.849 40.1708 189.115 39.3654 190.527 38.948C191.938 38.5307 193.439 38.5181 194.858 38.9119C196.276 39.3056 197.555 40.0897 198.55 41.1749C199.545 42.2602 200.215 43.6029 200.484 45.0503C200.753 46.4976 200.61 47.9914 200.071 49.3615C200.046 49.4251 200.035 49.4937 200.039 49.5622C200.046 49.6684 200.088 49.7692 200.16 49.848C200.231 49.9267 200.328 49.9786 200.433 49.9951C200.538 50.0116 200.645 49.9917 200.738 49.9386C200.83 49.8856 200.901 49.8027 200.94 49.7035C201.422 48.4781 201.623 47.1601 201.527 45.8467C201.432 44.5333 201.043 43.258 200.389 42.115C199.735 40.9721 198.833 39.9904 197.749 39.2426C196.665 38.4948 195.427 37.9999 194.127 37.7943C192.826 37.5888 191.496 37.6779 190.234 38.055C188.972 38.4322 187.811 39.0878 186.837 39.9734C185.862 40.8591 185.099 41.9522 184.603 43.1722C184.108 44.3922 183.892 45.7079 183.973 47.0222C183.992 47.3235 184.026 47.6236 184.075 47.9213C184.434 50.0692 185.576 52.008 187.28 53.3636C188.984 54.7193 191.13 55.3956 193.303 55.2622Z" fill="#BDD0FB"/>
</g>
</g>
</g>
</g>
</g>
</g>
<defs>
<linearGradient id="paint0_linear_112_9386" x1="238.461" y1="274.258" x2="53.2709" y2="38.9504" gradientUnits="userSpaceOnUse">
<stop stop-color="white"/>
<stop offset="1" stop-color="#E9EFFD"/>
</linearGradient>
<linearGradient id="paint1_linear_112_9386" x1="174.542" y1="-95.745" x2="94.2585" y2="164.333" gradientUnits="userSpaceOnUse">
<stop stop-color="#4042E2"/>
<stop offset="1" stop-color="#4F52FF"/>
</linearGradient>
<linearGradient id="paint2_linear_112_9386" x1="130.36" y1="37.2301" x2="107.289" y2="-21.1408" gradientUnits="userSpaceOnUse">
<stop stop-color="#09005D"/>
<stop offset="1" stop-color="#1A0F91"/>
</linearGradient>
<linearGradient id="paint3_linear_112_9386" x1="146.927" y1="118.986" x2="279.642" y2="41.2525" gradientUnits="userSpaceOnUse">
<stop stop-color="white"/>
<stop offset="1" stop-color="#FF928E"/>
</linearGradient>
<linearGradient id="paint4_linear_112_9386" x1="-149.837" y1="208.753" x2="-140.729" y2="208.753" gradientUnits="userSpaceOnUse">
<stop stop-color="#09005D"/>
<stop offset="1" stop-color="#1A0F91"/>
</linearGradient>
<linearGradient id="paint5_linear_112_9386" x1="-147.477" y1="198.385" x2="-150.662" y2="213.257" gradientUnits="userSpaceOnUse">
<stop stop-color="#FEBBBA"/>
<stop offset="1" stop-color="#FF928E"/>
</linearGradient>
<linearGradient id="paint6_linear_112_9386" x1="-136.097" y1="208.984" x2="-122.977" y2="208.984" gradientUnits="userSpaceOnUse">
<stop stop-color="#09005D"/>
<stop offset="1" stop-color="#1A0F91"/>
</linearGradient>
<linearGradient id="paint7_linear_112_9386" x1="-124.845" y1="189.792" x2="-128.822" y2="204.372" gradientUnits="userSpaceOnUse">
<stop stop-color="#FEBBBA"/>
<stop offset="1" stop-color="#FF928E"/>
</linearGradient>
<linearGradient id="paint8_linear_112_9386" x1="-134.341" y1="212.691" x2="-82.016" y2="176.571" gradientUnits="userSpaceOnUse">
<stop stop-color="#09005D"/>
<stop offset="1" stop-color="#1A0F91"/>
</linearGradient>
<linearGradient id="paint9_linear_112_9386" x1="68.5143" y1="95.3977" x2="19.1479" y2="114.31" gradientUnits="userSpaceOnUse">
<stop stop-color="#4042E2"/>
<stop offset="1" stop-color="#4F52FF"/>
</linearGradient>
<linearGradient id="paint10_linear_112_9386" x1="60.7683" y1="97.8135" x2="-27.5346" y2="138.487" gradientUnits="userSpaceOnUse">
<stop stop-color="#4042E2"/>
<stop offset="1" stop-color="#4F52FF"/>
</linearGradient>
<linearGradient id="paint11_linear_112_9386" x1="-140.336" y1="109.899" x2="-134.9" y2="99.599" gradientUnits="userSpaceOnUse">
<stop stop-color="#FEBBBA"/>
<stop offset="1" stop-color="#FF928E"/>
</linearGradient>
<linearGradient id="paint12_linear_112_9386" x1="49.0252" y1="74.3667" x2="46.3752" y2="88.5503" gradientUnits="userSpaceOnUse">
<stop stop-color="#4042E2"/>
<stop offset="1" stop-color="#4F52FF"/>
</linearGradient>
<linearGradient id="paint13_linear_112_9386" x1="52.3085" y1="74.8572" x2="50.9453" y2="89.2038" gradientUnits="userSpaceOnUse">
<stop stop-color="#4042E2"/>
<stop offset="1" stop-color="#4F52FF"/>
</linearGradient>
<linearGradient id="paint14_linear_112_9386" x1="-130.415" y1="93.3471" x2="-156.289" y2="109.645" gradientUnits="userSpaceOnUse">
<stop stop-color="#FEBBBA"/>
<stop offset="1" stop-color="#FF928E"/>
</linearGradient>
<linearGradient id="paint15_linear_112_9386" x1="-139.626" y1="87.0363" x2="-128.764" y2="101.36" gradientUnits="userSpaceOnUse">
<stop stop-color="#09005D"/>
<stop offset="1" stop-color="#1A0F91"/>
</linearGradient>
<linearGradient id="paint16_linear_112_9386" x1="-132.831" y1="92.2994" x2="-146.187" y2="97.4382" gradientUnits="userSpaceOnUse">
<stop stop-color="#FEBBBA"/>
<stop offset="1" stop-color="#FF928E"/>
</linearGradient>
<linearGradient id="paint17_linear_112_9386" x1="-165.357" y1="98.2876" x2="-137.885" y2="101.921" gradientUnits="userSpaceOnUse">
<stop stop-color="#FEBBBA"/>
<stop offset="1" stop-color="#FF928E"/>
</linearGradient>
<linearGradient id="paint18_linear_112_9386" x1="-165.831" y1="100.299" x2="-150.489" y2="126.665" gradientUnits="userSpaceOnUse">
<stop stop-color="#FEBBBA"/>
<stop offset="1" stop-color="#FF928E"/>
</linearGradient>
<linearGradient id="paint19_linear_112_9386" x1="-166.263" y1="99.3576" x2="-138.79" y2="102.998" gradientUnits="userSpaceOnUse">
<stop stop-color="#FEBBBA"/>
<stop offset="1" stop-color="#FF928E"/>
</linearGradient>
<linearGradient id="paint20_linear_112_9386" x1="4.60907" y1="106.713" x2="-18.0225" y2="206.616" gradientUnits="userSpaceOnUse">
<stop stop-color="#E1473D"/>
<stop offset="1" stop-color="#E9605A"/>
</linearGradient>
<linearGradient id="paint21_linear_112_9386" x1="279.288" y1="-35.0114" x2="265.344" y2="20.8298" gradientUnits="userSpaceOnUse">
<stop stop-color="#FE7062"/>
<stop offset="1" stop-color="#FF928E"/>
</linearGradient>
<linearGradient id="paint22_linear_112_9386" x1="-29.6793" y1="132.209" x2="9.43961" y2="223.917" gradientUnits="userSpaceOnUse">
<stop stop-color="#FF9085"/>
<stop offset="1" stop-color="#FB6FBB"/>
</linearGradient>
<linearGradient id="paint23_linear_112_9386" x1="102.502" y1="93.4529" x2="114.358" y2="30.0082" gradientUnits="userSpaceOnUse">
<stop stop-color="#FE7062"/>
<stop offset="1" stop-color="#FF928E"/>
</linearGradient>
<linearGradient id="paint24_linear_112_9386" x1="115.74" y1="28.3739" x2="111.641" y2="36.2956" gradientUnits="userSpaceOnUse">
<stop stop-color="#FE7062"/>
<stop offset="1" stop-color="#FF928E"/>
</linearGradient>
<linearGradient id="paint25_linear_112_9386" x1="-98.9139" y1="275.576" x2="-101.236" y2="329.376" gradientUnits="userSpaceOnUse">
<stop stop-color="#FEBBBA"/>
<stop offset="1" stop-color="#FF928E"/>
</linearGradient>
</defs>
</svg>
