<svg width="237" height="178" viewBox="0 0 237 178" fill="none" xmlns="http://www.w3.org/2000/svg">
<g id="Group 1165">
<path id="Path 1764" d="M183.865 152.229C180.8 155.29 177.432 158.041 173.812 160.441C141.017 183.27 102.213 176.616 93.9654 174.991C81.7894 172.591 58.2465 167.952 41.2274 148.535C15.4784 119.158 19.4885 72.8753 39.4603 42.3234C43.1138 36.7348 62.4112 5.71776 101.634 0.743415C125.371 -2.26725 153.04 3.80461 173.078 20.0881C215.14 54.2792 212.146 123.344 183.865 152.229Z" fill="url(#paint0_linear_112_9617)"/>
<g id="Plant">
<g id="Group 18">
<g id="Group 9">
<path id="Path 14" d="M168.707 87.541C169.176 90.7501 169.008 94.0184 168.212 97.1644C167.837 98.6217 167.337 100.045 166.717 101.419C165.941 103.179 165.128 104.898 165.324 106.825C165.513 106.95 164.865 106.929 164.843 106.741C159.62 103.81 152.922 103.273 148.902 98.4806C147.087 96.1476 145.94 93.3768 145.583 90.4577C144.987 87.2484 145.051 83.954 145.771 80.7696C146.066 79.4372 146.638 78.1796 147.452 77.0765C148.265 75.9733 149.302 75.0485 150.497 74.3606C153.066 73.0435 156.431 73.1533 159.137 73.9808C164.979 75.7684 167.881 81.9737 168.707 87.541Z" fill="#69D55A"/>
<g id="Group 8">
<path id="Path 15" d="M171.387 125.651C170.675 123.309 169.962 120.967 169.231 118.632C167.797 114.052 166.308 109.498 164.659 104.992C163.671 102.294 162.629 99.6216 161.535 96.9749C161.655 95.3074 161.863 93.6471 162.158 92.0006C162.595 90.0046 163.229 88.0772 163.82 86.1238C163.857 86.0038 163.66 85.9398 163.609 86.0543C162.437 88.7452 160.907 92.1885 160.868 95.3753C159.593 92.3807 158.225 89.4287 156.764 86.5194C156.597 84.0588 156.674 81.5881 156.993 79.1423C156.998 79.1193 156.993 79.0954 156.98 79.076C156.966 79.0565 156.946 79.043 156.923 79.0385C156.899 79.034 156.875 79.0388 156.855 79.052C156.835 79.0651 156.822 79.0854 156.817 79.1084C156.371 81.2493 156.199 83.437 156.306 85.62C155.185 83.4355 153.997 81.2795 152.742 79.1518C152.628 78.9599 152.36 79.1558 152.459 79.3445C154.422 83.0697 156.243 86.8731 157.951 90.7263C155.546 88.671 152.767 87.0848 149.762 86.0519C149.633 86.0061 149.534 86.1917 149.667 86.247C152.947 87.635 155.947 89.5927 158.524 92.0267C159.752 94.8486 160.923 97.6929 162.035 100.56C158.627 97.4659 154.474 95.2807 149.97 94.2107C149.822 94.1728 149.783 94.3946 149.925 94.4365C154.931 95.9224 158.817 98.7199 162.627 102.081C163.069 103.239 163.504 104.4 163.93 105.565C165.543 109.976 167.079 114.415 168.537 118.879C169.24 121.018 169.931 123.16 170.61 125.306C171.341 127.615 171.912 130.052 172.863 132.281C172.954 132.494 173.344 132.445 173.292 132.19C172.771 129.98 172.135 127.797 171.387 125.651Z" fill="#263238"/>
<path id="Path 16" d="M162.723 83.0357C161.795 84.44 161.156 86.0101 160.842 87.6571C160.834 87.699 160.901 87.7242 160.917 87.6816C161.501 86.1298 162.182 84.6154 162.956 83.147C163.037 82.997 162.812 82.9023 162.723 83.0357Z" fill="#263238"/>
<path id="Path 17" d="M153.407 93.7614C151.953 92.9681 150.365 92.4411 148.72 92.2059C148.678 92.2004 148.652 92.262 148.696 92.2794C149.449 92.5873 150.241 92.8028 151.003 93.0918C151.766 93.3808 152.516 93.7337 153.29 93.999C153.321 94.0113 153.356 94.0114 153.388 93.9994C153.419 93.9873 153.445 93.9639 153.46 93.9339C153.475 93.9039 153.478 93.8695 153.468 93.8375C153.458 93.8055 153.437 93.7783 153.407 93.7614Z" fill="#263238"/>
<path id="Path 18" d="M150.78 80.8589C150.308 80.5061 149.804 80.1988 149.272 79.9414C149.255 79.9339 149.236 79.9328 149.217 79.9381C149.199 79.9434 149.184 79.9549 149.173 79.9705C149.163 79.9861 149.158 80.0049 149.161 80.0234C149.163 80.0419 149.172 80.059 149.186 80.0717C149.649 80.4339 150.147 80.7512 150.672 81.0192C150.77 81.0784 150.876 80.9205 150.78 80.8589Z" fill="#263238"/>
</g>
</g>
<g id="Group 11">
<path id="Path 19" d="M186.314 105.026C182.549 106.127 178.771 107.144 175.01 108.232C174.683 108.328 168.324 96.3179 170.623 90.1308C171.717 87.3256 173.432 84.7963 175.644 82.7276C177.856 80.6588 180.508 79.1027 183.407 78.1727C186.093 77.2733 189.396 76.5146 192.233 77.1352C193.444 77.4553 194.551 78.076 195.448 78.9381C196.346 79.8001 197.004 80.8746 197.36 82.059C198.477 85.2378 198.105 89.0286 197.497 92.2745C197.015 95.3218 195.74 98.194 193.796 100.611C191.795 102.952 189.247 104.17 186.314 105.026Z" fill="#69D55A"/>
<g id="Group 10">
<path id="Path 20" d="M191.77 93.6112C189.392 94.7554 186.926 95.7124 184.395 96.4734C182.706 96.9208 181.059 97.5085 179.471 98.2303C181.06 94.7395 182.803 91.3214 184.653 87.9349C187.166 87.3092 189.499 86.1221 191.471 84.4655C191.492 84.4476 191.505 84.4222 191.508 84.3947C191.51 84.3672 191.501 84.34 191.483 84.3191C191.465 84.2981 191.439 84.2852 191.411 84.283C191.383 84.2809 191.355 84.2897 191.334 84.3076C189.309 85.5868 187.153 86.6521 184.902 87.4857C185.402 86.5745 185.906 85.6641 186.424 84.7561C186.567 84.5034 186.214 84.2524 186.042 84.4979C184.065 87.3287 182.28 90.2844 180.697 93.3459C180.293 90.6633 180.164 87.9475 180.311 85.2393C180.311 85.2258 180.305 85.2129 180.296 85.203C180.286 85.1932 180.273 85.1872 180.26 85.1862C180.246 85.1853 180.232 85.1894 180.221 85.1977C180.211 85.2061 180.203 85.2181 180.201 85.2314C179.731 88.1851 179.763 91.1951 180.294 94.1387C178.975 96.734 177.773 99.3933 176.689 102.085C176.26 100.467 175.702 98.8754 175.327 97.2449C174.757 94.91 174.575 92.4995 174.787 90.1071C174.794 90.0368 174.689 90.0321 174.678 90.1C174.012 94.5277 174.557 99.0504 176.256 103.201C175.627 104.822 175.027 106.449 174.479 108.079C171.645 116.392 169.965 125.046 169.486 133.804C169.483 133.846 169.497 133.887 169.525 133.919C169.553 133.95 169.593 133.97 169.635 133.973C169.678 133.976 169.72 133.962 169.752 133.934C169.784 133.907 169.804 133.868 169.807 133.826C170.792 125.185 172.671 116.666 175.414 108.402C176.505 105.169 177.761 102.03 179.138 98.9511C181.359 98.3037 183.573 97.4257 185.756 96.6811C187.937 96.0345 189.996 95.039 191.85 93.7344C191.859 93.7216 191.864 93.7063 191.865 93.6906C191.865 93.6749 191.861 93.6595 191.852 93.6462C191.843 93.633 191.831 93.6226 191.816 93.6164C191.802 93.6101 191.786 93.6083 191.77 93.6112Z" fill="#263238"/>
<path id="Path 21" d="M195.275 90.123C192.975 90.9291 190.794 92.0582 188.496 92.8762C188.389 92.9141 188.451 93.0831 188.56 93.061C191.025 92.68 193.359 91.7166 195.364 90.2533C195.438 90.1925 195.355 90.0946 195.275 90.123Z" fill="#263238"/>
<path id="Path 22" d="M176.491 85.23C176.519 85.11 176.34 85.0406 176.303 85.1645C175.673 87.2545 175.236 89.4732 175.851 91.609C175.875 91.6927 176.011 91.6959 176.011 91.5996C176.124 89.4472 176.001 87.3524 176.491 85.23Z" fill="#263238"/>
<path id="Path 23" d="M185.997 80.4041C185.262 81.4413 184.91 82.6952 184.999 83.9572C184.999 84.0362 185.132 84.0835 185.153 83.9888C185.434 82.7933 185.902 81.7037 186.275 80.5423C186.283 80.5078 186.279 80.4717 186.264 80.4396C186.249 80.4076 186.223 80.3815 186.191 80.3656C186.159 80.3496 186.122 80.3448 186.087 80.3517C186.052 80.3587 186.02 80.3772 185.997 80.4041Z" fill="#263238"/>
</g>
</g>
<g id="Group 13">
<path id="Path 24" d="M141.57 110.324C142.673 113.774 145.293 118.543 149.443 118.58C152.133 118.605 154.842 118.291 157.539 118.253C160.423 118.209 163.321 118.215 166.202 118.386C166.438 118.398 165.856 109.859 158.913 105.705C156.969 104.541 154.587 104.172 152.385 103.701C149.859 103.112 147.266 102.847 144.672 102.911C143.078 102.974 141.752 103.306 141.185 104.916C140.595 106.598 141.04 108.684 141.57 110.324Z" fill="#69D55A"/>
<g id="Group 12">
<path id="Path 25" d="M144.556 106.008C146.243 106.435 147.944 106.927 149.637 107.457C149.196 106.984 148.729 106.536 148.238 106.114C147.512 105.518 146.712 105.043 145.932 104.521C145.866 104.478 145.905 104.354 145.99 104.386C147.631 105.058 149.049 106.17 150.083 107.595C152.192 108.267 154.281 109.008 156.293 109.821C157.682 110.382 159.014 111.073 160.269 111.885C159.865 111.022 159.382 110.196 158.827 109.418C157.85 108.362 156.712 107.462 155.454 106.75C155.431 106.735 155.415 106.712 155.409 106.686C155.403 106.659 155.407 106.632 155.421 106.608C155.434 106.585 155.457 106.568 155.483 106.56C155.509 106.553 155.538 106.555 155.562 106.568C156.823 107.107 157.956 107.9 158.888 108.897C159.82 109.893 160.531 111.07 160.975 112.353C162.42 113.374 163.741 114.557 164.912 115.877C169.504 121.018 173.12 127.858 173.134 134.838C173.134 135.004 172.863 135.051 172.83 134.878C171.652 128.035 168.627 121.631 164.073 116.337C163.745 115.959 163.408 115.599 163.064 115.251C161.806 115.084 160.539 114.991 159.27 114.973C157.792 114.995 156.326 115.187 154.856 115.306C152.433 115.5 149.754 115.528 147.566 114.327C147.47 114.274 147.535 114.109 147.646 114.147C152.518 115.893 157.629 113.678 162.512 114.72C160.426 112.759 157.982 111.205 155.31 110.14C155.161 110.08 155.011 110.024 154.862 109.964C151.738 110.335 148.434 111.138 145.389 110.136C145.37 110.131 145.353 110.119 145.344 110.102C145.334 110.085 145.331 110.064 145.337 110.046C145.342 110.027 145.355 110.011 145.372 110.001C145.389 109.992 145.41 109.989 145.429 109.994C148.371 110.718 151.196 109.808 154.096 109.663C150.934 108.449 147.713 107.483 144.54 106.279C144.274 106.174 144.267 105.934 144.556 106.008Z" fill="#263238"/>
<path id="Path 26" d="M143.177 109.041C144.686 109.236 146.205 109.35 147.727 109.382C147.762 109.382 147.773 109.436 147.736 109.444C146.205 109.723 144.627 109.624 143.145 109.155C143.13 109.15 143.119 109.14 143.112 109.126C143.105 109.113 143.104 109.098 143.108 109.084C143.112 109.069 143.121 109.057 143.134 109.049C143.147 109.041 143.162 109.039 143.177 109.041Z" fill="#263238"/>
<path id="Path 27" d="M153.456 106.082C154.297 106.455 155.061 106.978 155.708 107.626C155.789 107.694 155.681 107.835 155.594 107.773C155.213 107.498 154.819 107.24 154.423 106.988C154.044 106.781 153.677 106.553 153.325 106.303C153.222 106.22 153.333 106.039 153.456 106.082Z" fill="#263238"/>
</g>
</g>
<g id="Group 15">
<path id="Path 28" d="M177.961 117.191C177.91 117.303 178.076 117.41 178.14 117.291C178.146 117.291 178.146 117.291 178.146 117.284C178.158 117.303 178.174 117.318 178.193 117.33C178.212 117.342 178.232 117.35 178.254 117.353C181.048 118.011 183.879 118.497 186.733 118.811C189.028 119.012 191.673 119.138 193.682 117.825C196.405 116.046 198.196 111.29 196.726 108.271C194.985 104.683 189.739 106.631 187.106 107.906C183.051 109.853 179.816 113.138 177.961 117.191Z" fill="#69D55A"/>
<g id="Group 14">
<path id="Path 29" d="M175.926 118.849C177.456 117.391 179.156 116.116 180.989 115.051C182.307 112.99 184.058 111.232 186.123 109.893C186.222 109.825 186.308 109.981 186.216 110.051C184.574 111.346 183.119 112.855 181.89 114.537C183.934 113.436 186.057 112.484 188.242 111.689C189.023 110.262 190.208 109.091 191.653 108.319C191.681 108.305 191.718 108.343 191.69 108.365C190.496 109.258 189.456 110.335 188.608 111.553C189.899 111.079 191.202 110.635 192.505 110.211C192.623 110.173 192.665 110.348 192.555 110.391C190.236 111.284 187.866 112.226 185.568 113.312C188.372 113.744 191.228 113.735 194.029 113.288C194.109 113.274 194.141 113.384 194.063 113.406C191.139 114.258 188.033 114.304 185.085 113.539C183.62 114.24 182.198 115.025 180.826 115.889C181.982 115.796 183.146 115.89 184.271 116.166C186.254 116.622 188.284 116.849 190.32 116.841C190.4 116.841 190.416 116.963 190.339 116.976C186.83 117.572 183.512 116 180.034 116.409C178.743 117.275 177.532 118.251 176.412 119.325C174.245 121.462 172.459 123.944 171.13 126.668C169.666 129.605 168.872 132.719 167.686 135.753C167.678 135.78 167.659 135.804 167.633 135.818C167.607 135.832 167.577 135.836 167.549 135.828C167.52 135.82 167.496 135.802 167.481 135.777C167.466 135.752 167.462 135.722 167.47 135.694C168.481 129.712 171.504 123.113 175.926 118.849Z" fill="#263238"/>
<path id="Path 30" d="M186.509 110.643C186.741 110.235 187.046 109.872 187.408 109.569C187.703 109.254 188.054 108.995 188.444 108.805C188.479 108.792 188.498 108.839 188.477 108.862C188.19 109.184 187.789 109.419 187.479 109.73C187.169 110.042 186.908 110.404 186.591 110.709C186.582 110.719 186.569 110.726 186.555 110.728C186.541 110.729 186.528 110.725 186.517 110.716C186.506 110.708 186.499 110.695 186.498 110.681C186.496 110.668 186.5 110.654 186.509 110.643Z" fill="#263238"/>
<path id="Path 31" d="M192.297 112.5C192.816 112.372 193.368 112.38 193.899 112.274C194.423 112.149 194.941 111.996 195.45 111.817C195.464 111.813 195.479 111.815 195.493 111.821C195.506 111.828 195.516 111.839 195.522 111.852C195.528 111.866 195.529 111.881 195.524 111.895C195.52 111.909 195.51 111.921 195.498 111.929C194.541 112.51 193.417 112.768 192.298 112.661C192.281 112.656 192.266 112.646 192.255 112.631C192.244 112.617 192.238 112.599 192.238 112.581C192.237 112.563 192.243 112.546 192.254 112.531C192.264 112.517 192.279 112.506 192.297 112.5Z" fill="#263238"/>
</g>
</g>
<g id="Group 17">
<g id="Group 16">
<path id="Path 32" d="M161.468 128.323L161.928 133.479L163.491 150.886H177.322L179.275 133.479L179.852 128.323H161.468Z" fill="#37474F"/>
<path id="Path 33" d="M161.468 128.323L161.928 133.479H179.275L179.852 128.323H161.468Z" fill="#263238"/>
</g>
<path id="Rectangle 12" d="M160.098 131.099H181.22V126.916H160.098V131.099Z" fill="#37474F"/>
</g>
</g>
</g>
<g id="Floor">
<path id="Line 2" d="M1.10547 150.886H235.679" stroke="#C1C1C1" stroke-linecap="round" stroke-linejoin="round"/>
</g>
<g id="Character">
<g id="Group 52">
<g id="Group 51">
<path id="Path 127" d="M55.8011 124.312L22.3684 150.887H24.2525L62.8679 124.312H55.8011Z" fill="#C7C7C7"/>
<path id="Path 128" d="M58.9455 124.312L42.4238 150.887H44.3079L64.5577 124.312H58.9455Z" fill="#C7C7C7"/>
<path id="Path 129" d="M67.0452 124.312L83.5669 150.887H81.6836L61.4338 124.312H67.0452Z" fill="#C7C7C7"/>
<path id="Path 130" d="M69.9309 124.312L103.366 150.887H101.483L62.8672 124.312H69.9309Z" fill="#C7C7C7"/>
</g>
<path id="Path 131" d="M125.739 114.564V106.789L79.8239 104.932L55.5665 41.1091H0L19.661 114.564L66.6354 127.561H69.5784L125.739 114.564Z" fill="#455A64"/>
<path id="Path 132" opacity="0.1" d="M0 41.1091H6.35714L26.8424 108.065L68.4009 119.672L125.739 106.79V114.565L69.5849 127.562H66.6418L19.6674 114.565L0 41.1091Z" fill="black"/>
</g>
<g id="Group 118">
<g id="Group 59">
<g id="Group 56">
<path id="Path 133" d="M100.739 162.97C99.3364 162.444 67.8158 136.993 67.2399 135.273C67.0164 134.621 70.5098 129.881 74.8955 124.271C75.8424 123.059 76.8277 121.814 77.8362 120.556C84.3696 112.373 91.4965 103.84 91.4965 103.84L112.629 120.806L98.3871 137.055L95.263 140.624C95.263 140.624 102.907 155.689 103.338 157.642C103.769 159.596 102.142 163.496 100.739 162.97Z" fill="#AD6359"/>
<path id="Path 134" d="M100.738 162.972C99.3354 162.446 67.8149 136.995 67.2389 135.274C66.9706 134.481 72.1822 127.647 77.8344 120.556L98.3854 137.059L95.2613 140.627C95.2613 140.627 102.906 155.693 103.337 157.646C103.768 159.599 102.141 163.496 100.738 162.972Z" fill="#EBEBEB"/>
<g id="Group 55">
<path id="Path 135" d="M100.739 162.969C99.3366 162.443 67.8161 136.992 67.2401 135.271C67.0166 134.62 70.51 129.879 74.8958 124.27L95.2633 140.624C95.2633 140.624 102.908 155.689 103.339 157.641C103.77 159.594 102.142 163.496 100.739 162.969Z" fill="#FF6F35"/>
<g id="Group 54">
<g id="Group 53">
<path id="Path 136" d="M101.32 161.363C96.1423 156.968 74.8416 139.728 69.3857 135.769C69.3416 135.738 69.3176 135.769 69.3592 135.803C74.3938 140.268 95.8355 157.341 101.249 161.449C101.363 161.536 101.429 161.456 101.32 161.363Z" fill="#263238"/>
<path id="Path 137" d="M102.24 154.886C101.665 154.396 100.994 154.029 100.268 153.809C99.5417 153.589 98.7772 153.519 98.0225 153.605C96.6636 153.749 95.4131 154.403 94.5308 155.432C94.5059 155.464 94.5628 155.511 94.5948 155.483C95.6312 154.597 96.9314 154.066 98.3002 153.97C99.669 153.874 101.032 154.218 102.186 154.951C102.195 154.957 102.205 154.959 102.216 154.958C102.226 154.956 102.236 154.951 102.242 154.942C102.249 154.934 102.253 154.924 102.252 154.914C102.252 154.903 102.247 154.893 102.24 154.886Z" fill="#263238"/>
<path id="Path 138" d="M96.881 142.796C94.7911 141.059 91.7278 139.815 88.9963 140.458C88.8905 140.483 88.9282 140.631 89.0179 140.65C91.662 141.187 94.2401 142.003 96.708 143.082C96.7455 143.095 96.7864 143.095 96.8238 143.081C96.8612 143.068 96.8928 143.042 96.9132 143.009C96.9336 142.975 96.9415 142.935 96.9356 142.897C96.9298 142.858 96.9105 142.822 96.881 142.796Z" fill="#263238"/>
<path id="Path 139" d="M97.9926 144.742C95.9027 143.005 92.8395 141.761 90.1079 142.404C90.0022 142.429 90.0398 142.577 90.1287 142.596C92.7729 143.134 95.351 143.949 97.8188 145.028C97.8564 145.041 97.8975 145.041 97.9352 145.028C97.9728 145.015 98.0046 144.989 98.0252 144.956C98.0457 144.922 98.0537 144.882 98.0478 144.843C98.0418 144.804 98.0223 144.768 97.9926 144.742Z" fill="#263238"/>
<path id="Path 140" d="M99.1035 146.687C97.0127 144.95 93.9495 143.706 91.2187 144.35C91.113 144.375 91.1506 144.523 91.2396 144.541C93.8837 145.079 96.4619 145.894 98.9297 146.973C98.9674 146.987 99.0089 146.988 99.0469 146.975C99.0849 146.961 99.117 146.935 99.1377 146.901C99.1583 146.867 99.1662 146.827 99.16 146.788C99.1537 146.749 99.1337 146.713 99.1035 146.687Z" fill="#263238"/>
<path id="Path 141" d="M100.214 148.632C98.1236 146.895 95.0604 145.652 92.3288 146.295C92.223 146.32 92.2607 146.468 92.3504 146.486C94.9944 147.024 97.5725 147.84 100.04 148.918C100.078 148.932 100.12 148.933 100.158 148.92C100.196 148.907 100.228 148.881 100.249 148.847C100.269 148.813 100.277 148.773 100.271 148.733C100.264 148.694 100.244 148.658 100.214 148.632Z" fill="#263238"/>
<path id="Path 142" d="M74.843 131.911C72.4647 130.002 69.4511 133.641 71.8326 135.554C74.2142 137.466 77.2253 133.823 74.843 131.911Z" fill="white"/>
</g>
<path id="Path 143" d="M103.788 139.08C103.445 137.343 101.385 137.106 99.9709 137.483C97.5541 138.171 95.3634 139.474 93.6186 141.26C93.6106 141.268 93.6046 141.277 93.601 141.288C93.5974 141.298 93.5963 141.31 93.5979 141.321C93.5994 141.331 93.6036 141.342 93.6099 141.351C93.6163 141.36 93.6248 141.368 93.6346 141.373C93.6109 141.419 93.5985 141.47 93.5983 141.521C93.5981 141.573 93.6102 141.624 93.6335 141.67C93.6569 141.716 93.6909 141.756 93.7329 141.787C93.7748 141.817 93.8235 141.838 93.8749 141.847C96.2332 142.036 98.7309 142.527 101.079 141.997C102.453 141.69 104.115 140.725 103.788 139.08ZM97.5109 141.415C96.3486 141.349 95.1967 141.229 94.032 141.206C95.248 140.435 96.5027 139.725 97.7913 139.079C98.4197 138.776 99.0682 138.515 99.7322 138.298C100.764 137.982 104.288 137.915 102.616 140.351C101.692 141.697 98.9015 141.492 97.5133 141.415H97.5109Z" fill="#263238"/>
<path id="Path 144" d="M87.7255 137.79C89.3348 139.555 91.6642 140.573 93.7029 141.757C93.7503 141.779 93.8024 141.79 93.8549 141.788C93.9074 141.787 93.9588 141.774 94.005 141.749C94.0512 141.724 94.0909 141.689 94.1208 141.647C94.1507 141.604 94.17 141.555 94.1771 141.504C94.188 141.505 94.1989 141.504 94.2092 141.501C94.2195 141.497 94.2289 141.491 94.2366 141.484C94.2443 141.476 94.2502 141.467 94.2538 141.457C94.2573 141.447 94.2585 141.436 94.2572 141.425C93.8754 138.974 92.846 136.665 91.2725 134.73C90.3353 133.62 88.5153 132.643 87.2184 133.869C85.9904 135.031 86.7858 136.759 87.7255 137.79ZM87.4355 135.573C87.4908 132.629 90.3321 134.684 90.9905 135.529C91.4064 136.083 91.7838 136.665 92.12 137.27C92.7955 138.528 93.4065 139.819 93.9504 141.138C92.9844 140.496 91.9726 139.941 90.9865 139.334C89.8058 138.616 87.4042 137.195 87.4355 135.573Z" fill="#263238"/>
</g>
</g>
</g>
<g id="Group 58">
<path id="Path 145" d="M134.578 88.9322C132.981 99.8426 105.27 131.06 102.068 134.641L101.339 135.456L78.9507 118.066L79.215 117.738L99.4335 92.2919L40.0757 91.2362L62.8255 74.2326C62.8255 74.2326 64.6415 75.2939 68.4489 74.7925C81.5733 73.0593 111.163 69.2291 118.124 69.5892C127.105 70.0597 136.043 78.922 134.578 88.9322Z" fill="#263238"/>
<g id="Group 57">
<path id="Path 146" d="M106.699 82.828C105.95 83.6404 105.255 84.4982 104.616 85.3966C103.901 86.2975 103.174 87.1889 102.461 88.0906L102.44 88.1174C102.568 87.8529 102.694 87.5868 102.826 87.3279C103.281 86.4277 103.647 85.4968 104.182 84.6378C104.186 84.6274 104.187 84.6157 104.184 84.6048C104.181 84.5939 104.174 84.5845 104.164 84.5784C104.154 84.5723 104.142 84.5698 104.131 84.5714C104.12 84.573 104.109 84.5786 104.102 84.5872C103.552 85.44 102.916 86.2453 102.444 87.1478C102.222 87.5689 102.011 87.9977 101.814 88.4341C101.706 88.6709 101.595 88.9078 101.498 89.1534C101.448 89.2671 101.403 89.3833 101.365 89.5016C101.045 89.92 100.729 90.3409 100.422 90.7649C99.7399 91.7124 99.1399 92.7175 98.4462 93.6587C98.4093 93.7092 98.4902 93.7574 98.5263 93.7092C99.224 92.8249 100.005 92.0021 100.713 91.1249C101.434 90.2319 102.12 89.3089 102.796 88.3875C103.457 87.4842 104.104 86.5714 104.763 85.6666C105.486 84.7771 106.151 83.8438 106.755 82.8723C106.773 82.8391 106.729 82.798 106.699 82.828Z" fill="#37474F"/>
<path id="Path 147" d="M104.429 130.33C103.154 129.233 101.786 128.225 100.446 127.208C99.1056 126.191 97.747 125.173 96.3892 124.166C93.6721 122.153 90.9661 120.121 88.2185 118.144C86.7109 117.057 85.1921 115.986 83.6269 114.985C83.5572 114.94 83.4835 115.05 83.5468 115.102C86.1278 117.279 88.8714 119.257 91.5861 121.266C94.3009 123.276 97.0333 125.285 99.7825 127.258C101.288 128.337 102.786 129.452 104.355 130.438C104.419 130.475 104.485 130.377 104.429 130.33Z" fill="#37474F"/>
</g>
</g>
</g>
<g id="Group 109">
<g id="Group 68">
<g id="Group 65">
<path id="Path 148" d="M56.2417 45.4108C62.3993 56.9686 69.7057 69.2331 76.6316 71.0105C83.2194 72.7009 98.8928 56.5217 101.551 51.151C102.467 49.2986 90.0588 41.1873 88.3021 42.5501C84.9922 45.1194 77.7443 53.2615 76.7125 53.0578C75.6391 52.8407 66.886 45.1312 58.9548 38.6433C54.1469 34.7104 51.9761 37.4052 56.2417 45.4108Z" fill="#AD6359"/>
<g id="Group 64">
<g id="Group 60">
<path id="Path 149" d="M90.5441 23.7747L85.8019 40.1379C85.608 40.6164 85.8411 41.0175 86.3242 41.0325L94.9595 41.3001C95.2234 41.2883 95.4785 41.2032 95.6954 41.0545C95.9122 40.9059 96.082 40.6998 96.1851 40.46L100.927 24.0968C101.122 23.6176 100.887 23.2172 100.406 23.2022L91.7705 22.9346C91.5064 22.946 91.251 23.031 91.0339 23.1797C90.8169 23.3284 90.647 23.5347 90.5441 23.7747Z" fill="#A6A6A6"/>
<path id="Path 150" d="M91.5669 23.7984L86.8247 40.1616C86.63 40.6401 86.8639 41.0412 87.347 41.0562L95.9815 41.3238C96.2454 41.3122 96.5006 41.2271 96.7175 41.0784C96.9344 40.9297 97.1042 40.7236 97.2071 40.4837L101.95 24.1205C102.145 23.6412 101.91 23.2409 101.429 23.2259L92.7933 22.9583C92.5292 22.9697 92.2738 23.0546 92.0567 23.2033C91.8397 23.352 91.6698 23.5584 91.5669 23.7984Z" fill="#DBDBDB"/>
<path id="Path 151" d="M93.9113 24.625C93.9035 24.7678 93.8529 24.9051 93.7659 25.0196C93.6789 25.1341 93.5595 25.2206 93.4226 25.2681C93.2858 25.3157 93.1377 25.3222 92.9971 25.2868C92.8565 25.2515 92.7297 25.1758 92.6327 25.0694C92.5358 24.963 92.473 24.8306 92.4523 24.6891C92.4316 24.5475 92.454 24.4031 92.5166 24.274C92.5792 24.145 92.6792 24.0372 92.804 23.9642C92.9287 23.8911 93.0727 23.8562 93.2176 23.8638C93.3139 23.8688 93.4082 23.8924 93.4953 23.9333C93.5823 23.9743 93.6602 24.0318 93.7247 24.1025C93.7891 24.1732 93.8388 24.2557 93.8708 24.3454C93.9028 24.4351 93.9166 24.5301 93.9113 24.625Z" fill="#455A64"/>
</g>
<path id="Path 152" d="M105.546 41.8867C106.274 37.1303 105.721 35.799 108.499 32.1062C110.321 29.6837 109.534 27.4966 106.666 28.8579C101.977 31.0853 99.7288 37.0268 99.5518 39.3087L105.546 41.8867Z" fill="#AD6359"/>
<g id="Group 61">
<path id="Path 153" d="M99.3217 54.3511C99.3217 54.3511 103.825 49.1692 105.109 44.1759C105.998 40.723 107.081 32.9994 99.4218 25.5102C97.605 23.7345 93.7391 22.4727 95.6368 26.4356C96.985 29.2505 98.7025 30.6338 99.1839 32.4127C99.1839 32.4127 94.0732 31.3863 92.3389 33.2465C90.8225 34.8752 89.4257 36.6082 88.159 38.4325C88.4452 38.7371 88.7507 39.0236 89.0738 39.2899C89.0738 39.2899 87.6207 41.1849 87.9259 44.7752L99.3217 54.3511Z" fill="#AD6359"/>
</g>
<path id="Path 154" d="M105.428 40.7473C104.571 39.0821 102.696 35.5827 100.152 33.2463C97.3267 30.651 91.173 26.4015 89.2505 28.4781C87.8415 30.0004 90.0452 31.8259 90.0452 31.8259C90.0452 31.8259 87.1261 30.5981 86.1585 32.2475C85.2773 33.7477 87.0677 35.0624 87.0677 35.0624C87.0677 35.0624 85.1676 34.6178 84.6004 36.227C83.9179 38.163 88.0137 38.7773 89.0414 41.3261C89.2673 41.8978 105.428 40.7473 105.428 40.7473Z" fill="#AD6359"/>
<g id="Group 62">
<path id="Path 155" d="M97.8622 36.6464C95.8404 34.2923 93.1385 32.6017 90.1168 31.8C90.0367 31.7826 89.9846 31.8316 90.0519 31.8616C92.8353 33.1483 95.4496 34.7638 97.8373 36.6725C97.8541 36.6859 97.8742 36.663 97.8622 36.6464Z" fill="#263238"/>
</g>
<g id="Group 63">
<path id="Path 156" d="M95.1218 39.3823C92.8963 37.2353 90.1232 35.7214 87.0961 35.0009C87.016 34.9859 86.9671 35.0388 87.0352 35.0657C89.881 36.208 92.5861 37.6648 95.0986 39.4083C95.1162 39.4226 95.1362 39.3973 95.1218 39.3823Z" fill="#263238"/>
</g>
</g>
</g>
<g id="Group 67">
<g id="Group 66">
<path id="Path 157" d="M84.0274 44.6543L96.9539 58.1639C96.9539 58.1639 83.3024 73.2488 76.894 71.6697C70.4856 70.0905 58.3657 52.9914 54.4798 42.1347C51.7923 34.6227 56.0331 35.8284 60.4877 39.5117C64.9424 43.1951 76.5888 52.3361 77.0943 52.1995C77.5998 52.0629 84.0274 44.6543 84.0274 44.6543Z" fill="#4F52FF"/>
</g>
<path id="Path 158" opacity="0.1" d="M79.6501 71.5317C78.7584 71.8087 77.8097 71.8571 76.8937 71.6723C70.4853 70.0931 58.3662 52.994 54.4811 42.1373C52.71 37.1859 53.946 36.0236 56.2755 36.8653C63.2582 47.0777 72.5536 60.7643 79.6501 71.5317Z" fill="black"/>
<path id="Path 159" d="M92.7602 60.4095C90.8882 58.5469 83.5105 50.6479 82.0334 48.8343C81.9308 48.7087 81.9861 48.614 82.1135 48.7316C85.9019 52.4013 89.4816 56.2746 92.8363 60.3337C92.8756 60.3834 92.8075 60.4577 92.7602 60.4095Z" fill="#263238"/>
</g>
</g>
<g id="Group 88">
<g id="Group 72">
<g id="Group 70">
<g id="Group 69">
<path id="Path 160" d="M70.6165 81.9857C70.6165 81.9857 28.1801 89.6352 27.9622 89.3793C27.7667 89.1559 32.6323 43.906 47.036 36.2581C49.3198 35.0461 54.8318 34.3315 57.1837 36.6987C63.8925 43.4472 71.1732 81.3722 70.6165 81.9857Z" fill="#4F52FF"/>
</g>
</g>
<g id="Group 71">
<path id="Path 161" d="M70.1738 78.2344L28.3813 85.3011C28.5416 84.0576 28.749 82.5724 29.0102 80.9032L69.4032 74.0718C69.7124 75.6501 69.9703 77.0588 70.1738 78.2344Z" fill="#EBEBEB"/>
<path id="Path 162" d="M68.953 71.864L29.3811 78.5565C29.5034 77.8164 29.6369 77.0531 29.7816 76.2667L68.4972 69.7195C68.6606 70.4514 68.8128 71.1715 68.953 71.864Z" fill="#EBEBEB"/>
</g>
</g>
<g id="Group 87">
<g id="Group 86">
<g id="Group 74">
<g id="Group 73">
<path id="Path 163" d="M55.3091 43.5892C52.9411 43.5781 49.9228 39.2867 49.0745 36.19C49.0176 35.9768 49.7954 34.07 50.6253 31.7092C51.1252 30.2745 51.6458 28.6654 52.0151 27.1636L61.0117 31.7297C60.0059 33.4783 59.2209 35.3416 58.6743 37.2781C58.6258 37.4855 58.5971 37.697 58.5885 37.9097C58.5885 37.9389 58.5886 37.9753 58.5773 38.0155C58.4844 39.2331 57.5985 43.5994 55.3091 43.5892Z" fill="#AD6359"/>
</g>
<path id="Path 164" d="M61.0159 31.7298C60.0081 33.4787 59.2222 35.3432 58.6761 37.2813C58.6264 37.4885 58.5979 37.7001 58.5912 37.9129C58.5905 37.9472 58.5862 37.9814 58.5783 38.0148C58.2412 37.9861 57.9077 37.925 57.5826 37.8324C52.0554 36.3835 52.1475 29.226 52.2789 27.2979L61.0159 31.7298Z" fill="#263238"/>
</g>
<g id="Group 85">
<g id="Group 75">
<path id="Path 165" d="M51.626 16.8226C50.1841 20.1238 50.9123 30.1917 53.1312 32.6599C56.3474 36.2383 62.1646 37.1795 65.3873 33.2442C68.5114 29.4298 67.3306 16.3251 64.8009 14.0267C61.0752 10.6402 53.7536 11.9461 51.626 16.8226Z" fill="#AD6359"/>
</g>
<g id="Group 80">
<g id="Group 76">
<path id="Path 166" d="M60.9493 24.067C60.9421 24.0417 60.8988 24.1033 60.902 24.1309C60.9869 24.8013 60.9685 25.583 60.3725 25.8617C60.3533 25.8704 60.3589 25.9035 60.3813 25.8988C61.1247 25.7259 61.1375 24.686 60.9493 24.067Z" fill="#263238"/>
<path id="Path 167" d="M60.2749 23.4202C59.1703 23.4376 59.2864 25.6137 60.3102 25.5979C61.3171 25.5813 61.201 23.4052 60.2749 23.4202Z" fill="#263238"/>
</g>
<g id="Group 77">
<path id="Path 168" d="M64.966 23.8501C64.97 23.8241 65.0212 23.8786 65.0212 23.907C65.0356 24.5821 65.1678 25.3535 65.7983 25.5454C65.8183 25.5509 65.8183 25.5856 65.7983 25.5833C65.034 25.5169 64.8698 24.4913 64.966 23.8501Z" fill="#263238"/>
<path id="Path 169" d="M65.5393 23.1136C66.6351 22.9746 66.8378 25.1444 65.8221 25.2739C64.8232 25.401 64.6213 23.2344 65.5393 23.1136Z" fill="#263238"/>
</g>
<path id="Path 170" d="M59.3495 22.4703C59.6353 22.3714 59.9155 22.2575 60.189 22.1292C60.5015 22.0497 60.7786 21.8707 60.9772 21.62C61.024 21.5293 61.0391 21.426 61.0201 21.326C61.0012 21.226 60.9492 21.1351 60.8723 21.0672C60.6997 20.9556 60.5 20.8915 60.2938 20.8815C60.0876 20.8715 59.8824 20.916 59.6996 21.0104C59.299 21.1446 58.9634 21.421 58.7583 21.7858C58.7166 21.8715 58.701 21.9674 58.7134 22.0618C58.7258 22.1561 58.7657 22.2449 58.8283 22.3174C58.8908 22.3898 58.9734 22.4428 59.0659 22.47C59.1584 22.4971 59.2569 22.4972 59.3495 22.4703Z" fill="#263238"/>
<path id="Path 171" d="M66.3304 21.9744C66.0311 21.9304 65.7343 21.8708 65.4413 21.7959C65.1189 21.7766 64.8121 21.6524 64.5689 21.443C64.5057 21.3624 64.4714 21.2634 64.4714 21.1615C64.4714 21.0596 64.5057 20.9606 64.5689 20.88C64.7171 20.7381 64.901 20.6378 65.1017 20.5895C65.3024 20.5412 65.5126 20.5466 65.7104 20.6053C66.1298 20.6625 66.5124 20.8716 66.7838 21.1919C66.8417 21.2686 66.8755 21.3603 66.8814 21.4557C66.8872 21.5512 66.8646 21.6462 66.8166 21.7292C66.7685 21.8122 66.6969 21.8796 66.6105 21.9231C66.5242 21.9667 66.4269 21.9845 66.3304 21.9744Z" fill="#263238"/>
<path id="Path 172" d="M60.5446 30.0605C60.6839 30.2405 60.8153 30.4782 61.0572 30.5342C61.3101 30.5649 61.5667 30.5426 61.8102 30.4687C61.8152 30.4674 61.8205 30.4677 61.8253 30.4696C61.8301 30.4715 61.8341 30.4749 61.8368 30.4792C61.8395 30.4836 61.8407 30.4886 61.8403 30.4937C61.8398 30.4988 61.8377 30.5036 61.8343 30.5074C61.7183 30.625 61.5721 30.7096 61.4114 30.7521C61.2507 30.7946 61.0812 30.7935 60.9211 30.749C60.788 30.6939 60.6744 30.6012 60.5948 30.4826C60.5151 30.364 60.4728 30.2248 60.4733 30.0826C60.4701 30.0415 60.5237 30.0344 60.5446 30.0605Z" fill="#263238"/>
<g id="Group 79">
<g id="Group 78">
<path id="Path 173" d="M61.3054 28.0774C61.4932 28.3352 61.7331 28.5519 62.0101 28.7138C62.2871 28.8757 62.5951 28.9791 62.9147 29.0177C63.1934 29.0556 63.4762 29.0535 63.7543 29.0114C63.8095 29.0114 64.0082 28.9688 64.0627 28.9546C64.0986 28.9457 64.1307 28.9254 64.154 28.8969C64.1773 28.8684 64.1905 28.8332 64.1916 28.7967V28.7919C64.1916 28.7667 64.0699 27.3525 64.0699 27.3525C64.2669 27.4378 65.2714 27.8208 65.241 27.5507C65.0545 25.2142 64.6272 22.9026 63.9657 20.6514C63.962 20.6357 63.9522 20.622 63.9385 20.6133C63.9248 20.6045 63.9081 20.6013 63.8921 20.6044C63.876 20.6075 63.8618 20.6165 63.8524 20.6297C63.843 20.6429 63.8391 20.6591 63.8416 20.6751C64.0018 22.8354 64.5457 24.953 64.7411 27.1212C64.3838 26.979 64.0079 26.8875 63.6245 26.8496C63.5844 26.8606 63.8199 28.6103 63.8159 28.6253C63.3868 28.6906 62.9487 28.67 62.5279 28.5647C62.107 28.4595 61.7119 28.2717 61.3663 28.0126C61.3094 27.9779 61.2582 28.026 61.3054 28.0774Z" fill="#263238"/>
</g>
</g>
</g>
<g id="Group 81">
<path id="Path 174" d="M63.5292 28.9147C63.2265 29.3057 62.8267 29.6132 62.3684 29.8077C62.1154 29.9056 61.8377 29.9236 61.5738 29.8591C60.9986 29.7122 60.9826 29.1927 61.086 28.7481C61.1434 28.5115 61.2291 28.2825 61.3415 28.0659C61.9601 28.5718 62.7267 28.8692 63.5292 28.9147Z" fill="#263238"/>
<path id="Path 175" d="M62.3689 29.8045C62.1159 29.9024 61.8382 29.9204 61.5743 29.8558C60.9991 29.7089 60.9831 29.1894 61.0864 28.7449C61.3899 28.7537 61.6816 28.8631 61.9142 29.0553C62.1469 29.2476 62.3071 29.5115 62.3689 29.8045Z" fill="#FF9CBD"/>
</g>
<g id="Group 82">
<path id="Path 176" d="M50.6864 25.916C53.3491 26.1197 54.7622 22.9993 54.1574 20.4766C54.1574 20.4766 61.2323 21.4541 61.6136 15.8528C62.1759 16.6276 62.9076 17.2681 63.7545 17.7272C64.6015 18.1862 65.5421 18.452 66.5072 18.505L66.9742 20.4734C67.7023 20.2713 68.4906 18.2421 66.7251 16.6329C66.6113 14.9172 65.8313 13.3108 64.547 12.1473C63.9863 11.6621 63.2953 11.3469 62.5572 11.2397C61.819 11.1326 61.0651 11.238 60.3863 11.5433C59.1601 10.6547 57.6311 10.2715 56.1232 10.475C55.3366 10.5936 54.5901 10.8957 53.9459 11.3562C53.3018 11.8167 52.7786 12.4223 52.4199 13.1224C52.4199 13.1224 48.9073 13.7541 48.2905 16.2097C48.1014 16.9013 48.0625 17.6245 48.1762 18.332C48.29 19.0395 48.5538 19.7153 48.9506 20.3155C48.9506 20.3155 48.063 21.274 48.4939 23.3735C48.7735 24.7237 49.887 25.8544 50.6864 25.916Z" fill="#263238"/>
<path id="Path 177" d="M61.4603 15.353C61.5105 15.8077 61.5124 16.2663 61.4659 16.7214C61.4322 17.1713 61.3426 17.6155 61.1992 18.0439C60.9236 18.8922 60.3327 19.6064 59.545 20.0431C58.735 20.4517 57.8387 20.6665 56.9288 20.67C56.4706 20.6527 56.0068 20.67 55.5462 20.625C55.0856 20.58 54.625 20.5161 54.158 20.4758C54.6098 20.5879 55.068 20.6795 55.527 20.783C55.9892 20.8619 56.4618 20.8722 56.932 20.9188C57.8932 20.9532 58.8477 20.7488 59.7076 20.3242C60.5556 19.84 61.1775 19.0479 61.4403 18.1173C61.6821 17.2121 61.689 16.2615 61.4603 15.353Z" fill="#263238"/>
<path id="Path 178" d="M65.0866 18.6187C64.3131 18.3533 63.59 17.9626 62.947 17.4627C62.6347 17.2145 62.358 16.9258 62.1243 16.6044C61.8885 16.2723 61.6916 15.915 61.5371 15.5393C61.5741 15.9601 61.7013 16.3684 61.9104 16.7371C62.1187 17.1127 62.4002 17.4441 62.7387 17.7122C63.0729 17.9788 63.4475 18.192 63.8489 18.3439C64.2431 18.5029 64.6614 18.5958 65.0866 18.6187Z" fill="#263238"/>
</g>
<g id="Group 83">
<path id="Path 179" d="M59.6035 27.4675C59.0466 27.4411 58.5084 27.2612 58.0502 26.9481C57.5919 26.6351 57.232 26.2016 57.0114 25.6969C56.7908 25.1922 56.7183 24.6366 56.8023 24.0933C56.8862 23.55 57.1232 23.0409 57.4862 22.6238C57.8492 22.2067 58.3237 21.8984 58.8557 21.734C59.3877 21.5696 59.9559 21.5557 60.4955 21.6939C61.0351 21.8321 61.5246 22.1168 61.9081 22.5156C62.2917 22.9145 62.554 23.4114 62.6651 23.95C62.8214 24.7125 62.6647 25.505 62.2292 26.1538C61.7938 26.8027 61.1152 27.2549 60.3421 27.4115C60.0993 27.4608 59.8511 27.4797 59.6035 27.4675ZM59.8727 21.9958C59.3357 21.9702 58.8041 22.1106 58.3522 22.3974C57.9002 22.6842 57.5503 23.103 57.3516 23.5953C57.1529 24.0876 57.1152 24.6288 57.2437 25.1433C57.3723 25.6577 57.6607 26.1198 58.0687 26.4648C58.4766 26.8098 58.9837 27.0206 59.5192 27.0676C60.0546 27.1147 60.5915 26.9957 61.055 26.7273C61.5184 26.4588 61.8852 26.0544 62.1041 25.5705C62.323 25.0866 62.383 24.5473 62.2758 24.0281C62.1613 23.4744 61.8628 22.9741 61.4277 22.6062C60.9925 22.2383 60.4453 22.023 59.8727 21.9958Z" fill="#FFC727"/>
<path id="Path 180" d="M66.4202 26.9716C65.282 26.9171 64.3063 25.7185 64.1997 24.1907C64.1364 23.4612 64.3061 22.7304 64.6852 22.1007C64.8314 21.8208 65.0484 21.5829 65.3152 21.4099C65.582 21.237 65.8896 21.1348 66.2083 21.1134C66.5269 21.0919 66.8457 21.1519 67.1339 21.2875C67.4221 21.4232 67.6699 21.6298 67.8533 21.8875C68.3162 22.46 68.5854 23.1611 68.6231 23.8923C68.7345 25.5069 67.8349 26.8871 66.6149 26.9716C66.5501 26.975 66.4851 26.975 66.4202 26.9716ZM66.3866 21.5038C66.3362 21.5009 66.2856 21.5009 66.2352 21.5038C65.9825 21.5325 65.7405 21.6205 65.5294 21.7605C65.3184 21.9005 65.1445 22.0884 65.0224 22.3083C64.6883 22.8679 64.5396 23.5163 64.5971 24.1631C64.694 25.5622 65.584 26.6463 66.5885 26.5776C67.593 26.5089 68.3235 25.3143 68.2266 23.9183C68.1949 23.2696 67.9579 22.647 67.5489 22.1378C67.4108 21.9579 67.2361 21.8085 67.0359 21.6992C66.8357 21.5899 66.6146 21.5238 66.3866 21.5038Z" fill="#FFC727"/>
<path id="Path 181" d="M62.5935 24.2959L62.3171 24.0132C62.7417 23.6098 63.7494 23.0381 64.5272 23.7542L64.2557 24.0409C63.5548 23.3982 62.6295 24.2596 62.5935 24.2959Z" fill="#FFC727"/>
<path id="Path 182" d="M50.0001 26.01L49.634 25.8521C49.7085 25.6839 50.3806 24.2058 51.2578 24.0037C52.078 23.8174 56.8419 23.8821 57.0694 23.8876L57.059 24.2824C55.1549 24.2155 53.2485 24.2508 51.3483 24.3882C50.7691 24.5193 50.1787 25.6042 50.0001 26.01Z" fill="#FFC727"/>
</g>
<g id="Group 84">
<path id="Path 183" d="M53.2 25.7383C53.2 25.7383 51.223 22.3391 49.6754 23.0055C48.1278 23.6719 49.4134 28.4592 51.0836 29.2432C51.2907 29.359 51.5195 29.4323 51.7561 29.4585C51.9927 29.4848 52.2323 29.4635 52.4603 29.396C52.6883 29.3285 52.9001 29.2161 53.0829 29.0657C53.2656 28.9152 53.4156 28.7299 53.5236 28.5207L53.2 25.7383Z" fill="#AD6359"/>
<path id="Path 184" d="M50.0805 24.369C50.075 24.3686 50.0696 24.37 50.0651 24.3731C50.0606 24.3761 50.0573 24.3806 50.0557 24.3857C50.0541 24.3908 50.0544 24.3964 50.0564 24.4014C50.0584 24.4064 50.0621 24.4105 50.0668 24.4132C50.5979 24.7355 51.0544 25.1639 51.4069 25.671C51.7595 26.178 52.0002 26.7523 52.1135 27.3567C52.054 27.2308 51.9675 27.1192 51.86 27.0294C51.7525 26.9397 51.6264 26.874 51.4907 26.837C51.3549 26.7999 51.2126 26.7923 51.0735 26.8147C50.9345 26.8371 50.802 26.8889 50.6852 26.9667C50.6516 26.9864 50.678 27.0377 50.7117 27.0338C50.9304 26.9856 51.1589 27.0052 51.3658 27.09C51.5728 27.1748 51.748 27.3207 51.8676 27.5075C52.0638 27.8225 52.2249 28.1574 52.3482 28.5064C52.3955 28.6185 52.5958 28.579 52.5661 28.4519L52.5589 28.4234C52.7319 26.9067 51.7258 24.669 50.0805 24.369Z" fill="#263238"/>
</g>
</g>
</g>
<path id="Path 185" d="M58.72 39.0854C58.7192 39.0817 58.7171 39.0785 58.7141 39.0761C58.7111 39.0737 58.7074 39.0725 58.7036 39.0725C58.6997 39.0725 58.696 39.0737 58.693 39.0761C58.6901 39.0785 58.688 39.0817 58.6871 39.0854C58.5918 40.9875 58.2394 45.3855 55.1305 44.7822C53.9004 44.443 52.7921 43.769 51.9327 42.8375C50.2578 41.0954 48.8579 39.1151 47.78 36.963C47.7544 36.9109 47.6807 36.9496 47.6999 37.0057C48.0755 38.1209 48.5835 39.1884 49.2131 40.1861C49.9133 41.3392 50.77 42.3925 51.7597 43.3168C52.6809 44.2795 53.8704 44.9522 55.1786 45.2505C55.7493 45.3448 56.3355 45.2452 56.8413 44.968C57.3471 44.6909 57.7423 44.2526 57.9622 43.725C58.5777 42.2577 58.8372 40.669 58.72 39.0854Z" fill="#263238"/>
</g>
</g>
<g id="Group 100">
<g id="Group 99">
<g id="Group 96">
<path id="Path 186" d="M42.2758 39.8734C35.6495 45.5986 18.6672 68.1245 22.8375 72.952C27.0374 77.8134 53.2165 74.4285 60.7536 71.7621C62.9966 70.9725 56.2029 57.0144 53.7188 56.4585C51.6513 55.9958 40.4542 59.7645 40.2067 59.1265C39.9263 58.4064 42.142 53.5102 45.6538 44.5983C49.6959 34.3211 45.2028 37.3452 42.2758 39.8734Z" fill="#AD6359"/>
<g id="Group 95">
<g id="Group 94">
<path id="Path 187" d="M64.7817 53.2664C70.0551 53.0667 71.4401 53.8128 75.8002 51.3154C78.6615 49.6762 80.9509 50.7729 79.1213 53.647C76.1286 58.3466 69.3798 60.0126 66.8717 59.9265L64.7817 53.2664Z" fill="#AD6359"/>
<g id="Group 89">
<path id="Path 188" d="M50.4641 56.8354C54.2429 55.2695 58.1911 54.1349 62.2315 53.4536C66.1038 52.9278 74.6558 52.7091 81.8997 61.7205C83.618 63.8579 84.5288 68.105 80.4362 65.6187C77.5292 63.8524 76.2267 61.8658 74.3482 61.1425C74.3482 61.1425 74.8553 66.6806 72.6156 68.293C70.6574 69.7037 68.5996 70.975 66.4579 72.0971C66.1597 71.7577 65.8838 71.3999 65.632 71.0257C65.632 71.0257 63.3955 72.338 59.5136 71.5784L50.4641 56.8354Z" fill="#AD6359"/>
</g>
<g id="Group 93">
<path id="Path 189" d="M66.0093 53.5325C67.7219 54.6379 71.3122 57.0477 73.5544 60.0236C76.0441 63.3295 79.9372 70.3584 77.4419 72.1452C75.6131 73.4551 73.8876 70.9 73.8876 70.9C73.8876 70.9 74.8753 74.1373 72.96 74.9671C71.2153 75.7212 70.0009 73.6651 70.0009 73.6651C70.0009 73.6651 70.2573 75.7322 68.4349 76.1389C66.2424 76.6284 66.0646 72.217 63.4099 70.8211C62.8123 70.5076 66.0093 53.5325 66.0093 53.5325Z" fill="#AD6359"/>
<g id="Group 92">
<g id="Group 90">
<path id="Path 190" d="M69.5713 62.0347C71.8947 64.4598 73.4129 67.5254 73.9234 70.8227C73.933 70.9064 73.8738 70.9593 73.8481 70.8835C72.7804 67.7802 71.3335 64.8164 69.5393 62.0576C69.5273 62.0387 69.5553 62.0197 69.5713 62.0347Z" fill="#263238"/>
</g>
<g id="Group 91">
<path id="Path 191" d="M66.258 64.6089C68.3313 67.2247 69.6486 70.3444 70.0702 73.6377C70.0766 73.7222 70.0141 73.7704 69.9901 73.6946C69.0868 70.5428 67.8238 67.5022 66.2252 64.631C66.2131 64.6105 66.2436 64.5931 66.258 64.6089Z" fill="#263238"/>
</g>
</g>
</g>
</g>
<path id="Path 192" d="M74.3514 61.1086C75.8323 61.7761 77.1838 62.6928 78.3454 63.8176C78.9971 64.3807 79.6798 64.9079 80.3905 65.3967C81.0434 65.8334 82.0046 66.4903 82.7985 65.9866C82.9884 65.8248 83.1305 65.6156 83.21 65.3809C83.2895 65.1462 83.3034 64.8948 83.2503 64.653C83.1126 63.9544 82.8633 63.2817 82.5117 62.6601C82.4981 62.6364 82.5389 62.6127 82.5525 62.6364C82.8967 63.2038 83.1804 63.8047 83.3993 64.4295C83.5406 64.857 83.5475 65.3166 83.4193 65.7481C83.0764 66.6451 81.9622 66.6569 81.2076 66.3261C80.7596 66.1126 80.3345 65.8552 79.9387 65.5578C79.551 65.2846 79.1777 64.9941 78.8116 64.694C78.0603 64.0774 77.3457 63.4197 76.6023 62.7943C75.877 62.2035 75.1144 61.6584 74.3193 61.1623C74.2897 61.1417 74.3194 61.092 74.3514 61.1086Z" fill="#263238"/>
<path id="Path 193" d="M77.3017 67.3375C76.4436 65.2111 75.445 63.1424 74.3121 61.1449C74.3081 61.1399 74.3063 61.1334 74.307 61.1271C74.3078 61.1207 74.3111 61.1149 74.3162 61.1109C74.3213 61.107 74.3278 61.1051 74.3342 61.1059C74.3407 61.1066 74.3466 61.1098 74.3506 61.1149C75.7222 62.9528 76.8554 64.9525 77.7238 67.0675C78.201 68.2175 78.437 69.4509 78.4175 70.6932C78.436 71.1959 78.2558 71.686 77.9147 72.0601C77.5737 72.4343 77.0986 72.6633 76.5895 72.6988C76.0643 72.7378 75.5413 72.5985 75.1076 72.304C74.6022 71.9254 74.181 71.4487 73.87 70.9033C73.8539 70.8772 73.89 70.8488 73.9084 70.8741C74.176 71.2937 74.5377 71.6472 74.9657 71.9073C75.3938 72.1674 75.8767 72.3272 76.3773 72.3743C76.5919 72.3748 76.8046 72.3332 77.0028 72.2518C77.201 72.1705 77.3807 72.0511 77.5316 71.9005C77.8367 71.5065 77.988 71.0175 77.9577 70.5227C77.9247 69.4319 77.7028 68.3547 77.3017 67.3375Z" fill="#263238"/>
</g>
</g>
<g id="Group 98">
<path id="Path 194" d="M50.4646 56.8351L56.9339 74.6424C56.9339 74.6424 24.1477 78.5698 21.9416 72.7948C19.7355 67.0198 34.3795 46.7198 40.6285 41.0048C47.8708 34.3811 48.4499 36.9346 46.3616 43.2338C44.1747 49.8284 40.2856 59.2946 40.2856 59.2946L50.4646 56.8351Z" fill="#4F52FF"/>
<g id="Group 97">
<path id="Path 195" d="M30.0753 62.8558C31.6685 61.9902 33.3232 61.2397 35.0266 60.6102C36.712 59.9941 38.441 59.5012 40.1998 59.1353C41.2019 58.9158 42.2104 58.7405 43.2206 58.5652C43.2269 58.5643 43.2334 58.5659 43.2386 58.5696C43.2438 58.5734 43.2472 58.579 43.2482 58.5853C43.2491 58.5916 43.2475 58.598 43.2437 58.6031C43.2399 58.6082 43.2341 58.6116 43.2278 58.6126C41.4615 58.9902 39.7187 59.4676 38.0081 60.0425C36.3035 60.5978 34.6109 61.1832 32.9303 61.7985C31.9786 62.1475 31.0438 62.5407 30.105 62.9197C30.0966 62.9221 30.0877 62.9215 30.0799 62.9179C30.072 62.9144 30.0657 62.9081 30.0621 62.9004C30.0585 62.8926 30.0579 62.8838 30.0603 62.8756C30.0627 62.8675 30.068 62.8604 30.0753 62.8558Z" fill="#263238"/>
<path id="Path 196" d="M50.382 56.7767C50.2162 56.8027 41.1579 58.7893 40.8567 58.8928C40.9072 58.7664 42.9475 54.3258 43.2519 53.676C43.2823 53.6113 43.3095 53.5457 43.3384 53.481C43.529 53.1967 43.7213 52.9133 43.8991 52.6219C44.1282 52.2485 44.3549 51.8718 44.5824 51.4968C44.5888 51.4849 44.5728 51.4731 44.5648 51.4841C44.3213 51.8484 44.078 52.2129 43.835 52.5777C43.7229 52.7467 43.6172 52.9188 43.5146 53.0917C43.7173 52.6314 43.9151 52.1703 44.1114 51.706C44.4246 50.9662 44.7138 50.2185 45.0014 49.4684C45.011 49.4447 44.9741 49.432 44.9629 49.4549C44.3613 50.7491 43.7189 52.0242 43.1133 53.3168C42.5077 54.6093 40.2015 59.3633 40.2159 59.361C40.2311 59.3752 50.2154 56.9567 50.4101 56.8991C50.4265 56.8954 50.4408 56.8854 50.4498 56.8714C50.4589 56.8573 50.4618 56.8403 50.4581 56.824C50.4544 56.8078 50.4443 56.7937 50.43 56.7848C50.4158 56.776 50.3985 56.773 50.382 56.7767Z" fill="#263238"/>
<path id="Path 197" d="M49.8456 67.9231C49.1367 65.9365 48.443 63.9436 47.6588 61.9831C47.2134 60.869 46.7736 59.7526 46.317 58.6424C46.3002 58.6006 46.2249 58.6235 46.2369 58.6677C46.8689 60.689 47.5066 62.7151 48.2323 64.708C48.9581 66.7009 49.659 68.6788 50.408 70.6527C50.8352 71.7755 51.2945 72.8835 51.7858 73.9768C51.7954 73.9981 51.833 73.9863 51.8266 73.9634C51.2643 71.9192 50.5594 69.9223 49.8456 67.9231Z" fill="#263238"/>
<path id="Path 198" d="M57.3169 74.9495C57.0486 74.3968 56.7201 73.6002 56.4294 73.0546C56.3493 72.9109 56.2443 72.9282 56.3028 73.0767C56.4983 73.5757 56.6464 74.13 56.8387 74.6416C56.3797 74.6858 55.9191 74.7206 55.4609 74.768C54.9298 74.824 54.3995 74.8824 53.8684 74.9369C52.8292 75.0422 51.7878 75.138 50.7443 75.2243C48.6349 75.3964 46.5225 75.5246 44.4072 75.6088C40.165 75.7994 35.9156 75.7731 31.6761 75.5299C30.4913 75.4557 29.3066 75.3585 28.1274 75.2259C26.9624 75.1147 25.8039 74.9448 24.6565 74.7166C24.6252 74.7095 24.614 74.7616 24.6453 74.7711C25.6234 75.0779 26.6247 75.3081 27.6396 75.4596C28.7034 75.6175 29.7715 75.7441 30.8438 75.8394C32.9778 76.0257 35.1214 76.1008 37.2626 76.1181C41.5098 76.1534 45.7538 76.012 49.9945 75.6941C51.1811 75.6062 52.3667 75.5049 53.5512 75.3901C54.1488 75.3317 54.7464 75.2741 55.3423 75.2046C56.0068 75.1759 56.6674 75.0906 57.3169 74.9495Z" fill="#263238"/>
</g>
</g>
</g>
</g>
<g id="Group 108">
<g id="Group 107">
<g id="Group 103">
<g id="Group 101">
<path id="Rectangle 23" d="M99.5576 74.554H58.2803V76.3763H99.5576V74.554Z" fill="#C7C7C7"/>
</g>
<g id="Group 102">
<path id="Path 199" d="M99.5567 74.554V76.3763H71.4983L72.9129 74.554H99.5567Z" fill="#A6A6A6"/>
</g>
</g>
<g id="Group 106">
<g id="Group 104">
<path id="Path 200" d="M77.1736 76.3763H113.301L118.529 51.2527H82.4012L77.1736 76.3763Z" fill="#A6A6A6"/>
</g>
<g id="Group 105">
<path id="Path 201" d="M78.8625 76.3763H114.99L120.218 51.2527H84.0902L78.8625 76.3763Z" fill="#C7C7C7"/>
</g>
<path id="Path 202" d="M102.797 62.8792C102.828 63.4392 102.667 63.9933 102.341 64.4527C102.014 64.9121 101.541 65.2502 100.997 65.4129C100.746 65.4541 100.488 65.4381 100.244 65.3662C100.001 65.2943 99.7768 65.1684 99.5899 64.9981C99.4031 64.8278 99.2582 64.6176 99.1665 64.3837C99.0747 64.1497 99.0384 63.8982 99.0605 63.6483C99.0292 63.0882 99.1896 62.5341 99.516 62.0746C99.8424 61.6152 100.316 61.2771 100.86 61.1145C101.111 61.0732 101.369 61.0891 101.613 61.1609C101.857 61.2327 102.081 61.3586 102.267 61.529C102.454 61.6993 102.599 61.9096 102.691 62.1436C102.783 62.3776 102.819 62.6293 102.797 62.8792Z" fill="white"/>
</g>
</g>
</g>
</g>
<g id="Group 117">
<g id="Group 116">
<g id="Group 113">
<path id="Path 203" d="M183.681 128.527C183.143 129.908 157.219 160.891 155.473 161.457C154.812 161.675 150.013 158.22 144.338 153.877C143.112 152.94 141.855 151.965 140.577 150.967C132.296 144.5 123.662 137.449 123.662 137.449L140.942 116.674L157.381 130.764L160.992 133.853C160.992 133.853 176.3 126.367 178.283 125.949C180.265 125.531 184.22 127.146 183.681 128.527Z" fill="#AD6359"/>
<path id="Path 204" d="M183.682 128.527C183.143 129.908 157.22 160.891 155.474 161.457C154.667 161.718 147.751 156.562 140.574 150.965L157.381 130.766L160.992 133.856C160.992 133.856 176.3 126.37 178.283 125.951C180.265 125.533 184.223 127.146 183.682 128.527Z" fill="#EBEBEB"/>
<g id="Group 112">
<path id="Path 205" d="M183.68 128.527C183.142 129.908 157.218 160.891 155.472 161.457C154.811 161.675 150.012 158.22 144.337 153.877L160.991 133.853C160.991 133.853 176.299 126.367 178.282 125.948C180.264 125.53 184.221 127.146 183.68 128.527Z" fill="#FF6F35"/>
<g id="Group 111">
<g id="Group 110">
<path id="Path 206" d="M182.051 127.948C177.576 133.037 160.014 153.977 155.983 159.342C155.951 159.385 155.979 159.409 156.016 159.369C160.563 154.421 177.953 133.341 182.138 128.019C182.227 127.906 182.146 127.842 182.051 127.948Z" fill="#263238"/>
<path id="Path 207" d="M175.483 127.019C174.984 127.584 174.61 128.245 174.384 128.959C174.158 129.674 174.085 130.427 174.17 131.171C174.312 132.511 174.972 133.746 176.012 134.619C176.045 134.644 176.093 134.588 176.065 134.557C175.169 133.533 174.635 132.249 174.542 130.9C174.449 129.55 174.803 128.207 175.55 127.073C175.558 127.064 175.561 127.053 175.56 127.041C175.558 127.03 175.553 127.02 175.544 127.013C175.535 127.006 175.524 127.002 175.512 127.003C175.501 127.005 175.49 127.01 175.483 127.019Z" fill="#263238"/>
<path id="Path 208" d="M163.201 132.264C161.432 134.317 160.157 137.335 160.804 140.028C160.829 140.132 160.978 140.095 160.998 140.008C161.552 137.405 162.388 134.868 163.49 132.439C163.505 132.402 163.506 132.361 163.493 132.323C163.481 132.285 163.455 132.253 163.42 132.232C163.385 132.211 163.344 132.202 163.304 132.208C163.264 132.214 163.227 132.234 163.201 132.264Z" fill="#263238"/>
<path id="Path 209" d="M165.178 131.175C163.409 133.228 162.134 136.246 162.78 138.939C162.805 139.044 162.956 139.007 162.975 138.92C163.529 136.316 164.364 133.779 165.466 131.351C165.482 131.314 165.484 131.272 165.471 131.234C165.459 131.195 165.433 131.162 165.398 131.141C165.363 131.12 165.322 131.112 165.282 131.118C165.241 131.124 165.204 131.145 165.178 131.175Z" fill="#263238"/>
<path id="Path 210" d="M167.156 130.087C165.387 132.139 164.112 135.157 164.758 137.85C164.783 137.955 164.933 137.918 164.953 137.831C165.507 135.227 166.342 132.69 167.445 130.262C167.46 130.225 167.461 130.183 167.448 130.145C167.436 130.107 167.41 130.075 167.375 130.054C167.34 130.033 167.299 130.025 167.259 130.031C167.219 130.037 167.182 130.057 167.156 130.087Z" fill="#263238"/>
<path id="Path 211" d="M169.129 128.998C167.36 131.051 166.085 134.068 166.732 136.762C166.756 136.866 166.907 136.83 166.926 136.742C167.48 134.138 168.316 131.601 169.418 129.173C169.433 129.136 169.435 129.095 169.422 129.057C169.409 129.019 169.383 128.986 169.349 128.965C169.314 128.944 169.273 128.936 169.233 128.942C169.193 128.948 169.156 128.968 169.129 128.998Z" fill="#263238"/>
<path id="Path 212" d="M152.085 153.952C150.141 156.289 153.823 159.272 155.77 156.93C157.717 154.588 154.032 151.61 152.085 153.952Z" fill="white"/>
</g>
<path id="Path 213" d="M159.452 125.443C157.69 125.775 157.443 127.805 157.82 129.201C158.51 131.585 159.825 133.749 161.632 135.474C161.64 135.482 161.649 135.488 161.66 135.491C161.671 135.495 161.682 135.496 161.693 135.494C161.704 135.493 161.715 135.489 161.724 135.482C161.733 135.476 161.741 135.468 161.746 135.458C161.793 135.481 161.844 135.494 161.897 135.494C161.949 135.494 162.001 135.482 162.047 135.459C162.094 135.436 162.135 135.402 162.166 135.361C162.197 135.32 162.218 135.272 162.227 135.221C162.426 132.897 162.933 130.436 162.402 128.121C162.095 126.77 161.122 125.129 159.452 125.443ZM161.801 131.637C161.731 132.783 161.605 133.917 161.577 135.066C160.799 133.865 160.083 132.626 159.432 131.355C159.126 130.734 158.864 130.094 158.646 129.438C158.325 128.42 158.271 124.947 160.739 126.606C162.099 127.52 161.887 130.272 161.8 131.637H161.801Z" fill="#263238"/>
<path id="Path 214" d="M158.092 141.274C159.889 139.695 160.928 137.401 162.136 135.396C162.159 135.349 162.17 135.298 162.169 135.246C162.168 135.194 162.155 135.143 162.13 135.098C162.105 135.052 162.07 135.013 162.027 134.983C161.984 134.953 161.934 134.934 161.882 134.927C161.883 134.916 161.882 134.905 161.879 134.895C161.875 134.885 161.869 134.876 161.861 134.868C161.854 134.86 161.844 134.855 161.834 134.851C161.824 134.848 161.813 134.846 161.802 134.848C159.314 135.217 156.969 136.224 155.001 137.769C153.872 138.69 152.873 140.481 154.114 141.763C155.283 142.975 157.044 142.196 158.092 141.274ZM155.841 141.553C152.855 141.488 154.949 138.694 155.808 138.049C156.372 137.641 156.964 137.272 157.579 136.943C158.859 136.28 160.172 135.68 161.513 135.146C160.857 136.094 160.292 137.092 159.67 138.068C158.937 139.226 157.487 141.588 155.841 141.553Z" fill="#263238"/>
</g>
</g>
</g>
<g id="Group 115">
<path id="Path 215" d="M156.53 127.587L137.292 150.065L79.2547 109.332L73.54 105.318C73.54 105.318 71.8946 106.382 69.421 107.692C65.9853 109.508 60.9555 111.804 56.5241 112.393C49.0895 113.387 37.9013 113.136 31.7492 104.817C26.5672 97.8131 28.3399 88.7772 28.3399 88.7772L36.5299 85.4262C36.5299 85.4262 56.0066 69.8226 68.5022 69.4957C73.81 69.3512 81.4848 73.4065 88.5877 77.6323C95.6907 81.8581 156.53 127.587 156.53 127.587Z" fill="#263238"/>
<g id="Group 114">
<path id="Path 216" d="M73.5435 105.319C73.5435 105.319 71.8981 106.382 69.4245 107.692C65.1445 102.515 56.0646 93.0969 55.7898 92.7637L73.5435 105.319Z" fill="#37474F"/>
<path id="Path 217" d="M43.664 80.2102C42.5017 80.9855 41.377 81.8098 40.2299 82.6057C39.1012 83.389 37.9373 84.1233 36.8655 84.98C35.7736 85.8485 34.7371 86.7842 33.7061 87.7246C33.2095 88.1786 32.716 88.6358 32.2346 89.1063C31.7283 89.5595 31.2583 90.0505 30.8287 90.575C30.7919 90.6255 30.864 90.6855 30.9089 90.6539C31.4542 90.2797 31.9751 89.872 32.4685 89.4332C33.0132 88.9926 33.5523 88.5449 34.0946 88.1012C35.1424 87.2453 36.2086 86.4139 37.254 85.5548C38.2993 84.6958 39.2566 83.7664 40.2827 82.9026C41.3834 81.978 42.5425 81.1182 43.684 80.2449C43.708 80.2307 43.688 80.1952 43.664 80.2102Z" fill="#37474F"/>
<path id="Path 218" d="M150.59 125.423C149.425 126.633 148.347 127.935 147.257 129.213C146.167 130.49 145.08 131.785 144.001 133.082C141.845 135.672 139.67 138.25 137.55 140.869C136.385 142.309 135.235 143.758 134.149 145.257C134.1 145.324 134.209 145.402 134.265 145.342C136.581 142.895 138.702 140.276 140.855 137.683C143.007 135.091 145.16 132.491 147.276 129.867C148.434 128.43 149.627 127.002 150.694 125.499C150.737 125.438 150.641 125.369 150.59 125.423Z" fill="#37474F"/>
<path id="Path 219" d="M106.973 128.718C104.028 126.372 97.3219 121.78 94.2651 119.576C91.2211 117.384 88.1844 115.185 85.0971 113.057C84.2104 112.446 83.3156 111.847 82.4216 111.245C81.5276 110.644 80.6008 110.09 79.7277 109.468C79.6772 109.432 79.6307 109.515 79.6804 109.547C80.4815 110.129 81.2377 110.779 82.0251 111.381C82.7773 111.957 83.5239 112.539 84.2816 113.106C85.762 114.212 87.2567 115.301 88.7491 116.393C91.7755 118.603 94.8283 120.782 97.9075 122.929C99.657 124.142 105.047 127.736 106.838 128.891C106.943 128.965 107.074 128.798 106.973 128.718Z" fill="#37474F"/>
<path id="Path 220" d="M126.031 104.603C123.308 102.325 117.099 97.9346 114.244 95.8249C111.36 93.693 108.484 91.5366 105.585 89.4174L96.9557 83.1103C94.1672 81.0724 91.3932 79.0045 88.4437 77.1884C86.8296 76.1975 85.173 75.2777 83.4692 74.4462C81.8176 73.588 80.0947 72.8703 78.3192 72.301C78.308 72.2985 78.2963 72.3 78.2861 72.3052C78.2759 72.3104 78.2679 72.3191 78.2635 72.3295C78.2591 72.34 78.2586 72.3516 78.262 72.3625C78.2655 72.3733 78.2727 72.3825 78.2824 72.3886C79.7371 73.2121 81.2671 73.9093 82.7394 74.7052C84.1947 75.4916 85.6272 76.3178 87.0371 77.1837C89.9649 78.9816 92.7245 81.0171 95.4986 83.0337C101.258 87.2184 107.006 91.4285 112.808 95.5596C116.054 97.8714 122.524 102.646 125.898 104.776C126.003 104.844 126.128 104.685 126.031 104.603Z" fill="#37474F"/>
</g>
</g>
</g>
</g>
</g>
</g>
</g>
<defs>
<linearGradient id="paint0_linear_112_9617" x1="227.468" y1="230.292" x2="71.6394" y2="29.4138" gradientUnits="userSpaceOnUse">
<stop stop-color="white"/>
<stop offset="1" stop-color="#E9EFFD"/>
</linearGradient>
</defs>
</svg>
