<svg width="21" height="22" viewBox="0 0 21 22" fill="none" xmlns="http://www.w3.org/2000/svg">
<path id="checkmark-filled" d="M10.2 0.706055C8.18264 0.706055 6.21057 1.30427 4.53319 2.42506C2.85581 3.54586 1.54845 5.13888 0.776433 7.00268C0.00441951 8.86649 -0.197575 10.9174 0.195995 12.896C0.589564 14.8746 1.56102 16.692 2.98752 18.1185C4.41401 19.545 6.23148 20.5165 8.21008 20.9101C10.1887 21.3036 12.2396 21.1016 14.1034 20.3296C15.9672 19.5576 17.5602 18.2503 18.681 16.5729C19.8018 14.8955 20.4 12.9234 20.4 10.9061C20.4 8.20085 19.3254 5.60644 17.4125 3.69357C15.4996 1.78069 12.9052 0.706055 10.2 0.706055ZM8.743 14.9781L5.101 11.3351L6.26 10.1761L8.743 12.6561L14.143 7.25605L15.306 8.41105L8.743 14.9781Z" fill="#067834"/>
</svg>
