<svg width="32" height="32" viewBox="0 0 32 32" fill="none" xmlns="http://www.w3.org/2000/svg">
<g id="Group 1331">
<g id="Ellipse 151">
<path id="Vector" d="M16 31C24.2843 31 31 24.2843 31 16C31 7.71573 24.2843 1 16 1C7.71573 1 1 7.71573 1 16C1 24.2843 7.71573 31 16 31Z" stroke="#087A04" stroke-width="2"/>
</g>
<g id="check">
<path id="Path 1980" fill-rule="evenodd" clip-rule="evenodd" d="M21.3568 10.2111C21.4867 10.0687 21.644 9.95383 21.8193 9.87351C21.9945 9.7932 22.1842 9.74905 22.3769 9.74371C22.5696 9.73838 22.7615 9.77195 22.9409 9.84244C23.1204 9.91293 23.2838 10.0189 23.4213 10.154C23.5589 10.289 23.6678 10.4505 23.7416 10.6286C23.8153 10.8067 23.8524 10.9979 23.8506 11.1907C23.8487 11.3835 23.8081 11.5739 23.731 11.7506C23.6539 11.9273 23.5419 12.0867 23.4018 12.2191L15.7718 21.7611C15.6406 21.9024 15.4823 22.0158 15.3063 22.0945C15.1303 22.1732 14.9402 22.2156 14.7474 22.2191C14.5546 22.2227 14.3631 22.1873 14.1843 22.1151C14.0055 22.043 13.8431 21.9355 13.7068 21.7991L8.64883 16.7391C8.50886 16.6076 8.39673 16.4493 8.3191 16.2736C8.24148 16.0979 8.19994 15.9085 8.19695 15.7164C8.19396 15.5244 8.22958 15.3337 8.3017 15.1557C8.37382 14.9776 8.48097 14.8159 8.61679 14.6801C8.7526 14.5443 8.91432 14.4371 9.09233 14.365C9.27035 14.2929 9.46104 14.2573 9.65309 14.2603C9.84514 14.2633 10.0346 14.3048 10.2103 14.3824C10.386 14.46 10.5443 14.5722 10.6758 14.7121L14.6758 18.7121L21.3158 10.2511C21.3276 10.2364 21.3403 10.2223 21.3538 10.2091L21.3568 10.2111Z" fill="#087A04"/>
</g>
</g>
</svg>
