<svg width="32" height="32" viewBox="0 0 32 32" fill="none" xmlns="http://www.w3.org/2000/svg">
<g id="Clip path group">
<mask id="mask0_112_6105" style="mask-type:luminance" maskUnits="userSpaceOnUse" x="0" y="0" width="32" height="32">
<g id="clip-path">
<path id="Rectangle 3258" d="M32 0H0V32H32V0Z" fill="white"/>
</g>
</mask>
<g mask="url(#mask0_112_6105)">
<g id="Mask Group 1">
<g id="plus-circle-line">
<path id="Path 1981" d="M22.4842 21.071L17.4142 16.0011L22.4842 10.9311C22.6717 10.7436 22.7771 10.4892 22.7771 10.224C22.7771 9.95878 22.6717 9.70442 22.4842 9.51688C22.2966 9.32935 22.0423 9.22399 21.7771 9.22399C21.5118 9.22399 21.2575 9.32935 21.07 9.51688L16 14.5868L10.93 9.51688C10.7425 9.32935 10.4882 9.22399 10.2229 9.22399C9.95772 9.22399 9.70337 9.32935 9.51583 9.51688C9.32829 9.70442 9.22294 9.95878 9.22294 10.224C9.22294 10.4892 9.32829 10.7436 9.51583 10.9311L14.5858 16.0011L9.51583 21.071C9.32829 21.2585 9.22294 21.5129 9.22294 21.7781C9.22294 22.0433 9.32829 22.2977 9.51583 22.4852C9.70337 22.6728 9.95772 22.7781 10.2229 22.7781C10.4882 22.7781 10.7425 22.6728 10.93 22.4852L16 17.4153L21.07 22.4852C21.2575 22.6728 21.5118 22.7781 21.7771 22.7781C22.0423 22.7781 22.2966 22.6728 22.4842 22.4852C22.6717 22.2977 22.7771 22.0433 22.7771 21.7781C22.7771 21.5129 22.6717 21.2585 22.4842 21.071Z" fill="#E31919"/>
<path id="Path 1982" d="M27.3137 4.68725C25.0761 2.44961 22.2251 0.925756 19.1214 0.308392C16.0178 -0.308971 12.8007 0.00788207 9.87707 1.21888C6.95345 2.42989 4.4546 4.48065 2.69649 7.11183C0.93839 9.74302 4.8741e-06 12.8365 5.54832e-06 16.001C4.8741e-06 19.1655 0.93839 22.2589 2.69649 24.8901C4.45459 27.5213 6.95345 29.572 9.87707 30.783C12.8007 31.994 16.0178 32.3109 19.1215 31.6935C22.2251 31.0762 25.0761 29.5523 27.3137 27.3147C30.3143 24.3141 32 20.2444 32 16.001C32 11.7575 30.3143 7.68783 27.3137 4.68725ZM6.10051 25.9005C4.14258 23.9425 2.8092 21.448 2.26901 18.7322C1.72882 16.0165 2.00607 13.2016 3.06569 10.6434C4.12532 8.08522 5.91973 5.89872 8.22202 4.36038C10.5243 2.82204 13.2311 2.00096 16 2.00096C18.7689 2.00096 21.4757 2.82204 23.778 4.36038C26.0803 5.89872 27.8747 8.08522 28.9343 10.6434C29.9939 13.2016 30.2712 16.0165 29.731 18.7322C29.1908 21.448 27.8574 23.9425 25.8995 25.9005C23.274 28.526 19.713 30.001 16 30.001C12.287 30.001 8.72602 28.526 6.10051 25.9005Z" fill="#E31919"/>
</g>
</g>
</g>
</g>
</svg>
