<svg width="56" height="35" viewBox="0 0 56 35" fill="none" xmlns="http://www.w3.org/2000/svg">
<path id="&#226;&#128;&#156;" d="M12.176 -3.83121e-06C14.0121 -3.6707e-06 15.6871 0.271687 17.201 0.815064C18.715 1.39041 20.0035 2.17351 21.0664 3.16438C22.1294 4.18721 22.9669 5.41781 23.579 6.85616C24.1588 8.29452 24.4487 9.89269 24.4487 11.6507C24.4487 13.4726 24.1265 15.3744 23.4823 17.3562C22.8059 19.3379 21.8395 21.3356 20.5833 23.3493C19.327 25.363 17.8131 27.3447 16.0414 29.2945C14.2376 31.2763 12.1921 33.1781 9.90509 35L4.34858 30.6849C5.41156 29.5982 6.37791 28.5594 7.24763 27.5685C8.08513 26.5776 8.85821 25.5868 9.56687 24.5959C10.2755 23.605 10.9359 22.5822 11.5479 21.5274C12.1277 20.4726 12.6592 19.3539 13.1424 18.1712L5.85596e-06 11.6507C6.00685e-06 9.92465 0.338229 8.34246 1.01467 6.90411C1.65891 5.46575 2.52862 4.23516 3.62382 3.21233C4.71902 2.18949 6.00748 1.39041 7.48922 0.815063C8.97096 0.271686 10.5332 -3.97483e-06 12.176 -3.83121e-06ZM43.7274 -1.07291e-06C45.5634 -9.12395e-07 47.2384 0.27169 48.7524 0.815067C50.2663 1.39041 51.5548 2.17351 52.6178 3.16438C53.6808 4.18722 54.5183 5.41781 55.1303 6.85616C55.7101 8.29452 56 9.89269 56 11.6507C56 13.4726 55.6779 15.3744 55.0337 17.3562C54.3572 19.3379 53.3909 21.3356 52.1346 23.3493C50.8783 25.363 49.3644 27.3447 47.5928 29.2945C45.7889 31.2763 43.7435 33.1781 41.4564 35L35.8999 30.6849C36.9629 29.5982 37.9293 28.5594 38.799 27.5685C39.6365 26.5776 40.4095 25.5868 41.1182 24.5959C41.8269 23.605 42.4872 22.5822 43.0992 21.5274C43.679 20.4726 44.2105 19.3539 44.6937 18.1712L31.5513 11.6507C31.5513 9.92466 31.8896 8.34246 32.566 6.90411C33.2102 5.46575 34.08 4.23516 35.1752 3.21233C36.2704 2.1895 37.5588 1.39041 39.0406 0.815066C40.5223 0.271689 42.0846 -1.21653e-06 43.7274 -1.07291e-06Z" fill="#063E9F"/>
</svg>
