<svg width="56" height="35" viewBox="0 0 56 35" fill="none" xmlns="http://www.w3.org/2000/svg">
<path id="&#226;&#128;&#156;" d="M43.824 35C41.9879 35 40.3129 34.7283 38.799 34.1849C37.285 33.6096 35.9965 32.8265 34.9336 31.8356C33.8706 30.8128 33.0331 29.5822 32.4211 28.1438C31.8412 26.7055 31.5513 25.1073 31.5513 23.3493C31.5513 21.5274 31.8735 19.6256 32.5177 17.6438C33.1941 15.6621 34.1605 13.6644 35.4167 11.6507C36.673 9.63699 38.1869 7.65525 39.9586 5.70548C41.7624 3.72374 43.8079 1.82192 46.0949 0L51.6514 4.31507C50.5884 5.40183 49.6221 6.44064 48.7524 7.43151C47.9149 8.42237 47.1418 9.41324 46.4331 10.4041C45.7245 11.395 45.0641 12.4178 44.4521 13.4726C43.8723 14.5274 43.3408 15.6461 42.8576 16.8288L56 23.3493C56 25.0753 55.6618 26.6575 54.9853 28.0959C54.3411 29.5342 53.4714 30.7648 52.3762 31.7877C51.281 32.8105 49.9925 33.6096 48.5108 34.1849C47.029 34.7283 45.4668 35 43.824 35ZM12.2726 35C10.4366 35 8.76158 34.7283 7.24763 34.1849C5.73368 33.6096 4.44521 32.8265 3.38223 31.8356C2.31924 30.8128 1.48174 29.5822 0.869715 28.1438C0.289905 26.7055 0 25.1073 0 23.3493C0 21.5274 0.322117 19.6256 0.96635 17.6438C1.6428 15.6621 2.60915 13.6644 3.8654 11.6507C5.12166 9.63699 6.6356 7.65525 8.40725 5.70548C10.2111 3.72374 12.2565 1.82192 14.5436 0L20.1001 4.31507C19.0371 5.40183 18.0707 6.44064 17.201 7.43151C16.3635 8.42237 15.5905 9.41324 14.8818 10.4041C14.1731 11.395 13.5128 12.4178 12.9008 13.4726C12.321 14.5274 11.7895 15.6461 11.3063 16.8288L24.4487 23.3493C24.4487 25.0753 24.1104 26.6575 23.434 28.0959C22.7898 29.5342 21.92 30.7648 20.8248 31.7877C19.7297 32.8105 18.4412 33.6096 16.9594 34.1849C15.4777 34.7283 13.9154 35 12.2726 35Z" fill="#063E9F"/>
</svg>
