<svg width="21" height="15" viewBox="0 0 21 15" fill="none" xmlns="http://www.w3.org/2000/svg">
<path id="email-line" d="M18.9721 0.259033H1.8051C1.47995 0.259033 1.16811 0.386351 0.938189 0.612977C0.708269 0.839604 0.579102 1.14698 0.579102 1.46747V13.5539C0.579102 13.8744 0.708269 14.1817 0.938189 14.4084C1.16811 14.635 1.47995 14.7623 1.8051 14.7623H18.9721C19.2973 14.7623 19.6091 14.635 19.839 14.4084C20.0689 14.1817 20.1981 13.8744 20.1981 13.5539V1.46747C20.1981 1.14698 20.0689 0.839604 19.839 0.612977C19.6091 0.386351 19.2973 0.259033 18.9721 0.259033ZM18.0281 13.5539H2.8231L7.1151 9.17843L6.2321 8.34159L1.8051 12.856V2.38613L9.4261 9.86151C9.65582 10.0867 9.96663 10.2131 10.2906 10.2131C10.6146 10.2131 10.9254 10.0867 11.1551 9.86151L18.9721 2.19885V12.7771L14.4601 8.32976L13.5961 9.18139L18.0281 13.5539ZM2.6081 1.46747H17.9791L10.2911 9.00298L2.6081 1.46747Z" fill="#B8B8B8"/>
</svg>
