<svg width="21" height="21" viewBox="0 0 21 21" fill="none" xmlns="http://www.w3.org/2000/svg">
<g id="Group 42">
<path id="Path 1691" fill-rule="evenodd" clip-rule="evenodd" d="M13.955 8.00297C13.955 8.69836 13.7458 9.37812 13.3539 9.95631C12.962 10.5345 12.4049 10.9851 11.7531 11.2513C11.1013 11.5174 10.3841 11.587 9.69216 11.4513C9.00023 11.3157 8.36465 10.9808 7.8658 10.4891C7.36694 9.99739 7.02722 9.37091 6.88959 8.68889C6.75195 8.00687 6.82259 7.29994 7.09257 6.65749C7.36255 6.01504 7.81974 5.46593 8.40633 5.0796C8.99292 4.69327 9.68256 4.48706 10.388 4.48706C11.3341 4.48706 12.2414 4.85749 12.9103 5.51685C13.5792 6.17621 13.955 7.0705 13.955 8.00297ZM12.171 8.00297C12.171 8.35076 12.0664 8.69074 11.8704 8.97992C11.6744 9.26909 11.3957 9.49448 11.0698 9.62757C10.7438 9.76066 10.3851 9.79549 10.039 9.72764C9.69294 9.65979 9.37507 9.49231 9.12557 9.24639C8.87607 9.00046 8.70616 8.68714 8.63733 8.34603C8.56849 8.00492 8.60382 7.65136 8.73885 7.33004C8.87387 7.00873 9.10253 6.7341 9.39591 6.54088C9.68929 6.34766 10.0342 6.24452 10.387 6.24452C10.6214 6.24439 10.8535 6.28978 11.0701 6.37809C11.2866 6.46641 11.4834 6.59591 11.6492 6.75921C11.8149 6.92251 11.9464 7.11641 12.0362 7.32982C12.1259 7.54323 12.171 7.77197 12.171 8.00297Z" fill="#B8B8B8"/>
<path id="Path 1692" fill-rule="evenodd" clip-rule="evenodd" d="M10.3881 0.971069C8.44807 0.971069 6.5516 1.53812 4.93852 2.60051C3.32544 3.6629 2.06819 5.17291 1.32577 6.9396C0.583352 8.70629 0.389101 10.6503 0.767583 12.5258C1.14607 14.4013 2.08028 16.1241 3.4521 17.4763C4.82391 18.8284 6.57171 19.7493 8.47446 20.1223C10.3772 20.4954 12.3495 20.3039 14.1418 19.5721C15.9342 18.8403 17.4662 17.6011 18.544 16.0111C19.6218 14.4211 20.1971 12.5518 20.1971 10.6396C20.1971 8.07533 19.1637 5.61611 17.3241 3.80291C15.4846 1.98971 12.9896 0.971069 10.3881 0.971069ZM2.36311 10.6396C2.36007 12.4052 2.95875 14.1207 4.06311 15.5108C4.80745 14.5492 5.76554 13.7686 6.86376 13.2289C7.96197 12.6892 9.17108 12.4049 10.3982 12.3978C11.6253 12.3906 12.8377 12.6609 13.9423 13.1877C15.0469 13.7146 16.0143 14.484 16.7701 15.4369C17.5432 14.4381 18.0639 13.2721 18.2889 12.0355C18.514 10.799 18.4371 9.52733 18.0646 8.32588C17.692 7.12443 17.0345 6.02772 16.1464 5.12652C15.2584 4.22532 14.1654 3.54555 12.9578 3.14346C11.7503 2.74137 10.463 2.62853 9.20243 2.81428C7.94186 3.00004 6.7443 3.47904 5.70887 4.21164C4.67344 4.94424 3.82991 5.90938 3.24809 7.02717C2.66628 8.14496 2.36291 9.38326 2.36311 10.6396ZM10.3891 18.5506C8.54674 18.5534 6.75996 17.9287 5.33111 16.7823C5.90312 15.9762 6.66284 15.317 7.54658 14.86C8.43033 14.4029 9.41234 14.1613 10.4103 14.1554C11.4083 14.1495 12.3932 14.3795 13.2824 14.8261C14.1717 15.2727 14.9393 15.9229 15.5211 16.7222C14.0807 17.9064 12.2637 18.5536 10.3881 18.5506H10.3891Z" fill="#B8B8B8"/>
</g>
</svg>
