<svg width="20" height="23" viewBox="0 0 20 23" fill="none" xmlns="http://www.w3.org/2000/svg">
<path id="lock" fill-rule="evenodd" clip-rule="evenodd" d="M4.0641 9.24426V5.80917C4.0641 4.29085 4.67601 2.83472 5.76523 1.76111C6.85444 0.687499 8.33172 0.0843506 9.8721 0.0843506C11.4125 0.0843506 12.8898 0.687499 13.979 1.76111C15.0682 2.83472 15.6801 4.29085 15.6801 5.80917V9.24426H16.8421C17.4582 9.24426 18.0491 9.48549 18.4847 9.9149C18.9204 10.3443 19.1651 10.9267 19.1651 11.534V20.6939C19.1651 21.3012 18.9204 21.8836 18.4847 22.313C18.0491 22.7424 17.4582 22.9836 16.8421 22.9836H2.9021C2.286 22.9836 1.69514 22.7424 1.25949 22.313C0.823845 21.8836 0.579102 21.3012 0.579102 20.6939V11.534C0.579102 10.9267 0.823845 10.3443 1.25949 9.9149C1.69514 9.48549 2.286 9.24426 2.9021 9.24426H4.0641ZM2.9021 11.534V20.6939H16.8411V11.534H2.9021ZM6.3871 9.24426H13.3571V5.80917C13.3571 5.35807 13.267 4.91138 13.0918 4.49462C12.9167 4.07785 12.66 3.69917 12.3364 3.38019C12.0128 3.06122 11.6286 2.80819 11.2058 2.63556C10.7829 2.46293 10.3298 2.37408 9.8721 2.37408C9.41444 2.37408 8.96127 2.46293 8.53845 2.63556C8.11563 2.80819 7.73145 3.06122 7.40783 3.38019C7.08422 3.69917 6.82752 4.07785 6.65238 4.49462C6.47724 4.91138 6.3871 5.35807 6.3871 5.80917V9.24426ZM12.1951 13.8237H14.5181V18.4032H12.1951V13.8237Z" fill="#B8B8B8"/>
</svg>
