<svg width="21" height="21" viewBox="0 0 21 21" fill="none" xmlns="http://www.w3.org/2000/svg">
<path id="my-location" d="M10.3881 6.97541C11.3335 6.9741 12.2408 7.34233 12.9111 7.99938C13.5815 8.65643 13.9601 9.54867 13.9641 10.4805C13.9706 10.9415 13.8812 11.3988 13.7013 11.8244C13.5214 12.2499 13.2548 12.6346 12.9181 12.9545C12.59 13.2877 12.1962 13.551 11.7609 13.7284C11.3256 13.9057 10.8581 13.9932 10.3871 13.9856C9.91615 13.9932 9.4486 13.9057 9.0133 13.7284C8.57799 13.551 8.18416 13.2877 7.8561 12.9545C7.52473 12.6306 7.2617 12.2452 7.08221 11.8206C6.90272 11.396 6.8103 10.9405 6.8103 10.4805C6.8103 10.0205 6.90272 9.56501 7.08221 9.14038C7.2617 8.71575 7.52473 8.33035 7.8561 8.00643C8.18421 7.67308 8.57819 7.40959 9.01369 7.23225C9.44919 7.05492 9.91697 6.9675 10.3881 6.97541ZM18.3571 9.61407H20.1981V11.3459H18.3581C18.1879 13.1358 17.3801 14.8084 16.0781 16.0673C14.7973 17.3521 13.1049 18.1605 11.2881 18.3551V20.1697H9.4891V18.36C7.68121 18.156 5.99846 17.3487 4.7201 16.0722C3.40719 14.8188 2.59155 13.1445 2.4201 11.3508H0.579102V9.61407H2.4201C2.59172 7.82047 3.40734 6.14618 4.7201 4.89267C5.99827 3.61593 7.68112 2.80864 9.4891 2.60492V0.790283H11.2891V2.60492C13.1057 2.79999 14.798 3.60825 16.0791 4.89267C17.3811 6.15145 18.1876 7.82421 18.3571 9.61407ZM10.4091 16.6232C11.2299 16.6374 12.045 16.4856 12.804 16.1772C13.563 15.8688 14.2498 15.4104 14.8221 14.8303C15.4108 14.266 15.876 13.5889 16.1891 12.8406C16.5021 12.0923 16.6563 11.2888 16.6421 10.4795C16.6567 9.6704 16.5028 8.86696 16.1899 8.1188C15.877 7.37065 15.4119 6.69367 14.8231 6.1297C14.2504 5.54977 13.5634 5.09152 12.8043 4.78317C12.0451 4.47482 11.23 4.3229 10.4091 4.33675C9.58596 4.3241 8.76881 4.47651 8.00727 4.78473C7.24573 5.09294 6.5557 5.55053 5.9791 6.1297C5.38489 6.69091 4.91467 7.36702 4.59788 8.11568C4.28108 8.86435 4.12456 9.66942 4.1381 10.4805C4.12477 11.2912 4.28141 12.0959 4.59819 12.8443C4.91498 13.5926 5.38509 14.2683 5.9791 14.8293C6.55576 15.4085 7.24577 15.8661 8.00728 16.1745C8.76879 16.4829 9.58592 16.6355 10.4091 16.6232Z" fill="#B8B8B8"/>
</svg>
