<svg width="46" height="46" viewBox="0 0 46 46" fill="none" xmlns="http://www.w3.org/2000/svg">
<g id="Group 1361">
<path id="arrow-ios-forward-fill" d="M21.2109 29.3368C21.0288 29.3374 20.8503 29.286 20.6964 29.1887C20.5425 29.0913 20.4196 28.952 20.3422 28.7872C20.2647 28.6224 20.236 28.4389 20.2593 28.2583C20.2827 28.0777 20.3571 27.9075 20.4739 27.7678L24.7549 22.6398L20.6269 17.5028C20.544 17.402 20.4821 17.2857 20.4448 17.1607C20.4075 17.0357 20.3957 16.9045 20.4099 16.7748C20.4241 16.6451 20.4641 16.5196 20.5276 16.4056C20.591 16.2916 20.6766 16.1915 20.7794 16.1111C20.8821 16.0307 20.9999 15.9717 21.1258 15.9375C21.2517 15.9033 21.3832 15.8947 21.5125 15.9121C21.6417 15.9294 21.7663 15.9725 21.8786 16.0388C21.991 16.105 22.089 16.1931 22.1669 16.2978L26.7869 22.0378C26.9275 22.209 27.0044 22.4237 27.0044 22.6453C27.0044 22.8668 26.9275 23.0815 26.7869 23.2528L22.0039 28.9928C21.9078 29.1084 21.7859 29.1999 21.648 29.2596C21.51 29.3194 21.3599 29.3458 21.2099 29.3368H21.2109Z" fill="#3633A8"/>
<g id="plus-circle-line">
<path id="Path 1982" d="M33.9412 11.3137C31.7035 9.07607 28.8526 7.55222 25.7489 6.93486C22.6452 6.31749 19.4281 6.63435 16.5045 7.84535C13.5809 9.05635 11.082 11.1071 9.32393 13.7383C7.56583 16.3695 6.62745 19.4629 6.62745 22.6274C6.62745 25.7919 7.56583 28.8854 9.32393 31.5165C11.082 34.1477 13.5809 36.1985 16.5045 37.4095C19.4281 38.6205 22.6452 38.9373 25.7489 38.32C28.8526 37.7026 31.7035 36.1788 33.9412 33.9411C36.9417 30.9405 38.6274 26.8709 38.6274 22.6274C38.6274 18.384 36.9417 14.3143 33.9412 11.3137ZM12.728 32.5269C10.77 30.569 9.43665 28.0744 8.89645 25.3587C8.35626 22.643 8.63351 19.828 9.69313 17.2699C10.7528 14.7117 12.5472 12.5252 14.8495 10.9868C17.1518 9.44851 19.8585 8.62742 22.6274 8.62742C25.3964 8.62742 28.1031 9.44851 30.4054 10.9868C32.7077 12.5252 34.5021 14.7117 35.5618 17.2699C36.6214 19.828 36.8986 22.643 36.3584 25.3587C35.8182 28.0744 34.4849 30.569 32.5269 32.5269C29.9014 35.1524 26.3405 36.6274 22.6274 36.6274C18.9144 36.6274 15.3535 35.1524 12.728 32.5269Z" fill="#3633A8"/>
</g>
</g>
</svg>
