<svg width="26" height="26" viewBox="0 0 26 26" fill="none" xmlns="http://www.w3.org/2000/svg">
<g id="note-edit-line">
<path id="Path 1736" d="M20.651 24.0982H1.721V5.16924H13.1L14.817 3.44824H1.721C1.26456 3.44824 0.826819 3.62956 0.504069 3.95231C0.181319 4.27506 0 4.7128 0 5.16924V24.0982C0 24.5547 0.181319 24.9924 0.504069 25.3152C0.826819 25.6379 1.26456 25.8192 1.721 25.8192H20.651C21.1074 25.8192 21.5452 25.6379 21.8679 25.3152C22.1907 24.9924 22.372 24.5547 22.372 24.0982V11.1922L20.651 12.9132V24.0982Z" fill="#5F91D4"/>
<path id="Path 1737" d="M25.4094 3.30732L22.5094 0.407317C22.3808 0.278211 22.2279 0.175773 22.0595 0.105876C21.8912 0.0359798 21.7107 0 21.5284 0C21.3462 0 21.1657 0.0359798 20.9973 0.105876C20.829 0.175773 20.6761 0.278211 20.5474 0.407317L8.74743 12.2723L7.79243 16.4113C7.75162 16.612 7.75582 16.8192 7.80471 17.018C7.8536 17.2169 7.94598 17.4024 8.07519 17.5613C8.20439 17.7201 8.36722 17.8483 8.55193 17.9367C8.73665 18.0251 8.93866 18.0714 9.14343 18.0723C9.24911 18.0839 9.35575 18.0839 9.46143 18.0723L13.6344 17.1513L25.4094 5.27232C25.5385 5.14365 25.641 4.99076 25.7109 4.82242C25.7808 4.65408 25.8167 4.47359 25.8167 4.29132C25.8167 4.10904 25.7808 3.92856 25.7109 3.76022C25.641 3.59188 25.5385 3.43899 25.4094 3.31032V3.30732ZM12.7404 15.5633L9.59143 16.2633L10.3224 13.1403L19.2024 4.20032L21.6284 6.62632L12.7404 15.5633ZM22.6014 5.65132L20.1774 3.22532L21.5114 1.86632L23.9554 4.30732L22.6014 5.65132Z" fill="#5F91D4"/>
</g>
</svg>
