<svg width="46" height="46" viewBox="0 0 46 46" fill="none" xmlns="http://www.w3.org/2000/svg">
<g id="Group 1361">
<path id="arrow-ios-forward-fill" d="M24.044 15.9181C24.2261 15.9175 24.4046 15.9689 24.5585 16.0662C24.7124 16.1636 24.8353 16.3029 24.9127 16.4677C24.9901 16.6325 25.0189 16.816 24.9955 16.9966C24.9722 17.1772 24.8978 17.3474 24.781 17.4871L20.5 22.6151L24.628 27.7521C24.7109 27.8529 24.7728 27.9692 24.8101 28.0942C24.8473 28.2192 24.8592 28.3504 24.845 28.4801C24.8308 28.6098 24.7908 28.7353 24.7273 28.8493C24.6639 28.9633 24.5782 29.0634 24.4755 29.1438C24.3728 29.2242 24.255 29.2832 24.1291 29.3174C24.0032 29.3516 23.8717 29.3602 23.7424 29.3428C23.6131 29.3254 23.4886 29.2824 23.3762 29.2161C23.2639 29.1499 23.1659 29.0618 23.088 28.9571L18.468 23.2171C18.3274 23.0459 18.2505 22.8312 18.2505 22.6096C18.2505 22.3881 18.3274 22.1733 18.468 22.0021L23.251 16.2621C23.347 16.1465 23.469 16.055 23.6069 15.9953C23.7449 15.9355 23.8949 15.9091 24.045 15.9181L24.044 15.9181Z" fill="#3633A8"/>
<g id="plus-circle-line">
<path id="Path 1982" d="M11.3137 33.9412C13.5514 36.1788 16.4023 37.7027 19.506 38.32C22.6097 38.9374 25.8268 38.6205 28.7504 37.4095C31.674 36.1985 34.1728 34.1478 35.931 31.5166C37.6891 28.8854 38.6274 25.792 38.6274 22.6275C38.6274 19.463 37.6891 16.3695 35.931 13.7383C34.1729 11.1072 31.674 9.05639 28.7504 7.84539C25.8268 6.63439 22.6097 6.31753 19.506 6.9349C16.4023 7.55226 13.5514 9.07611 11.3137 11.3138C8.31315 14.3143 6.62744 18.384 6.62744 22.6275C6.62744 26.8709 8.31315 30.9406 11.3137 33.9412ZM32.5269 12.728C34.4849 14.6859 35.8182 17.1805 36.3584 19.8962C36.8986 22.6119 36.6214 25.4269 35.5618 27.985C34.5021 30.5432 32.7077 32.7297 30.4054 34.268C28.1031 35.8064 25.3964 36.6275 22.6274 36.6275C19.8585 36.6275 17.1517 35.8064 14.8495 34.268C12.5472 32.7297 10.7527 30.5432 9.69312 27.985C8.6335 25.4269 8.35625 22.6119 8.89644 19.8962C9.43664 17.1805 10.77 14.6859 12.7279 12.728C15.3535 10.1025 18.9144 8.62746 22.6274 8.62746C26.3405 8.62746 29.9014 10.1025 32.5269 12.728Z" fill="#3633A8"/>
</g>
</g>
</svg>
