<svg width="24" height="24" viewBox="0 0 24 24" fill="none" xmlns="http://www.w3.org/2000/svg">
<path d="M14.647 4.08107C14.6738 4.1918 14.7264 4.29464 14.8005 4.38121C14.8745 4.46779 14.968 4.53567 15.0732 4.57932C15.1785 4.62298 15.2925 4.64118 15.4061 4.63245C15.5197 4.62372 15.6297 4.58829 15.727 4.52907C18.166 3.04407 20.957 5.83407 19.472 8.27307C19.4128 8.37033 19.3773 8.4802 19.3685 8.59374C19.3597 8.70728 19.3778 8.82129 19.4214 8.92652C19.465 9.03174 19.5327 9.12521 19.6192 9.19932C19.7056 9.27344 19.8084 9.32611 19.919 9.35307C22.694 10.0261 22.694 13.9731 19.919 14.6471C19.8083 14.6739 19.7054 14.7265 19.6189 14.8005C19.5323 14.8746 19.4644 14.9681 19.4207 15.0733C19.3771 15.1785 19.3589 15.2926 19.3676 15.4062C19.3764 15.5198 19.4118 15.6297 19.471 15.7271C20.956 18.1661 18.166 20.9571 15.727 19.4721C15.6297 19.4128 15.5199 19.3774 15.4063 19.3686C15.2928 19.3598 15.1788 19.3779 15.0736 19.4215C14.9683 19.465 14.8749 19.5328 14.8007 19.6192C14.7266 19.7057 14.674 19.8084 14.647 19.9191C13.974 22.6941 10.027 22.6941 9.35301 19.9191C9.32618 19.8083 9.27359 19.7055 9.19953 19.6189C9.12546 19.5323 9.03201 19.4645 8.92677 19.4208C8.82153 19.3772 8.70747 19.359 8.59387 19.3677C8.48027 19.3764 8.37034 19.4118 8.27301 19.4711C5.83401 20.9561 3.04301 18.1661 4.52801 15.7271C4.58724 15.6298 4.62269 15.5199 4.63148 15.4064C4.64028 15.2929 4.62216 15.1788 4.57861 15.0736C4.53506 14.9684 4.4673 14.8749 4.38084 14.8008C4.29438 14.7267 4.19165 14.674 4.08101 14.6471C1.30601 13.9741 1.30601 10.0271 4.08101 9.35307C4.19174 9.32624 4.29457 9.27365 4.38115 9.19959C4.46773 9.12553 4.53561 9.03207 4.57926 8.92683C4.62292 8.82159 4.64112 8.70753 4.63239 8.59393C4.62365 8.48033 4.58823 8.3704 4.52901 8.27307C3.04401 5.83407 5.83401 3.04307 8.27301 4.52807C8.37017 4.58775 8.48009 4.62356 8.59376 4.63258C8.70744 4.6416 8.82163 4.62357 8.92699 4.57996C9.03235 4.53636 9.12589 4.46841 9.19993 4.3817C9.27398 4.29498 9.32644 4.19196 9.35301 4.08107C10.026 1.30607 13.973 1.30607 14.647 4.08107ZM12 9.00007C11.2044 9.00007 10.4413 9.31614 9.87869 9.87875C9.31608 10.4414 9.00001 11.2044 9.00001 12.0001C9.00001 12.7957 9.31608 13.5588 9.87869 14.1214C10.4413 14.684 11.2044 15.0001 12 15.0001C12.7957 15.0001 13.5587 14.684 14.1213 14.1214C14.6839 13.5588 15 12.7957 15 12.0001C15 11.2044 14.6839 10.4414 14.1213 9.87875C13.5587 9.31614 12.7957 9.00007 12 9.00007Z" fill="black"/>
</svg>
