<svg width="22" height="22" viewBox="0 0 22 22" fill="none" xmlns="http://www.w3.org/2000/svg">
<g id="time">
<path id="Path 1744" d="M10.668 21.334C8.55819 21.3342 6.49569 20.7087 4.74136 19.5367C2.98703 18.3647 1.61966 16.6987 0.812173 14.7496C0.00468928 12.8004 -0.206637 10.6555 0.204919 8.58622C0.616476 6.51693 1.63243 4.61616 3.1243 3.1243C4.61616 1.63243 6.51693 0.616476 8.58622 0.204919C10.6555 -0.206637 12.8004 0.00468928 14.7496 0.812173C16.6987 1.61966 18.3647 2.98703 19.5367 4.74136C20.7087 6.49569 21.3342 8.55819 21.334 10.668C21.3337 13.4967 20.2099 16.2095 18.2097 18.2097C16.2095 20.2099 13.4967 21.3337 10.668 21.334ZM10.668 1.525C8.85969 1.525 7.09198 2.06123 5.58843 3.06588C4.08487 4.07052 2.91299 5.49847 2.22097 7.16913C1.52896 8.83979 1.3479 10.6781 1.70068 12.4517C2.05347 14.2253 2.92426 15.8544 4.20293 17.1331C5.4816 18.4118 7.11073 19.2825 8.88429 19.6353C10.6579 19.9881 12.4962 19.807 14.1669 19.115C15.8375 18.423 17.2655 17.2511 18.2701 15.7476C19.2748 14.244 19.811 12.4763 19.811 10.668C19.811 8.24313 18.8477 5.91757 17.1331 4.20293C15.4184 2.48828 13.0929 1.525 10.668 1.525Z" fill="#FB732E"/>
<path id="Path 1745" d="M14.1643 15.2351L9.90527 10.9761V3.81006H11.4303V10.3471L15.2393 14.1641L14.1643 15.2351Z" fill="#FB732E"/>
</g>
</svg>
