<svg width="23" height="23" viewBox="0 0 23 23" fill="none" xmlns="http://www.w3.org/2000/svg">
<g id="Group 1109" clip-path="url(#clip0_354_3656)">
<g id="Group 1109_2">
<path id="Rectangle 3057 - Outline" d="M7 1.5C5.5418 1.50159 4.14377 2.08156 3.11267 3.11267C2.08156 4.14377 1.50159 5.5418 1.5 7V16C1.50159 17.4582 2.08156 18.8562 3.11267 19.8873C4.14377 20.9184 5.5418 21.4984 7 21.5H16C17.4582 21.4984 18.8562 20.9184 19.8873 19.8873C20.9184 18.8562 21.4984 17.4582 21.5 16V7C21.4984 5.5418 20.9184 4.14377 19.8873 3.11267C18.8562 2.08156 17.4582 1.50159 16 1.5H7ZM7 0H16C17.8565 0 19.637 0.737498 20.9497 2.05025C22.2625 3.36301 23 5.14348 23 7V16C23 17.8565 22.2625 19.637 20.9497 20.9497C19.637 22.2625 17.8565 23 16 23H7C5.14348 23 3.36301 22.2625 2.05025 20.9497C0.737498 19.637 0 17.8565 0 16L0 7C0 5.14348 0.737498 3.36301 2.05025 2.05025C3.36301 0.737498 5.14348 0 7 0Z" fill="#FFA07D"/>
<path id="bx-transfer-alt" d="M16.547 10.4679C16.5946 10.351 16.6064 10.2227 16.5809 10.0991C16.5555 9.9756 16.4939 9.86239 16.404 9.77387L13.224 6.58887L12.324 7.48887L14.424 9.58887H6.40402V10.8629H15.958C16.0841 10.863 16.2073 10.8257 16.3122 10.7557C16.417 10.6858 16.4987 10.5863 16.547 10.4699V10.4679ZM6.45202 12.5279C6.40384 12.6442 6.39123 12.7723 6.4158 12.8958C6.44036 13.0193 6.50099 13.1328 6.59002 13.2219L9.77502 16.4069L10.675 15.5069L8.57502 13.4069H16.592V12.1349H7.04102C6.91495 12.1346 6.79164 12.1718 6.68677 12.2418C6.5819 12.3118 6.50019 12.4114 6.45202 12.5279Z" fill="#FFA07D"/>
</g>
</g>
<defs>
<clipPath id="clip0_354_3656">
<rect width="23" height="23" fill="white"/>
</clipPath>
</defs>
</svg>
