<svg width="41" height="41" viewBox="0 0 41 41" fill="none" xmlns="http://www.w3.org/2000/svg">
<g clip-path="url(#clip0_11_2427)">
<mask id="mask0_11_2427" maskUnits="userSpaceOnUse" x="0" y="0" width="41" height="41">
<path d="M20.5 41.0001C31.8218 41.0001 41 31.8219 41 20.5001C41 9.17822 31.8218 6.10352e-05 20.5 6.10352e-05C9.17816 6.10352e-05 0 9.17822 0 20.5001C0 31.8219 9.17816 41.0001 20.5 41.0001Z" fill="white"/>
</mask>
<g mask="url(#mask0_11_2427)">
<path d="M20.5 41.0001C31.8218 41.0001 41 31.8219 41 20.5001C41 9.17822 31.8218 6.10352e-05 20.5 6.10352e-05C9.17816 6.10352e-05 0 9.17822 0 20.5001C0 31.8219 9.17816 41.0001 20.5 41.0001Z" fill="#26D2DB"/>
<path d="M46.3705 54.1848C46.3705 54.1848 15.9195 47.1032 21.3489 23.7338C26.7783 0.36445 55.8127 5.08535 55.8127 5.08535L53.9242 31.7593L46.3705 54.1848Z" fill="#3633A8"/>
<path d="M-12.1709 16.18C-12.1709 16.18 5.76923 24.678 23.4734 19.2488C41.1776 13.8195 49.9115 -6.00898 49.9115 -6.00898L2.22856 -12.3823L-12.1709 16.18Z" fill="#9974EF"/>
</g>
<path d="M20.7949 28.9315C19.2252 29.2998 17.6155 29.47 16.0035 29.4383C15.6478 28.5443 14.7123 27.4841 14.003 26.7633C13.5436 26.4203 13.1201 26.0316 12.739 25.6032L14.2425 24.4048C15.2378 23.6356 16.458 22.4802 17.903 20.9383C19.348 19.3965 20.5169 17.8675 21.4097 16.3512C19.9821 16.6874 18.456 17.3193 16.8312 18.2467C14.1373 19.7734 11.7913 21.845 9.94293 24.3292C9.34221 23.0773 8.88464 21.7616 8.5789 20.4071C8.26743 19.037 8.10092 18.1128 8.07937 17.6346C8.05728 17.1557 8.04377 16.7794 8.03884 16.5057L8.8139 15.913C9.23604 15.5729 9.68437 15.2667 10.1547 14.9971C10.6084 14.737 11.1092 14.4586 11.6565 14.1584C12.2038 13.8582 13.0776 13.4351 14.2789 12.8879C15.4803 12.3407 16.8941 11.8804 18.5197 11.5067C20.0892 11.1386 21.6986 10.9685 23.3103 11.0004C23.8903 12.4216 24.2639 13.9185 24.4195 15.4455C24.556 16.891 24.5126 18.1616 24.2895 19.2575C24.133 20.0246 23.9078 20.776 23.6165 21.5028C25.8408 20.0627 27.7896 18.2364 29.371 16.1102C29.9723 17.362 30.4303 18.6777 30.7364 20.0322C31.0469 21.4026 31.2132 22.327 31.2352 22.8053C31.2571 23.2836 31.2707 23.6594 31.2759 23.9327L30.5012 24.5264C30.0787 24.8662 29.6303 25.1725 29.1601 25.4424C28.7055 25.7017 28.2048 25.9811 27.6581 26.2805C27.1115 26.5799 26.237 27.0034 25.0348 27.5509C23.9964 28.0138 22.9216 28.3903 21.8214 28.6768C21.4892 28.7658 21.1471 28.8507 20.7949 28.9315Z" fill="white"/>
</g>
<defs>
<clipPath id="clip0_11_2427">
<rect width="41" height="41" fill="white"/>
</clipPath>
</defs>
</svg>
