<svg xmlns="http://www.w3.org/2000/svg" width="31" height="31" viewBox="0 0 31 31">
  <path id="Path_12584" data-name="Path 12584" d="M15.166,19.917h3.958l2.584,7.754a9.5,9.5,0,0,0,9.014,6.5h4.235a8.708,8.708,0,0,0,0-17.417h-.792v9.5m-12.667,0H43.666M26.249,38.917l1.583-4.75m9.5,0,1.583,4.75M21.5,42.083a3.167,3.167,0,1,0,.927-2.239A3.167,3.167,0,0,0,21.5,42.083Zm15.833,0a3.167,3.167,0,1,0,.928-2.239A3.167,3.167,0,0,0,37.333,42.083Z" transform="translate(-13.916 -15.5)" fill="none" stroke="#fff" stroke-linecap="round" stroke-linejoin="round" stroke-width="2.5"/>
</svg>
