<svg width="41" height="42" viewBox="0 0 41 42" fill="none" xmlns="http://www.w3.org/2000/svg">
<mask id="mask0_524_7324" style="mask-type:luminance" maskUnits="userSpaceOnUse" x="0" y="0" width="41" height="42">
<path d="M40.2109 0.976562H0.046875V41.1406H40.2109V0.976562Z" fill="white"/>
</mask>
<g mask="url(#mask0_524_7324)">
<path d="M20.4089 3.96582C17.0862 3.96582 13.8381 4.95112 11.0753 6.79713C8.31257 8.64314 6.15927 11.2669 4.88772 14.3367C3.61617 17.4065 3.28347 20.7845 3.9317 24.0433C4.57993 27.3022 6.17998 30.2957 8.5295 32.6452C10.879 34.9947 13.8725 36.5948 17.1314 37.243C20.3903 37.8912 23.7682 37.5585 26.838 36.287C29.9078 35.0154 32.5316 32.8621 34.3776 30.0994C36.2236 27.3367 37.2089 24.0885 37.2089 20.7658C37.2089 18.5596 36.7743 16.375 35.9301 14.3367C35.0858 12.2985 33.8483 10.4465 32.2883 8.88643C30.7283 7.3264 28.8762 6.08892 26.838 5.24464C24.7997 4.40037 22.6151 3.96582 20.4089 3.96582ZM9.67189 28.7898C7.91752 26.481 6.96769 23.6611 6.96769 20.7613C6.96769 17.8616 7.91752 15.0416 9.67189 12.7328C10.9184 13.6675 11.9301 14.8796 12.627 16.2732C13.3238 17.6667 13.6866 19.2033 13.6866 20.7613C13.6866 22.3193 13.3238 23.856 12.627 25.2495C11.9301 26.643 10.9184 27.8551 9.67189 28.7898ZM20.4089 34.1978C17.3534 34.2009 14.3891 33.1577 12.0089 31.2418C13.5811 29.9847 14.8503 28.39 15.7225 26.5757C16.5948 24.7615 17.0476 22.7743 17.0476 20.7613C17.0476 18.7483 16.5948 16.7611 15.7225 14.9469C14.8503 13.1327 13.5811 11.538 12.0089 10.2808C14.3901 8.36661 17.3537 7.32311 20.4089 7.32311C23.4641 7.32311 26.4277 8.36661 28.8089 10.2808C27.2367 11.538 25.9675 13.1327 25.0953 14.9469C24.223 16.7611 23.7701 18.7483 23.7701 20.7613C23.7701 22.7743 24.223 24.7615 25.0953 26.5757C25.9675 28.39 27.2367 29.9847 28.8089 31.2418C26.4287 33.1577 23.4643 34.2009 20.4089 34.1978ZM31.1419 28.7898C29.8954 27.8551 28.8837 26.643 28.1868 25.2495C27.49 23.856 27.1272 22.3193 27.1272 20.7613C27.1272 19.2033 27.49 17.6667 28.1868 16.2732C28.8837 14.8796 29.8954 13.6675 31.1419 12.7328C32.8963 15.0416 33.8461 17.8616 33.8461 20.7613C33.8461 23.6611 32.8963 26.481 31.1419 28.7898Z" fill="white"/>
</g>
</svg>
