<svg xmlns="http://www.w3.org/2000/svg" width="27.5" height="26.125" viewBox="0 0 27.5 26.125">
  <path id="Path_12601" data-name="Path 12601" d="M42.5,22.938H38.375v-2.75a2.74,2.74,0,0,0-2.75-2.75h-8.25a2.74,2.74,0,0,0-2.75,2.75v2.75H20.5a2.74,2.74,0,0,0-2.75,2.75V40.813a2.74,2.74,0,0,0,2.75,2.75h22a2.74,2.74,0,0,0,2.75-2.75V25.688A2.74,2.74,0,0,0,42.5,22.938Zm-15.125-2.75h8.25v2.75h-8.25ZM42.5,40.813h-22v-2.75h22Zm0-6.875h-22v-8.25h4.125v2.75h2.75v-2.75h8.25v2.75h2.75v-2.75H42.5Z" transform="translate(-17.75 -17.438)" fill="#fff"/>
</svg>
