<svg xmlns="http://www.w3.org/2000/svg" width="31.79" height="27.833" viewBox="0 0 31.79 27.833">
  <path id="Path_12590" data-name="Path 12590" d="M16.75,35.438a3.912,3.912,0,0,0,4.75-1.271,3.919,3.919,0,0,1,6.333,0,3.919,3.919,0,0,0,6.333,0,3.919,3.919,0,0,1,6.333,0,4.02,4.02,0,0,0,4.75,1.271m-28.5,8.229h28.5V31a4.75,4.75,0,0,0-4.75-4.75h-19A4.75,4.75,0,0,0,16.75,31ZM31,18.333l2.32,2.594a3.167,3.167,0,1,1-4.774.157Z" transform="translate(-15.106 -17.083)" fill="none" stroke="#fff" stroke-linecap="round" stroke-linejoin="round" stroke-width="2.5"/>
</svg>
