<svg xmlns="http://www.w3.org/2000/svg" width="26.812" height="29.25" viewBox="0 0 26.812 29.25">
  <path id="Path_12595" data-name="Path 12595" d="M43.72,22.749l.016-.016-6.045-6.045L35.969,18.41,39.4,21.839a4.056,4.056,0,0,0,1.446,7.849,4.153,4.153,0,0,0,1.625-.341V41.063a1.625,1.625,0,0,1-3.25,0V33.75a3.26,3.26,0,0,0-3.25-3.25H34.344V19.125a3.26,3.26,0,0,0-3.25-3.25h-9.75a3.259,3.259,0,0,0-3.25,3.25v26h16.25V32.938h2.437v8.125a4.063,4.063,0,1,0,8.125,0V25.625A4.065,4.065,0,0,0,43.72,22.749ZM31.094,28.875v13h-9.75V19.125h9.75Zm9.75-1.625a1.625,1.625,0,1,1,1.625-1.625A1.63,1.63,0,0,1,40.844,27.25Zm-13-6.5-6.5,12.188h3.25V40.25l6.5-11.375h-3.25Z" transform="translate(-18.094 -15.875)" fill="#fff"/>
</svg>
