<svg width="41" height="41" viewBox="0 0 41 41" fill="none" xmlns="http://www.w3.org/2000/svg">
<mask id="mask0_524_7401" style="mask-type:luminance" maskUnits="userSpaceOnUse" x="0" y="0" width="41" height="41">
<path d="M40.2319 0.533203H0.0678711V40.6972H40.2319V0.533203Z" fill="white"/>
</mask>
<g mask="url(#mask0_524_7401)">
<path d="M37.2209 15.279H29.1759L21.8199 4.26102C21.6628 4.03859 21.4536 3.85803 21.2106 3.73513C20.9676 3.61223 20.6981 3.55073 20.4259 3.55602C20.1517 3.5503 19.8805 3.61339 19.6369 3.73951C19.3934 3.86564 19.1854 4.05078 19.0319 4.27802L11.6749 15.278H3.62988C3.18455 15.2793 2.75785 15.4569 2.44305 15.7719C2.12824 16.0869 1.95094 16.5137 1.94988 16.959C1.94747 17.1127 1.9701 17.2657 2.01688 17.412L6.28288 32.982C6.47712 33.688 6.89797 34.3106 7.48068 34.754C8.06339 35.1974 8.77566 35.437 9.50788 35.436H31.3429C32.0763 35.4351 32.7895 35.1953 33.3744 34.7528C33.9594 34.3104 34.3843 33.6895 34.5849 32.984L38.8499 17.413L38.8999 16.96C38.8988 16.5149 38.7217 16.0882 38.4071 15.7732C38.0925 15.4583 37.666 15.2806 37.2209 15.279ZM20.4209 8.22502L25.1209 15.279H15.7229L20.4209 8.22502ZM31.3379 32.075L9.51988 32.092L5.82988 18.636H35.0379L31.3379 32.075ZM20.4249 21.998C19.7605 21.998 19.1111 22.195 18.5587 22.5641C18.0063 22.9332 17.5758 23.4578 17.3216 24.0716C17.0673 24.6854 17.0008 25.3607 17.1304 26.0123C17.26 26.6639 17.5799 27.2624 18.0497 27.7322C18.5195 28.202 19.118 28.5219 19.7696 28.6515C20.4212 28.7811 21.0965 28.7146 21.7103 28.4603C22.3241 28.2061 22.8487 27.7756 23.2178 27.2232C23.5869 26.6708 23.7839 26.0214 23.7839 25.357C23.7812 24.467 23.4265 23.6141 22.7971 22.9848C22.1678 22.3554 21.3149 22.0007 20.4249 21.998Z" fill="white"/>
</g>
</svg>
