<svg width="33" height="33" viewBox="0 0 33 33" fill="none" xmlns="http://www.w3.org/2000/svg">
<path d="M0.570069 29.3997H29.2501V32.9847H0.570069V29.3997ZM29.2501 0.720723H0.570069V18.6457C0.569806 19.5874 0.755084 20.5199 1.11532 21.3899C1.47555 22.2599 2.00368 23.0504 2.66953 23.7163C3.33538 24.3821 4.12589 24.9102 4.99592 25.2705C5.86594 25.6307 6.79842 25.816 7.74007 25.8157H18.4951C19.4367 25.816 20.3692 25.6307 21.2392 25.2705C22.1092 24.9102 22.8998 24.3821 23.5656 23.7163C24.2315 23.0504 24.7596 22.2599 25.1198 21.3899C25.4801 20.5199 25.6653 19.5874 25.6651 18.6457V13.2677H29.2501C29.7209 13.2679 30.1871 13.1752 30.6221 12.9951C31.0572 12.815 31.4524 12.5509 31.7853 12.218C32.1183 11.8851 32.3823 11.4898 32.5624 11.0548C32.7426 10.6198 32.8352 10.1535 32.8351 9.68272V4.30572C32.8367 3.83449 32.745 3.3676 32.5654 2.93193C32.3858 2.49626 32.1218 2.10042 31.7886 1.76721C31.4554 1.434 31.0595 1.16999 30.6239 0.990386C30.1882 0.810785 29.7213 0.719138 29.2501 0.720723ZM22.0801 18.6457C22.0761 19.5953 21.6971 20.5049 21.0257 21.1763C20.3542 21.8478 19.4447 22.2268 18.4951 22.2307H7.74007C6.79048 22.2268 5.88092 21.8478 5.20945 21.1763C4.53799 20.5049 4.15902 19.5953 4.15507 18.6457V4.30572H22.0801V18.6457ZM29.2501 9.68372H25.6651V4.30572H29.2501V9.68372Z" fill="white"/>
</svg>
