<svg xmlns="http://www.w3.org/2000/svg" width="33.048" height="24.667" viewBox="0 0 33.048 24.667">
  <path id="Path_12575" data-name="Path 12575" d="M19.916,38.917a3.167,3.167,0,1,0,6.333,0m-6.333,0a3.167,3.167,0,1,1,6.333,0m-6.333,0H16.749V32.584m9.5,6.333h9.5m0,0a3.167,3.167,0,1,0,6.333,0m-6.333,0a3.167,3.167,0,1,1,6.333,0m0,0h3.167v-9.5m-30.083-9.5H32.583v19m12.667-9.5H32.583m12.667,0L40.5,21.5H32.583M16.749,26.25h6.333" transform="translate(-13.916 -18.667)" fill="none" stroke="#fff" stroke-linecap="round" stroke-linejoin="round" stroke-width="2.5"/>
</svg>
