<svg xmlns="http://www.w3.org/2000/svg" width="27.833" height="27.839" viewBox="0 0 27.833 27.839">
  <path id="Path_12585" data-name="Path 12585" d="M31,20.708c-1.7-.928-4.09-2.375-6.333-2.375-3.325,0-6.333,1.974-6.333,7.917,0,7.757,1.672,13.316,4.229,16.684.907,1.2,3.119.825,4.064-.374a15.507,15.507,0,0,0,2-4.435C29.088,36.9,30.038,35.743,31,35.75s1.916,1.167,2.375,2.375a15.492,15.492,0,0,0,2,4.433c.945,1.2,3.167,1.572,4.064.375C42,39.565,43.667,34.008,43.667,26.25c0-5.922-3.021-7.917-6.333-7.917C35.081,18.333,32.711,19.775,31,20.708Zm0,0,4.75,2.375" transform="translate(-17.084 -17.083)" fill="none" stroke="#fff" stroke-linecap="round" stroke-linejoin="round" stroke-width="2.5"/>
</svg>
