<svg width="41" height="41" viewBox="0 0 41 41" fill="none" xmlns="http://www.w3.org/2000/svg">
<mask id="mask0_524_7382" style="mask-type:luminance" maskUnits="userSpaceOnUse" x="0" y="0" width="41" height="41">
<path d="M40.7211 0.533203H0.557129V40.6972H40.7211V0.533203Z" fill="white"/>
</mask>
<g mask="url(#mask0_524_7382)">
<path d="M30.649 3.53948L10.494 3.52248C10.0525 3.52103 9.61507 3.60692 9.20688 3.77521C8.79869 3.9435 8.42782 4.19087 8.11562 4.50307C7.80341 4.81527 7.55605 5.18614 7.38776 5.59433C7.21947 6.00252 7.13357 6.43996 7.13503 6.88148V33.7545C7.13357 34.196 7.21947 34.6334 7.38776 35.0416C7.55605 35.4498 7.80341 35.8207 8.11562 36.1329C8.42782 36.4451 8.79869 36.6925 9.20688 36.8608C9.61507 37.029 10.0525 37.1149 10.494 37.1135H30.649C31.0905 37.1149 31.528 37.029 31.9362 36.8608C32.3444 36.6925 32.7152 36.4451 33.0274 36.1329C33.3396 35.8207 33.587 35.4498 33.7553 35.0416C33.9236 34.6334 34.0095 34.196 34.008 33.7545V6.88148C34.0092 6.44083 33.923 6.00432 33.7545 5.59719C33.5859 5.19007 33.3382 4.82041 33.0258 4.50962C32.7135 4.19882 32.3426 3.95306 31.9346 3.78653C31.5266 3.62001 31.0897 3.53604 30.649 3.53948ZM30.649 33.7555H10.494L10.477 6.88248H30.649V33.7555Z" fill="white"/>
<path d="M13.8541 11.9205C14.1864 11.9205 14.5112 11.822 14.7875 11.6373C15.0638 11.4527 15.2792 11.1903 15.4063 10.8832C15.5334 10.5762 15.5666 10.2383 15.5017 9.91243C15.4368 9.58651 15.2767 9.28717 15.0417 9.05226C14.8066 8.81734 14.5072 8.65742 14.1812 8.59271C13.8553 8.528 13.5174 8.56141 13.2105 8.68872C12.9035 8.81603 12.6412 9.03151 12.4567 9.30792C12.2722 9.58432 12.1739 9.90923 12.1741 10.2415C12.1743 10.6869 12.3515 11.114 12.6665 11.4288C12.9815 11.7437 13.4087 11.9205 13.8541 11.9205Z" fill="white"/>
<path d="M18.8931 11.9205C19.2255 11.9205 19.5503 11.822 19.8266 11.6373C20.1029 11.4527 20.3182 11.1903 20.4453 10.8832C20.5725 10.5762 20.6057 10.2383 20.5408 9.91243C20.4759 9.58651 20.3158 9.28717 20.0807 9.05226C19.8457 8.81734 19.5462 8.65742 19.2203 8.59271C18.8943 8.528 18.5565 8.56141 18.2495 8.68872C17.9426 8.81603 17.6803 9.03151 17.4958 9.30792C17.3113 9.58432 17.2129 9.90923 17.2131 10.2415C17.2134 10.6869 17.3905 11.114 17.7055 11.4288C18.0206 11.7437 18.4477 11.9205 18.8931 11.9205Z" fill="white"/>
<path d="M20.5741 32.0793C22.2354 32.0793 23.8595 31.5867 25.2409 30.6636C26.6222 29.7406 27.6989 28.4287 28.3347 26.8938C28.9704 25.3589 29.1368 23.67 28.8127 22.0405C28.4886 20.4111 27.6885 18.9144 26.5138 17.7396C25.339 16.5648 23.8423 15.7648 22.2128 15.4407C20.5834 15.1166 18.8944 15.2829 17.3595 15.9187C15.8246 16.5545 14.5127 17.6311 13.5897 19.0125C12.6667 20.3939 12.1741 22.0179 12.1741 23.6793C12.1741 25.9071 13.0591 28.0437 14.6344 29.619C16.2097 31.1943 18.3463 32.0793 20.5741 32.0793ZM24.5381 19.7173C25.5815 20.7703 26.1655 22.1936 26.1621 23.676C26.1588 25.1584 25.5684 26.5792 24.5202 27.6274C23.4719 28.6756 22.0512 29.266 20.5688 29.2693C19.0864 29.2727 17.663 28.6888 16.6101 27.6453L24.5381 19.7173Z" fill="white"/>
</g>
</svg>
