<svg xmlns="http://www.w3.org/2000/svg" width="32.583" height="31" viewBox="0 0 32.583 31">
  <path id="Path_12593" data-name="Path 12593" d="M21.5,18.333H19.917A3.167,3.167,0,0,0,16.75,21.5v5.542a8.708,8.708,0,0,0,17.417,0V21.5A3.167,3.167,0,0,0,31,18.333H29.417M24.667,35.75a9.5,9.5,0,0,0,19,0V31m0,0a3.167,3.167,0,1,1,2.239-.927A3.167,3.167,0,0,1,43.667,31ZM29.417,16.75v3.167M21.5,16.75v3.167" transform="translate(-15.5 -15.5)" fill="none" stroke="#fff" stroke-linecap="round" stroke-linejoin="round" stroke-width="2.5"/>
</svg>
