<svg width="41" height="41" viewBox="0 0 41 41" fill="none" xmlns="http://www.w3.org/2000/svg">
<mask id="mask0_524_7359" style="mask-type:luminance" maskUnits="userSpaceOnUse" x="0" y="0" width="41" height="41">
<path d="M40.3001 0.179688H0.287109V40.3437H40.3001V0.179688Z" fill="white"/>
</mask>
<g mask="url(#mask0_524_7359)">
<path d="M19.5511 18.1176C15.7511 17.1266 14.5311 16.1026 14.5311 14.5066C14.5311 12.6756 16.2211 11.3996 19.0491 11.3996C22.0271 11.3996 23.1321 12.8276 23.2321 14.9266H26.9321C26.8962 13.4086 26.3449 11.948 25.3687 10.7849C24.3926 9.6218 23.0498 8.8254 21.5611 8.52663V4.84863H16.5411V8.47663C13.2951 9.18163 10.6851 11.2986 10.6851 14.5396C10.6851 18.4196 13.8851 20.3506 18.5491 21.4766C22.7321 22.4846 23.5691 23.9626 23.5691 25.5246C23.5691 26.6836 22.7491 28.5306 19.0511 28.5306C15.6041 28.5306 14.2511 26.9856 14.0651 25.0036H10.3811C10.5811 28.6816 13.3261 30.7476 16.5391 31.4366V35.0816H21.5611V31.4696C24.8211 30.8486 27.4151 28.9486 27.4151 25.5076C27.4151 20.7376 23.3491 19.1086 19.5511 18.1176Z" fill="white"/>
</g>
</svg>
