<svg width="42" height="41" viewBox="0 0 42 41" fill="none" xmlns="http://www.w3.org/2000/svg">
<mask id="mask0_524_7343" style="mask-type:luminance" maskUnits="userSpaceOnUse" x="0" y="0" width="42" height="41">
<path d="M41.5689 0.179688H0.555908V40.3437H41.5689V0.179688Z" fill="white"/>
</mask>
<g mask="url(#mask0_524_7343)">
<path d="M27.7038 9.88695V23.3239H32.6938V36.7609H36.0198V3.16895C31.4298 3.16895 27.7038 6.93095 27.7038 9.88695ZM19.3838 14.9259H16.0628V3.16895H12.7358V14.9259H9.40983V3.16895H6.08383V14.9259C6.07935 15.8039 6.24788 16.6741 6.57977 17.4869C6.91167 18.2996 7.40044 19.0391 8.01817 19.6629C8.63589 20.2868 9.37046 20.7828 10.1799 21.1227C10.9894 21.4626 11.8579 21.6398 12.7358 21.6439V36.7609H16.0618V21.6439C16.9398 21.6398 17.8083 21.4626 18.6177 21.1227C19.4272 20.7828 20.1618 20.2868 20.7795 19.6629C21.3972 19.0391 21.886 18.2996 22.2179 17.4869C22.5498 16.6741 22.7183 15.8039 22.7138 14.9259V3.16895H19.3838V14.9259Z" fill="white"/>
</g>
</svg>
