<svg xmlns="http://www.w3.org/2000/svg" width="29" height="37" viewBox="0 0 29 37">
  <path id="Path_12622" data-name="Path 12622" d="M31,28.111V16.778a3.811,3.811,0,0,1,1.088-2.671A3.683,3.683,0,0,1,34.714,13h3.714v1.889a3.811,3.811,0,0,1-1.088,2.671,3.683,3.683,0,0,1-2.626,1.107H31m-3.714,8.5a7.773,7.773,0,0,0,7.429,0M18,33.778a13.419,13.419,0,0,0,.99,5.06,13.239,13.239,0,0,0,2.818,4.29,12.989,12.989,0,0,0,4.218,2.866,12.8,12.8,0,0,0,9.95,0,12.989,12.989,0,0,0,4.218-2.866,13.24,13.24,0,0,0,2.818-4.29,13.431,13.431,0,0,0,0-10.12,13.24,13.24,0,0,0-2.818-4.29,12.989,12.989,0,0,0-4.218-2.866,12.8,12.8,0,0,0-9.95,0,12.989,12.989,0,0,0-4.218,2.866,13.239,13.239,0,0,0-2.818,4.29A13.418,13.418,0,0,0,18,33.778Z" transform="translate(-16.5 -11.5)" fill="none" stroke="#fff" stroke-linecap="round" stroke-linejoin="round" stroke-width="3"/>
</svg>
