<svg xmlns="http://www.w3.org/2000/svg" width="31" height="31" viewBox="0 0 31 31">
  <path id="Path_12586" data-name="Path 12586" d="M19.917,29.417a3.167,3.167,0,0,1,3.167,3.167V35.75H38.917V32.583a3.167,3.167,0,0,1,3.167-3.167m-22.167,0a3.167,3.167,0,0,0-3.167,3.167v6.333a3.167,3.167,0,0,0,3.167,3.167H42.083a3.167,3.167,0,0,0,3.167-3.167V32.583a3.167,3.167,0,0,0-3.167-3.167m-22.167,0V21.5a4.75,4.75,0,0,1,4.75-4.75H37.333a4.75,4.75,0,0,1,4.75,4.75v7.917M21.5,42.083V45.25m19-3.167V45.25" transform="translate(-15.5 -15.5)" fill="none" stroke="#fff" stroke-linecap="round" stroke-linejoin="round" stroke-width="2.5"/>
</svg>
