<svg width="40" height="41" viewBox="0 0 40 41" fill="none" xmlns="http://www.w3.org/2000/svg">
<mask id="mask0_524_7407" style="mask-type:luminance" maskUnits="userSpaceOnUse" x="-1" y="0" width="42" height="41">
<path d="M40.0049 0.533203H-0.00805664V40.6972H40.0049V0.533203Z" fill="white"/>
</mask>
<g mask="url(#mask0_524_7407)">
<path d="M33.7719 10.2401H30.1239C30.399 9.48272 30.4874 8.67008 30.3813 7.87124C30.2753 7.07239 29.9781 6.31093 29.5149 5.65151C29.0517 4.99209 28.4362 4.45418 27.7207 4.08348C27.0051 3.71277 26.2107 3.5202 25.4049 3.52213C24.5743 3.52351 23.7572 3.73143 23.027 4.12716C22.2968 4.5229 21.6765 5.09403 21.2219 5.78913L20.3849 6.91413L19.5529 5.77313C18.8769 4.74816 17.8484 4.00683 16.6623 3.68969C15.4761 3.37255 14.2149 3.50165 13.1176 4.05251C12.0203 4.60337 11.1633 5.5377 10.709 6.67837C10.2547 7.81903 10.2347 9.08673 10.6529 10.2411H6.99988C6.56001 10.2407 6.12443 10.3275 5.71834 10.4965C5.31224 10.6656 4.94369 10.9134 4.63401 11.2258C4.32432 11.5382 4.07966 11.9089 3.91417 12.3164C3.74868 12.724 3.66565 13.1603 3.66988 13.6001L3.65288 32.0751C3.65051 32.5159 3.73537 32.9528 3.90258 33.3606C4.06979 33.7684 4.31605 34.1391 4.62716 34.4514C4.93828 34.7636 5.3081 35.0112 5.71532 35.1798C6.12254 35.3485 6.55911 35.4349 6.99988 35.4341H33.7719C34.2126 35.4349 34.6492 35.3485 35.0564 35.1798C35.4637 35.0112 35.8335 34.7636 36.1446 34.4514C36.4557 34.1391 36.702 33.7684 36.8692 33.3606C37.0364 32.9528 37.1213 32.5159 37.1189 32.0751V13.5991C37.1213 13.1584 37.0364 12.7215 36.8692 12.3137C36.702 11.9058 36.4557 11.5351 36.1446 11.2229C35.8335 10.9107 35.4637 10.6631 35.0564 10.4944C34.6492 10.3258 34.2126 10.2393 33.7719 10.2401ZM25.4059 6.88113C25.7384 6.87975 26.0639 6.9771 26.3411 7.16085C26.6183 7.34461 26.8348 7.6065 26.963 7.91336C27.0912 8.22021 27.1255 8.55822 27.0614 8.88457C26.9974 9.21092 26.838 9.51092 26.6033 9.74657C26.3686 9.98223 26.0693 10.1429 25.7432 10.2083C25.4171 10.2737 25.079 10.2409 24.7716 10.1139C24.4642 9.98696 24.2014 9.77164 24.0165 9.49521C23.8316 9.21879 23.7329 8.8937 23.7329 8.56113C23.7331 8.11703 23.9091 7.69108 24.2224 7.3763C24.5357 7.06153 24.9618 6.88351 25.4059 6.88113ZM15.3659 6.88113C15.6984 6.87975 16.0239 6.9771 16.3011 7.16085C16.5783 7.34461 16.7948 7.6065 16.923 7.91336C17.0512 8.22021 17.0855 8.55822 17.0214 8.88457C16.9574 9.21092 16.798 9.51092 16.5633 9.74657C16.3286 9.98223 16.0293 10.1429 15.7032 10.2083C15.3771 10.2737 15.039 10.2409 14.7316 10.1139C14.4242 9.98696 14.1614 9.77164 13.9765 9.49521C13.7916 9.21879 13.6929 8.8937 13.6929 8.56113C13.6931 8.11686 13.8693 7.69075 14.1828 7.37595C14.4962 7.06115 14.9216 6.88325 15.3659 6.88113ZM33.7719 32.0751H6.99988V28.7161H33.7719V32.0751ZM33.7719 23.6751H6.99988V13.5991H15.4999L12.0199 18.3521L14.7299 20.3221L20.3859 12.5961L26.0409 20.3221L28.7529 18.3531L25.2729 13.6001H33.7729L33.7719 23.6751Z" fill="white"/>
</g>
</svg>
