<svg xmlns="http://www.w3.org/2000/svg" xmlns:xlink="http://www.w3.org/1999/xlink" width="28" height="28" viewBox="0 0 28 28">
  <defs>
    <clipPath id="clip-path">
      <rect id="Rectangle_3476" data-name="Rectangle 3476" width="28" height="28" transform="translate(17 17)" fill="#fff"/>
    </clipPath>
  </defs>
  <g id="Group_1486" data-name="Group 1486" transform="translate(-17 -17)" clip-path="url(#clip-path)">
    <path id="Path_12620" data-name="Path 12620" d="M19.625,17.875h22.75a1.714,1.714,0,0,1,1.75,1.75v22.75a1.714,1.714,0,0,1-1.75,1.75H19.625a1.714,1.714,0,0,1-1.75-1.75V19.625A1.714,1.714,0,0,1,19.625,17.875Z" fill="none" stroke="#fff" stroke-linecap="round" stroke-linejoin="round" stroke-width="2.5"/>
    <path id="Path_12621" data-name="Path 12621" d="M21.375,31.875h3.5l2.637-6.592a.874.874,0,0,1,1.633.034L32.986,36.2a.875.875,0,0,0,1.584.144l2.555-4.465h3.5" fill="none" stroke="#fff" stroke-linecap="round" stroke-linejoin="round" stroke-width="2.5"/>
  </g>
</svg>
