<svg width="41" height="40" viewBox="0 0 41 40" fill="none" xmlns="http://www.w3.org/2000/svg">
<mask id="mask0_524_7432" style="mask-type:luminance" maskUnits="userSpaceOnUse" x="0" y="0" width="41" height="40">
<path d="M40.1069 0H0.106934V40H40.1069V0Z" fill="white"/>
</mask>
<g mask="url(#mask0_524_7432)">
<path d="M26.519 21.5075C31.689 16.7875 36.559 12.3704 36.559 8.57445C36.568 7.84575 36.4315 7.12257 36.1574 6.44733C35.8833 5.77208 35.4771 5.15837 34.9627 4.64218C34.4483 4.12598 33.836 3.7177 33.1617 3.44129C32.4874 3.16487 31.7647 3.02587 31.036 3.03245C30.1769 3.04121 29.3295 3.23305 28.5505 3.59517C27.7714 3.95729 27.0785 4.48137 26.518 5.13245C25.9564 4.48284 25.2634 3.95975 24.4848 3.59775C23.7062 3.23576 22.8596 3.04308 22.001 3.03245C21.2722 3.026 20.5495 3.16513 19.8753 3.44167C19.201 3.71821 18.5888 4.1266 18.0745 4.64289C17.5601 5.15917 17.1541 5.77296 16.8801 6.44825C16.6061 7.12355 16.4697 7.84675 16.479 8.57545C16.479 12.3705 21.348 16.7885 26.519 21.5075ZM22.001 6.39145C22.3766 6.39715 22.7468 6.48245 23.0871 6.64173C23.4273 6.801 23.7299 7.03063 23.975 7.31545L26.518 10.3214L29.061 7.31545C29.306 7.03063 29.6086 6.801 29.9488 6.64173C30.2891 6.48245 30.6593 6.39715 31.035 6.39145C31.3228 6.38584 31.6088 6.43853 31.8757 6.54636C32.1427 6.65418 32.3851 6.8149 32.5883 7.01885C32.7915 7.2228 32.9513 7.46576 33.0581 7.7331C33.165 8.00043 33.2166 8.28663 33.21 8.57445C33.21 10.4554 29.797 13.8984 26.517 16.9555C23.237 13.8984 19.824 10.4384 19.824 8.57445C19.8173 8.28646 19.869 8.00009 19.9759 7.73262C20.0829 7.46514 20.2429 7.22209 20.4463 7.01812C20.6498 6.81414 20.8924 6.65346 21.1595 6.54576C21.4267 6.43806 21.7129 6.38557 22.001 6.39145Z" fill="white"/>
<path d="M31.5379 26.5484H28.1909C28.1905 25.5645 27.891 24.6039 27.3322 23.794C26.7734 22.9841 25.9817 22.3631 25.0619 22.0134L14.7549 18.1484H1.41895V36.6234H11.4589V34.2054L23.1719 37.4634L36.5579 33.2634V31.5834C36.5595 30.9231 36.4309 30.2688 36.1793 29.6582C35.9278 29.0476 35.5583 28.4926 35.0921 28.0249C34.6258 27.5573 34.0719 27.1862 33.462 26.9328C32.8522 26.6794 32.1983 26.5488 31.5379 26.5484ZM4.76595 33.2644V21.5074H8.11295V33.2644H4.76595ZM23.1189 33.9484L11.4589 30.7114V21.5114H14.1529L23.8909 25.1484C24.1716 25.2581 24.4127 25.4497 24.5828 25.6984C24.753 25.947 24.8443 26.2411 24.8449 26.5424C23.5584 26.5259 22.2736 26.4418 20.9959 26.2904L17.0139 24.9634L15.9599 28.1584L19.9419 29.4854C20.7938 29.7732 21.6868 29.9208 22.5859 29.9224H31.5379C31.8517 29.9235 32.1589 30.0122 32.425 30.1784C32.691 30.3447 32.9054 30.5819 33.0439 30.8634L23.1189 33.9484Z" fill="white"/>
</g>
</svg>
