<svg xmlns="http://www.w3.org/2000/svg" width="27.833" height="27.833" viewBox="0 0 27.833 27.833">
  <path id="Path_12587" data-name="Path 12587" d="M24.667,24.666V21.5a3.167,3.167,0,0,1,3.167-3.167h6.333A3.167,3.167,0,0,1,37.334,21.5v3.167m-9.5,9.5h6.333M31,31v6.333m-12.667-9.5A3.167,3.167,0,0,1,21.5,24.666h19a3.167,3.167,0,0,1,3.167,3.167V40.5A3.167,3.167,0,0,1,40.5,43.666h-19A3.167,3.167,0,0,1,18.334,40.5Z" transform="translate(-17.084 -17.083)" fill="none" stroke="#fff" stroke-linecap="round" stroke-linejoin="round" stroke-width="2.5"/>
</svg>
