<svg xmlns="http://www.w3.org/2000/svg" xmlns:xlink="http://www.w3.org/1999/xlink" width="38" height="38" viewBox="0 0 38 38">
  <defs>
    <clipPath id="clip-path">
      <rect id="Rectangle_3461" data-name="Rectangle 3461" width="38" height="38" transform="translate(12 12)" fill="#fff"/>
    </clipPath>
  </defs>
  <g id="Group_1483" data-name="Group 1483" transform="translate(-12 -12)" clip-path="url(#clip-path)">
    <g id="Group_1482" data-name="Group 1482">
      <path id="Path_12594" data-name="Path 12594" d="M26.25,35.75h.016M16.75,21.5l2.725,16.354A3.167,3.167,0,0,0,22.6,40.5H39.4a3.167,3.167,0,0,0,3.124-2.646L45.25,21.5M31,35.75h.016m4.734,0h.016M35.75,31h.016M31,31h.016M26.25,31h.016M17.52,26.195a7.658,7.658,0,0,0,.814.055,5.673,5.673,0,0,0,3.167-.792,5.727,5.727,0,0,1,3.167-.792,5.726,5.726,0,0,1,3.167.792A5.673,5.673,0,0,0,31,26.25a5.674,5.674,0,0,0,3.167-.792,5.726,5.726,0,0,1,3.167-.792,5.727,5.727,0,0,1,3.167.792,5.673,5.673,0,0,0,3.167.792,6.609,6.609,0,0,0,.8-.054" fill="none" stroke="#fff" stroke-linecap="round" stroke-linejoin="round" stroke-width="2.5"/>
    </g>
  </g>
</svg>
