<svg xmlns="http://www.w3.org/2000/svg" width="30.071" height="30.818" viewBox="0 0 30.071 30.818">
  <path id="Path_12572" data-name="Path 12572" d="M33.431,25.573l2.949-2.95A3,3,0,1,1,41.5,20.5a3,3,0,1,1-2.119,5.121l-2.73,2.732M17.615,30.288c1.755-1.757,6.506.142,10.605,4.244s6,8.848,4.242,10.606S25.956,45,21.857,40.894,15.857,32.046,17.615,30.288Zm0,0c5.858-5.858,13.931-7.282,18.03-3.181s2.676,12.172-3.181,18.031M24.251,37l1.5,1.5" transform="translate(-15.683 -16.25)" fill="none" stroke="#fff" stroke-linecap="round" stroke-linejoin="round" stroke-width="2.5"/>
</svg>
