<svg xmlns="http://www.w3.org/2000/svg" width="29.333" height="24" viewBox="0 0 29.333 24">
  <path id="Path_12607" data-name="Path 12607" d="M41.667,20.333a4,4,0,0,0-4,4v.387L31,19l-6.667,5.72v-.387a4,4,0,0,0-8,0V43H29.667V36.333a1.333,1.333,0,0,1,2.667,0V43H45.667V24.333A4,4,0,0,0,41.667,20.333Zm0,2.667A1.337,1.337,0,0,1,43,24.333v1.333H40.334V24.333A1.337,1.337,0,0,1,41.667,23ZM20.334,23a1.337,1.337,0,0,1,1.333,1.333v1.333H19V24.333A1.337,1.337,0,0,1,20.334,23ZM19,40.333v-12h2.667v12Zm18.667,0H35v-4a4,4,0,1,0-8,0v4H24.334V28.227L31,22.507l6.667,5.72Zm2.667,0v-12H43v12Z" transform="translate(-16.334 -19)" fill="#fff"/>
</svg>
