<svg xmlns="http://www.w3.org/2000/svg" width="27.833" height="31" viewBox="0 0 27.833 31">
  <path id="Path_12576" data-name="Path 12576" d="M21.5,45.25h19a3.167,3.167,0,0,0,3.167-3.167V32.868a7.917,7.917,0,0,0-.836-3.54l-1.495-2.989A7.919,7.919,0,0,1,40.5,22.8V19.917a3.167,3.167,0,0,0-3.167-3.167H24.667A3.167,3.167,0,0,0,21.5,19.917v4.75m0,20.583a3.167,3.167,0,0,1-3.167-3.167V32.868a7.917,7.917,0,0,1,.836-3.54L21.5,24.667m0,20.583a3.167,3.167,0,0,0,3.167-3.167V32.868a7.917,7.917,0,0,0-.836-3.54L21.5,24.667m7.917-1.583h3.167M31,35.75a3.167,3.167,0,1,0,.927-2.239A3.167,3.167,0,0,0,31,35.75Z" transform="translate(-17.084 -15.5)" fill="none" stroke="#fff" stroke-linecap="round" stroke-linejoin="round" stroke-width="2.5"/>
</svg>
