<svg width="41" height="41" viewBox="0 0 41 41" fill="none" xmlns="http://www.w3.org/2000/svg">
<mask id="mask0_524_7353" style="mask-type:luminance" maskUnits="userSpaceOnUse" x="0" y="0" width="41" height="41">
<path d="M40.4119 0.179688H0.398926V40.3437H40.4119V0.179688Z" fill="white"/>
</mask>
<g mask="url(#mask0_524_7353)">
<path d="M3.15186 36.7601L26.5779 28.3601L11.5179 13.2461L3.15186 36.7601ZM20.4699 26.9851L8.66986 31.2181L12.8899 19.3761L20.4699 26.9851Z" fill="white"/>
<path d="M24.1178 20.855L33.4737 11.466C33.6676 11.2704 33.8983 11.1151 34.1525 11.0092C34.4067 10.9032 34.6794 10.8486 34.9548 10.8486C35.2302 10.8486 35.5028 10.9032 35.757 11.0092C36.0112 11.1151 36.2419 11.2704 36.4358 11.466L37.4228 12.457L39.1968 10.677L38.2097 9.68603C37.7825 9.25834 37.2752 8.91905 36.7168 8.68756C36.1583 8.45607 35.5598 8.33691 34.9553 8.33691C34.3507 8.33691 33.7522 8.45607 33.1937 8.68756C32.6353 8.91905 32.128 9.25834 31.7008 9.68603L22.3438 19.074L24.1178 20.855Z" fill="white"/>
<path d="M16.6379 11.3602L15.6509 12.3512L17.4249 14.1312L18.4119 13.1402C19.2723 12.2706 19.7549 11.0966 19.7549 9.87323C19.7549 8.64986 19.2723 7.47588 18.4119 6.60623L17.4249 5.61523L15.6509 7.41523L16.6379 8.40623C17.0235 8.80115 17.2394 9.33124 17.2394 9.88323C17.2394 10.4352 17.0235 10.9653 16.6379 11.3602Z" fill="white"/>
<path d="M28.3499 19.7627L25.6899 22.4377L27.4639 24.2177L30.1239 21.5467C30.3178 21.351 30.5485 21.1958 30.8027 21.0898C31.0569 20.9838 31.3295 20.9293 31.6049 20.9293C31.8803 20.9293 32.153 20.9838 32.4072 21.0898C32.6614 21.1958 32.8921 21.351 33.0859 21.5467L35.7799 24.2467L37.5539 22.4667L34.8599 19.7667C34.433 19.3386 33.9258 18.9988 33.3674 18.7669C32.809 18.535 32.2104 18.4154 31.6058 18.415C31.0011 18.4147 30.4024 18.5335 29.8437 18.7647C29.285 18.996 28.7774 19.3351 28.3499 19.7627Z" fill="white"/>
<path d="M25.0038 9.68572L18.9968 15.7157L20.7708 17.4957L26.7778 11.4657C27.6383 10.5961 28.1209 9.42209 28.1209 8.19872C28.1209 6.97534 27.6383 5.80136 26.7778 4.93172L24.1168 2.26172L22.3428 4.04172L25.0028 6.71272C25.3894 7.11095 25.6056 7.64404 25.6058 8.19902C25.606 8.75399 25.3901 9.28723 25.0038 9.68572Z" fill="white"/>
</g>
</svg>
