<svg width="41" height="40" viewBox="0 0 41 40" fill="none" xmlns="http://www.w3.org/2000/svg">
<mask id="mask0_524_7413" style="mask-type:luminance" maskUnits="userSpaceOnUse" x="0" y="0" width="41" height="40">
<path d="M40.7041 0H0.704102V40H40.7041V0Z" fill="white"/>
</mask>
<g mask="url(#mask0_524_7413)">
<path d="M34.5701 11.8119L34.5871 11.7949L28.3631 5.55191L26.5891 7.33191L30.1201 10.8759C29.2113 11.2309 28.4544 11.8912 27.9794 12.7434C27.5044 13.5957 27.341 14.5867 27.5171 15.5464C27.6933 16.506 28.198 17.3744 28.9447 18.0024C29.6914 18.6304 30.6335 18.9788 31.6091 18.9879C32.1849 18.9844 32.754 18.8643 33.2821 18.6349V30.7449C33.2821 31.1888 33.1058 31.6144 32.792 31.9283C32.4781 32.2421 32.0524 32.4184 31.6086 32.4184C31.1648 32.4184 30.7391 32.2421 30.4253 31.9283C30.1114 31.6144 29.9351 31.1888 29.9351 30.7449V23.1869C29.9341 22.2985 29.5815 21.4465 28.9544 20.8171C28.3272 20.1878 27.4766 19.8321 26.5881 19.8279H24.9161V8.07091C24.9151 7.18245 24.5625 6.3305 23.9354 5.70113C23.3082 5.07177 22.4576 4.71614 21.5691 4.71191H11.5301C10.6417 4.71614 9.79097 5.07177 9.16385 5.70113C8.53674 6.3305 8.18415 7.18245 8.18311 8.07091V34.9439H24.9161V22.3439H27.4261V30.7439C27.4261 31.8533 27.8668 32.9173 28.6513 33.7017C29.4357 34.4862 30.4997 34.9269 31.6091 34.9269C32.7185 34.9269 33.7825 34.4862 34.5669 33.7017C35.3514 32.9173 35.7921 31.8533 35.7921 30.7439V14.7889C35.7951 13.6739 35.3556 12.6033 34.5701 11.8119ZM21.5701 22.3429V31.5809H11.5301V19.8279H21.5701V22.3429ZM21.5701 16.4639H11.5301V8.06391H21.5701V16.4639ZM31.6101 16.4639C31.2775 16.4653 30.952 16.3679 30.6748 16.1842C30.3977 16.0004 30.1812 15.7385 30.053 15.4317C29.9248 15.1248 29.8905 14.7868 29.9545 14.4605C30.0186 14.1341 30.178 13.8341 30.4127 13.5985C30.6474 13.3628 30.9467 13.2021 31.2728 13.1367C31.5988 13.0713 31.937 13.1042 32.2444 13.2311C32.5518 13.3581 32.8146 13.5734 32.9995 13.8498C33.1844 14.1263 33.2831 14.4513 33.2831 14.7839C33.2842 15.2292 33.1085 15.6568 32.7946 15.9727C32.4808 16.2886 32.0544 16.4671 31.6091 16.4689L31.6101 16.4639Z" fill="white"/>
</g>
</svg>
