<svg width="41" height="42" viewBox="0 0 41 42" fill="none" xmlns="http://www.w3.org/2000/svg">
<mask id="mask0_524_7337" style="mask-type:luminance" maskUnits="userSpaceOnUse" x="0" y="0" width="41" height="42">
<path d="M40.0159 0.976562H0.00292969V41.1406H40.0159V0.976562Z" fill="white"/>
</mask>
<g mask="url(#mask0_524_7337)">
<path d="M25.5308 17.4028C25.5322 17.0722 25.6315 16.7495 25.8162 16.4753C26.0009 16.2011 26.2626 15.9877 26.5684 15.8622C26.8743 15.7366 27.2104 15.7045 27.5345 15.7698C27.8586 15.8352 28.156 15.9951 28.3893 16.2293C28.6226 16.4636 28.7812 16.7617 28.8452 17.086C28.9092 17.4103 28.8756 17.7464 28.7488 18.0517C28.622 18.3569 28.4075 18.6178 28.1326 18.8013C27.8576 18.9849 27.5344 19.0828 27.2038 19.0828C26.7596 19.0807 26.3342 18.9028 26.0207 18.588C25.7072 18.2732 25.5311 17.8471 25.5308 17.4028ZM13.8188 15.7228H22.1848V12.3658H13.8188V15.7228ZM37.2448 13.2038V24.9098L32.5258 26.4888L29.7148 35.8778H20.5148V32.5188H17.1648V35.8778H7.96484C7.96484 35.8778 3.77884 21.6658 3.77884 16.5658C3.77581 15.355 4.01144 14.1555 4.47224 13.0358C4.93305 11.9161 5.61 10.8982 6.4644 10.0403C7.31881 9.18233 8.33391 8.50119 9.4517 8.03577C10.5695 7.57035 11.768 7.32979 12.9788 7.32782H21.3448C22.1218 6.28445 23.1319 5.43711 24.2945 4.85339C25.457 4.26967 26.7399 3.96573 28.0408 3.96582C28.3712 3.96595 28.6982 4.03126 29.0033 4.15801C29.3084 4.28476 29.5854 4.47045 29.8186 4.70446C30.0517 4.93846 30.2364 5.21617 30.3621 5.52168C30.4878 5.82718 30.5519 6.15448 30.5508 6.48482C30.5541 6.82001 30.4859 7.15204 30.3508 7.45882C30.0936 8.07833 29.9139 8.72724 29.8158 9.39082L33.6158 13.2038H37.2448ZM33.8978 16.5658H32.2248L26.3688 10.6868C26.3702 9.60288 26.5165 8.52398 26.8038 7.47882C26.0023 7.68591 25.2639 8.08677 24.6536 8.64615C24.0433 9.20553 23.5798 9.9063 23.3038 10.6868H12.9788C11.4237 10.6924 9.93429 11.3144 8.8371 12.4165C7.7399 13.5185 7.1245 15.0107 7.12584 16.5658C7.12584 19.7238 9.16684 27.7348 10.4888 32.5218H13.8188V29.1598H23.8588V32.5188H27.2218L29.8158 23.8688L33.8988 22.4918L33.8978 16.5658Z" fill="white"/>
</g>
</svg>
