<svg xmlns="http://www.w3.org/2000/svg" width="30" height="21" viewBox="0 0 30 21">
  <g id="Group_1487" data-name="Group 1487" transform="translate(-16 -20.5)">
    <path id="Path_12602" data-name="Path 12602" d="M41.5,23.5a3.009,3.009,0,0,0-3-3H34v3h4.5v3.975L33.28,34H28V26.5H22a6,6,0,0,0-6,6V37h3a4.5,4.5,0,0,0,9,0h6.72l6.78-8.475ZM19,34V32.5a3.009,3.009,0,0,1,3-3h3V34Zm4.5,4.5A1.5,1.5,0,0,1,22,37h3A1.5,1.5,0,0,1,23.5,38.5Z" fill="#fff"/>
    <path id="Path_12604" data-name="Path 12604" d="M41.5,32.5A4.5,4.5,0,1,0,46,37,4.494,4.494,0,0,0,41.5,32.5Zm0,6A1.5,1.5,0,1,1,43,37,1.5,1.5,0,0,1,41.5,38.5Z" fill="#fff"/>
  </g>
</svg>
