<svg width="41" height="41" viewBox="0 0 41 41" fill="none" xmlns="http://www.w3.org/2000/svg">
<mask id="mask0_524_7394" style="mask-type:luminance" maskUnits="userSpaceOnUse" x="0" y="0" width="41" height="41">
<path d="M40.3449 0.533203H0.180908V40.6972H40.3449V0.533203Z" fill="white"/>
</mask>
<g mask="url(#mask0_524_7394)">
<path d="M17.9038 21.9975H13.7038V16.9595H17.9038V12.7595H22.9428V16.9595H27.1428V21.9985H22.9428V26.1985H17.9038V21.9975ZM20.4238 3.52246L6.98682 8.56146V18.7895C6.98682 27.2715 12.7138 35.1825 20.4238 37.1135C28.1328 35.1815 33.8608 27.2715 33.8608 18.7895V8.56146L20.4238 3.52246ZM30.5008 18.7895C30.5008 25.5075 26.2178 31.7225 20.4228 33.6205C14.6288 31.7225 10.3458 25.5225 10.3458 18.7895V10.8955L20.4238 7.11646L30.5018 10.8955L30.5008 18.7895Z" fill="white"/>
</g>
</svg>
