<svg xmlns="http://www.w3.org/2000/svg" width="31.015" height="27.853" viewBox="0 0 31.015 27.853">
  <path id="Path_12592" data-name="Path 12592" d="M42.876,31.906,31,43.667,19.126,31.906A7.917,7.917,0,1,1,31,21.51,7.917,7.917,0,1,1,42.876,31.915M31,21.5l-5.214,5.214a1.583,1.583,0,0,0,0,2.239l.86.86a2.8,2.8,0,0,0,3.958,0l1.583-1.583a5.038,5.038,0,0,1,7.125,0l3.563,3.563m-11.083,4.75,3.167,3.167m.792-7.125,3.167,3.167" transform="translate(-15.48 -17.064)" fill="none" stroke="#fff" stroke-linecap="round" stroke-linejoin="round" stroke-width="2.5"/>
</svg>
