<svg xmlns="http://www.w3.org/2000/svg" xmlns:xlink="http://www.w3.org/1999/xlink" width="34" height="34" viewBox="0 0 34 34">
  <defs>
    <clipPath id="clip-path">
      <rect id="Rectangle_3472" data-name="Rectangle 3472" width="34" height="34" transform="translate(14 15)" fill="#fff"/>
    </clipPath>
  </defs>
  <g id="Group_1484" data-name="Group 1484" transform="translate(-14 -15)" clip-path="url(#clip-path)">
    <path id="Path_12610" data-name="Path 12610" d="M19.227,32l3.463-4.848,4.848,6.233,6.233-9.7" fill="none" stroke="#fff" stroke-linecap="round" stroke-linejoin="round" stroke-width="2.5"/>
    <path id="Path_12611" data-name="Path 12611" d="M45.366,17.634a4.155,4.155,0,0,0-2.938-1.217H19.572a4.155,4.155,0,0,0-4.156,4.156V37.195a4.156,4.156,0,0,0,4.156,4.155H42.427a4.156,4.156,0,0,0,4.155-4.155V20.573A4.155,4.155,0,0,0,45.366,17.634Z" fill="none" stroke="#fff" stroke-linecap="round" stroke-linejoin="round" stroke-width="2.5"/>
    <path id="Path_12612" data-name="Path 12612" d="M37.926,32.693V24.382h3.117a2.078,2.078,0,1,1,0,4.156,2.078,2.078,0,1,1,0,4.156Z" fill="none" stroke="#fff" stroke-linecap="round" stroke-linejoin="round" stroke-width="2.5"/>
    <path id="Path_12613" data-name="Path 12613" d="M37.926,28.537h3.117" fill="none" stroke="#fff" stroke-linecap="round" stroke-linejoin="round" stroke-width="2.5"/>
    <path id="Path_12614" data-name="Path 12614" d="M40,24.382V22.3" fill="none" stroke="#fff" stroke-linecap="round" stroke-linejoin="round" stroke-width="2.5"/>
    <path id="Path_12615" data-name="Path 12615" d="M40,32.692V34.77" fill="none" stroke="#fff" stroke-linecap="round" stroke-linejoin="round" stroke-width="2.5"/>
    <path id="Path_12616" data-name="Path 12616" d="M23.861,47.6H38.137" fill="none" stroke="#fff" stroke-linecap="round" stroke-linejoin="round" stroke-width="2.5"/>
    <path id="Path_12617" data-name="Path 12617" d="M35.468,47.6H26.533a12.632,12.632,0,0,0,2.4-6.248h4.132A12.633,12.633,0,0,0,35.468,47.6Z" fill="none" stroke="#fff" stroke-linecap="round" stroke-linejoin="round" stroke-width="1.5"/>
  </g>
</svg>
