<svg xmlns="http://www.w3.org/2000/svg" width="29.797" height="29.797" viewBox="0 0 29.797 29.797">
  <path id="Path_12570" data-name="Path 12570" d="M37.718,26.523,42.6,25.3a2.375,2.375,0,0,0,1.1-3.984L40.2,17.807a2.375,2.375,0,0,0-3.863.744l-1.976,4.612M26.522,37.719,25.3,42.6a2.375,2.375,0,0,1-3.984,1.1L17.806,40.2a2.375,2.375,0,0,1,.744-3.863l4.612-1.976m0-4.479,6.718-6.718a3.166,3.166,0,0,1,4.478,0l4.479,4.481a3.167,3.167,0,0,1,0,4.478L32.119,38.84a3.167,3.167,0,0,1-4.478,0l-4.479-4.482a3.166,3.166,0,0,1,0-4.478Z" transform="translate(-15.858 -15.859)" fill="none" stroke="#fff" stroke-linecap="round" stroke-linejoin="round" stroke-width="2.5"/>
</svg>
