<svg xmlns="http://www.w3.org/2000/svg" width="25.5" height="25.5" viewBox="0 0 25.5 25.5">
  <g id="Group_1488" data-name="Group 1488" transform="translate(-18.25 -18.25)">
    <path id="Path_12598" data-name="Path 12598" d="M40.8,22.514a2.117,2.117,0,0,0-2.012-1.431H35.25V18.25h-8.5v2.833H23.208A2.13,2.13,0,0,0,21.2,22.514L18.25,31V42.333a1.421,1.421,0,0,0,1.417,1.417h1.417A1.421,1.421,0,0,0,22.5,42.333V40.917h17v1.417a1.421,1.421,0,0,0,1.417,1.417h1.417a1.421,1.421,0,0,0,1.417-1.417V31Zm-17.1,1.4H38.282l1.473,4.25H22.231ZM40.917,38.083H21.083v-6.6l.17-.482H40.761l.156.482Z" fill="#fff"/>
    <path id="Path_12599" data-name="Path 12599" d="M24.625,36.667A2.125,2.125,0,1,0,22.5,34.542,2.125,2.125,0,0,0,24.625,36.667Z" fill="#fff"/>
    <path id="Path_12600" data-name="Path 12600" d="M37.375,36.667a2.125,2.125,0,1,0-2.125-2.125A2.125,2.125,0,0,0,37.375,36.667Z" fill="#fff"/>
  </g>
</svg>
