<svg width="41" height="41" viewBox="0 0 41 41" fill="none" xmlns="http://www.w3.org/2000/svg">
<mask id="mask0_524_7366" style="mask-type:luminance" maskUnits="userSpaceOnUse" x="0" y="0" width="41" height="41">
<path d="M40.299 0.179688H0.13501V40.3437H40.299V0.179688Z" fill="white"/>
</mask>
<g mask="url(#mask0_524_7366)">
<path d="M26.48 21.7295L22.917 25.2925L32.988 35.3635L36.551 31.8005L26.48 21.7295Z" fill="white"/>
<path d="M29.1599 16.6049C30.7187 16.6033 32.2131 15.9834 33.3153 14.8812C34.4175 13.779 35.0374 12.2846 35.0389 10.7259C35.03 9.78768 34.7936 8.86564 34.3499 8.03889L29.8149 12.5739L27.3149 10.0739L31.8499 5.53889C31.0232 5.09527 30.1012 4.85884 29.1629 4.84989C27.6042 4.85148 26.1098 5.47138 25.0076 6.57356C23.9054 7.67574 23.2855 9.17017 23.2839 10.7289C23.2877 11.3938 23.4071 12.053 23.6369 12.6769L20.5269 15.7849L17.5369 12.7949L18.7299 11.6029L16.3619 9.23489L19.9229 5.67389C18.9783 4.73024 17.6977 4.2002 16.3624 4.2002C15.0272 4.2002 13.7466 4.73024 12.8019 5.67389L6.85594 11.6199L9.22294 13.9849H4.48695L3.29395 15.1779L9.23994 21.1239L10.4329 19.9309V15.1779L12.8009 17.5459L13.9939 16.3529L16.9839 19.3429L4.53695 31.7849L8.09394 35.3489L27.2079 16.2489C27.8329 16.4802 28.4935 16.6007 29.1599 16.6049Z" fill="white"/>
</g>
</svg>
