<svg xmlns="http://www.w3.org/2000/svg" width="25.833" height="25.833" viewBox="0 0 25.833 25.833">
  <path id="Path_12606" data-name="Path 12606" d="M38.992,18.616A20.916,20.916,0,0,0,31.5,17.583a20.917,20.917,0,0,0-7.492,1.033,8.084,8.084,0,0,0-5.425,7.827V43.416H44.417V26.444A8.084,8.084,0,0,0,38.992,18.616ZM27.845,40.833,29.783,38.9h3.436l1.938,1.938Zm-2.79-7.75V26.625H37.972v6.458Zm12.258,2.583a1.292,1.292,0,1,1-1.292-1.292A1.3,1.3,0,0,1,37.313,35.666ZM26.98,34.375a1.292,1.292,0,1,1-1.292,1.292A1.3,1.3,0,0,1,26.98,34.375Zm14.854,6.458H37.313v-.491l-1.486-1.5a3.848,3.848,0,0,0,3.423-3.823v-8.4c0-3.4-3.875-3.875-7.75-3.875s-7.75.478-7.75,3.875v8.4a3.848,3.848,0,0,0,3.423,3.823l-1.485,1.5v.491H21.167V26.444a5.485,5.485,0,0,1,3.785-5.425,18.87,18.87,0,0,1,6.549-.853,18.869,18.869,0,0,1,6.549.853,5.485,5.485,0,0,1,3.785,5.425Z" transform="translate(-18.584 -17.583)" fill="#fff"/>
</svg>
