<svg xmlns="http://www.w3.org/2000/svg" width="21" height="30" viewBox="0 0 21 30">
  <path id="Path_12609" data-name="Path 12609" d="M32.5,20.5l1.125-2.25H38.5V16h-15v2.25h7.125L29.5,20.5c-4.695.135-9,1.095-9,5.25V38.5a4.488,4.488,0,0,0,3.825,4.425L22,45.25V46h3l3-3h6l3,3h3v-.75l-2.325-2.325A4.488,4.488,0,0,0,41.5,38.5V25.75C41.5,21.595,37.195,20.635,32.5,20.5Zm-2.955,3h2.91c4.125.12,5.43.87,5.85,1.5H23.695C24.115,24.37,25.42,23.62,29.545,23.5Zm-.27,16.425H24.61A1.46,1.46,0,0,1,23.5,38.5V37h5.835a2.23,2.23,0,0,0-.585,1.5A2.194,2.194,0,0,0,29.275,39.925ZM38.5,38.5a1.46,1.46,0,0,1-1.11,1.425H32.725A2.194,2.194,0,0,0,33.25,38.5a2.23,2.23,0,0,0-.585-1.5H38.5Zm0-4.5h-15V28h15Z" transform="translate(-20.5 -16)" fill="#fff"/>
</svg>
