<svg width="42" height="40" viewBox="0 0 42 40" fill="none" xmlns="http://www.w3.org/2000/svg">
<mask id="mask0_524_7419" style="mask-type:luminance" maskUnits="userSpaceOnUse" x="0" y="0" width="42" height="40">
<path d="M41.499 0H0.499023V40H41.499V0Z" fill="white"/>
</mask>
<g mask="url(#mask0_524_7419)">
<path d="M36.19 4.71191H6.25398C5.36836 4.71904 4.52153 5.07627 3.89837 5.70561C3.27522 6.33494 2.92637 7.18526 2.92798 8.07091V28.2259C2.92637 29.1116 3.27522 29.9619 3.89837 30.5912C4.52153 31.2206 5.36836 31.5778 6.25398 31.5849H14.57V34.9439H27.87V31.5849H36.186C37.07 31.5773 37.9149 31.2193 38.5354 30.5897C39.1558 29.96 39.5013 29.1099 39.496 28.2259L39.513 8.07091C39.5146 7.18578 39.1662 6.33591 38.5437 5.70666C37.9212 5.07741 37.0751 4.71983 36.19 4.71191ZM36.19 28.2259H6.25398V8.07091H36.19V28.2259Z" fill="white"/>
</g>
</svg>
