<svg width="38" height="28" viewBox="0 0 38 28" fill="none" xmlns="http://www.w3.org/2000/svg">
<path d="M27.36 0.669922H3.48404C2.52134 0.732459 1.62243 1.17317 0.983416 1.89593C0.344405 2.61868 0.0171477 3.56481 0.0730369 4.52792V21.8919H3.48404C3.48404 25.0749 5.76904 27.6799 8.60004 27.6799C11.431 27.6799 13.716 25.0799 13.716 21.8919H23.096C23.096 25.0749 25.381 27.6799 28.212 27.6799C31.043 27.6799 33.328 25.0799 33.328 21.8919H37.592V12.2449L27.36 0.669922ZM3.48404 12.2449V4.52792H10.306V12.2449H3.48404ZM8.60004 24.7849C7.89395 24.6977 7.24411 24.3553 6.77288 23.8223C6.30166 23.2893 6.04156 22.6024 6.04156 21.8909C6.04156 21.1795 6.30166 20.4926 6.77288 19.9595C7.24411 19.4265 7.89395 19.0842 8.60004 18.9969C9.30613 19.0842 9.95596 19.4265 10.4272 19.9595C10.8984 20.4926 11.1585 21.1795 11.1585 21.8909C11.1585 22.6024 10.8984 23.2893 10.4272 23.8223C9.95596 24.3553 9.30613 24.6977 8.60004 24.7849ZM20.538 12.2449H13.716V4.52792H20.538V12.2449ZM28.212 24.7849C27.6245 24.857 27.0289 24.7485 26.5045 24.474C25.9801 24.1994 25.5516 23.7717 25.2761 23.2478C25.0006 22.7239 24.8911 22.1285 24.9621 21.5408C25.0331 20.9532 25.2813 20.401 25.6736 19.9578C26.066 19.5146 26.584 19.2012 27.1587 19.0595C27.7334 18.9177 28.3377 18.9542 28.8912 19.1641C29.4446 19.3741 29.9211 19.7475 30.2573 20.2347C30.5934 20.722 30.7733 21.3 30.773 21.8919C30.8157 22.6148 30.5704 23.3251 30.0906 23.8675C29.6108 24.4099 28.9357 24.7401 28.213 24.7859L28.212 24.7849ZM23.948 12.2449V4.52792H25.653L32.473 12.2449H23.948Z" fill="white"/>
</svg>
