<svg xmlns="http://www.w3.org/2000/svg" width="26.125" height="24.75" viewBox="0 0 26.125 24.75">
  <g id="Group_1489" data-name="Group 1489" transform="translate(-17.438 -19.125)">
    <path id="Path_12596" data-name="Path 12596" d="M42.188,25.01V21.875a2.758,2.758,0,0,0-2.75-2.75H20.188a2.749,2.749,0,0,0-2.75,2.75v19.25a2.749,2.749,0,0,0,2.75,2.75h19.25a2.758,2.758,0,0,0,2.75-2.75V37.99a2.751,2.751,0,0,0,1.375-2.365v-8.25A2.751,2.751,0,0,0,42.188,25.01Zm-1.375,2.365v8.25H31.188v-8.25ZM20.188,41.125V21.875h19.25v2.75h-8.25a2.758,2.758,0,0,0-2.75,2.75v8.25a2.758,2.758,0,0,0,2.75,2.75h8.25v2.75Z" fill="#fff"/>
    <path id="Path_12597" data-name="Path 12597" d="M35.313,33.563A2.063,2.063,0,1,0,33.25,31.5,2.062,2.062,0,0,0,35.313,33.563Z" fill="#fff"/>
  </g>
</svg>
