<svg width="42" height="41" viewBox="0 0 42 41" fill="none" xmlns="http://www.w3.org/2000/svg">
<mask id="mask0_524_7373" style="mask-type:luminance" maskUnits="userSpaceOnUse" x="0" y="0" width="42" height="41">
<path d="M41.0351 0.179688H0.871094V40.3437H41.0351V0.179688Z" fill="white"/>
</mask>
<g mask="url(#mask0_524_7373)">
<path d="M5.65601 23.3237C5.6615 24.3626 5.98688 25.3746 6.5879 26.222C7.18891 27.0694 8.03637 27.711 9.01501 28.0597V33.4007H5.65601V36.7597H15.734V33.4007H12.374V28.0597C13.3526 27.711 14.2001 27.0694 14.8011 26.222C15.4021 25.3746 15.7275 24.3626 15.733 23.3237V9.88672H5.65601V23.3237ZM9.01501 13.2467H12.374V18.2867H9.01501V13.2467ZM9.01501 21.6467H12.374V23.3267C12.3633 23.7651 12.1817 24.1818 11.8679 24.4881C11.5541 24.7943 11.133 24.9657 10.6945 24.9657C10.256 24.9657 9.83495 24.7943 9.52115 24.4881C9.20734 24.1818 9.0257 23.7651 9.01501 23.3267V21.6467Z" fill="white"/>
<path d="M35.283 14.1529L33.671 13.6159C33.3368 13.503 33.0466 13.2876 32.8416 13.0004C32.6366 12.7132 32.5273 12.3688 32.529 12.0159V4.84895C32.5277 4.40379 32.3503 3.97724 32.0355 3.66246C31.7207 3.34769 31.2942 3.17026 30.849 3.16895H25.81C25.3649 3.17026 24.9383 3.34769 24.6236 3.66246C24.3088 3.97724 24.1314 4.40379 24.13 4.84895V12.0379C24.1318 12.3908 24.0225 12.7352 23.8175 13.0224C23.6125 13.3096 23.3223 13.525 22.988 13.6379L21.376 14.1689C20.7106 14.3973 20.133 14.8276 19.7236 15.3997C19.3142 15.9719 19.0935 16.6574 19.092 17.3609V33.4009C19.0947 34.291 19.4494 35.1438 20.0788 35.7732C20.7081 36.4026 21.561 36.7573 22.451 36.7599H34.208C35.0981 36.7573 35.9509 36.4026 36.5803 35.7732C37.2097 35.1438 37.5644 34.291 37.567 33.4009V17.3449C37.5656 16.6414 37.3449 15.9559 36.9355 15.3837C36.5261 14.8116 35.9485 14.3813 35.283 14.1529ZM27.492 6.52795H29.172V8.20794H27.492V6.52795ZM34.21 33.4009H22.451V30.0419H34.208L34.21 33.4009ZM34.21 26.6829H22.451V23.3239H34.208L34.21 26.6829ZM34.21 19.9649H22.451V17.3449L24.051 16.8079C25.0554 16.4788 25.9297 15.8399 26.5483 14.9829C27.1669 14.1259 27.498 13.0949 27.494 12.0379V11.5689H29.174V12.0389C29.1725 13.0974 29.5042 14.1294 30.1222 14.9886C30.7402 15.8479 31.6131 16.4907 32.617 16.8259L34.217 17.3469L34.21 19.9649Z" fill="white"/>
</g>
</svg>
