<svg width="41" height="42" viewBox="0 0 41 42" fill="none" xmlns="http://www.w3.org/2000/svg">
<mask id="mask0_524_7331" style="mask-type:luminance" maskUnits="userSpaceOnUse" x="0" y="0" width="41" height="42">
<path d="M40.983 0.976562H0.969971V41.1406H40.983V0.976562Z" fill="white"/>
</mask>
<g mask="url(#mask0_524_7331)">
<path d="M21.3658 14.0422C22.0307 14.0446 22.6813 13.8496 23.2352 13.4819C23.7892 13.1143 24.2216 12.5905 24.4777 11.977C24.7337 11.3634 24.802 10.6876 24.6737 10.0353C24.5455 9.38291 24.2265 8.78327 23.7572 8.3123C23.2879 7.84134 22.6894 7.52023 22.0375 7.38965C21.3856 7.25906 20.7096 7.32488 20.0952 7.57876C19.4807 7.83263 18.9554 8.26316 18.5857 8.8158C18.2161 9.36844 18.0188 10.0183 18.0188 10.6832C18.018 11.1235 18.104 11.5597 18.2717 11.9668C18.4395 12.3739 18.6858 12.744 18.9966 13.0559C19.3074 13.3678 19.6766 13.6154 20.0831 13.7847C20.4896 13.9539 20.9255 14.0414 21.3658 14.0422Z" fill="white"/>
<path d="M36.4249 27.4797V24.1227C34.6245 24.1295 32.846 23.7281 31.2231 22.9487C29.6002 22.1693 28.1751 21.0321 27.0549 19.6227L24.8129 16.9357C24.5025 16.5564 24.1118 16.2508 23.6689 16.041C23.226 15.8313 22.742 15.7225 22.2519 15.7227H20.4949C20.0053 15.7222 19.5217 15.8304 19.079 16.0395C18.6363 16.2485 18.2456 16.5533 17.9349 16.9317L15.6929 19.6227C14.5681 21.0312 13.1397 22.1674 11.5142 22.9466C9.88884 23.7258 8.10843 24.1278 6.30591 24.1227V27.4817C8.53944 27.4882 10.747 27.0024 12.7714 26.0589C14.7959 25.1154 16.5875 23.7373 18.0189 22.0227V25.8017L11.5269 28.4017C10.8813 28.6638 10.3467 29.142 10.0145 29.7545C9.68223 30.367 9.57295 31.0758 9.70529 31.76C9.83763 32.4441 10.2034 33.0611 10.7401 33.5055C11.2768 33.9499 11.9511 34.1942 12.6479 34.1967H16.3479V33.3567C16.346 32.2451 16.7856 31.1783 17.57 30.3908C18.3544 29.6032 19.4194 29.1593 20.5309 29.1567H25.5509C25.7737 29.1567 25.9873 29.2452 26.1449 29.4027C26.3024 29.5602 26.3909 29.7739 26.3909 29.9967C26.3909 30.2194 26.3024 30.4331 26.1449 30.5906C25.9873 30.7482 25.7737 30.8367 25.5509 30.8367H20.5309C20.2006 30.8368 19.8735 30.9021 19.5684 31.0288C19.2634 31.1556 18.9863 31.3413 18.7532 31.5753C18.52 31.8093 18.3353 32.087 18.2097 32.3925C18.084 32.698 18.0199 33.0253 18.0209 33.3557V34.1957H30.0829C30.7786 34.192 31.4515 33.9473 31.987 33.5032C32.5225 33.0592 32.8876 32.4432 33.02 31.7603C33.1524 31.0773 33.044 30.3695 32.7132 29.7575C32.3825 29.1455 31.8498 28.6671 31.2059 28.4037L24.7139 25.8037V22.0227C26.1453 23.7366 27.9367 25.1142 29.9608 26.0574C31.9848 27.0005 34.1919 27.4861 36.4249 27.4797Z" fill="white"/>
</g>
</svg>
